<svg width="100" height="70" viewBox="0 0 100 70" fill="none" xmlns="http://www.w3.org/2000/svg">
<g clip-path="url(#clip0)">
<path d="M18.6329 36.3326C18.6329 49.3479 10.3397 59.8998 0.110352 59.8998V12.7655C10.3397 12.7655 18.6329 23.3174 18.6329 36.3326Z" fill="#555B6E"/>
<path d="M81.3672 36.3326C81.3672 49.3479 89.6605 59.8998 99.8898 59.8998V12.7655C89.6605 12.7655 81.3672 23.3174 81.3672 36.3326Z" fill="#555B6E"/>
<path d="M18.073 9.93339C17.8114 9.93339 17.5556 9.83466 17.338 9.64969C17.1204 9.46472 16.9508 9.20181 16.8507 8.89422C16.7506 8.58662 16.7244 8.24815 16.7754 7.92161C16.8265 7.59507 16.9525 7.29512 17.1375 7.0597C17.3225 6.82427 17.5583 6.66395 17.8149 6.599C18.0716 6.53404 18.3376 6.56738 18.5794 6.69479C18.8211 6.8222 19.0277 7.03796 19.1731 7.31479C19.3185 7.59162 19.3961 7.91708 19.3961 8.25002C19.3957 8.69632 19.2562 9.12419 19.0081 9.43977C18.7601 9.75536 18.4238 9.93287 18.073 9.93339ZM18.073 6.84721C17.855 6.84721 17.6418 6.92949 17.4605 7.08363C17.2792 7.23777 17.1379 7.45686 17.0544 7.71319C16.971 7.96952 16.9492 8.25157 16.9917 8.52369C17.0342 8.79581 17.1392 9.04577 17.2934 9.24195C17.4476 9.43814 17.6441 9.57174 17.858 9.62587C18.0718 9.68 18.2935 9.65222 18.495 9.54604C18.6964 9.43987 18.8686 9.26007 18.9898 9.02938C19.1109 8.79869 19.1756 8.52747 19.1756 8.25002C19.1753 7.8781 19.059 7.52153 18.8523 7.25854C18.6456 6.99556 18.3654 6.84763 18.073 6.84721Z" fill="#555B6E"/>
<path d="M76.9295 53.6013H74.7529V50.832H76.9295V53.6013ZM74.9204 53.3883H76.762V51.0451H74.9204L74.9204 53.3883Z" fill="#555B6E"/>
<path d="M25.071 51.0875L23.5864 49.0624L25.1781 47.1735L26.6626 49.1986L25.071 51.0875ZM23.8231 49.0728L25.0792 50.7864L26.426 49.1881L25.1698 47.4745L23.8231 49.0728Z" fill="#555B6E"/>
<path d="M74.7969 69.9298C72.4129 69.4549 70.1206 69.051 67.9202 68.718L68.7675 66.5618C68.4734 66.4371 67.1989 67.6845 67.1989 67.6845L68.2773 61.4475C66.8068 61.697 66.1205 68.0587 66.1205 68.0587L64.4538 65.9381L65.2743 68.339C58.5408 67.4388 52.7305 67.1579 47.8463 67.2223L48.5715 65.3768C48.2774 65.252 47.0029 66.4994 47.0029 66.4994L48.0813 60.2625C46.6107 60.512 45.9245 66.8737 45.9245 66.8737L44.2578 64.7531L45.1268 67.296C41.7811 67.4197 38.4427 67.7618 35.1246 68.3208C35.8483 65.4524 38.3755 62.6949 38.3755 62.6949C36.4323 63.4641 35.4214 64.7172 34.8981 65.8788C34.7923 59.9857 35.5048 54.115 37.0029 48.537C37.0029 48.537 33.0814 59.7635 33.6696 67.2479L33.7442 68.5774C30.3326 69.2545 28.6206 69.9298 28.6206 69.9298H74.7969Z" fill="#555B6E"/>
<path opacity="0.3" d="M50.6202 54.8519C59.0841 54.8519 65.9454 46.1219 65.9454 35.3529C65.9454 24.5839 59.0841 15.8539 50.6202 15.8539C42.1563 15.8539 35.2949 24.5839 35.2949 35.3529C35.2949 46.1219 42.1563 54.8519 50.6202 54.8519Z" fill="#89B0AE"/>
<path d="M44.3265 10.5463L34.1226 26.2988L49.2244 48.9756L59.2922 33.9155L44.3265 10.5463Z" fill="#89B0AE"/>
<path opacity="0.1" d="M44.3265 10.5463L34.1226 26.2988L49.2244 48.9756L59.2922 33.9155L44.3265 10.5463Z" fill="#555B6E"/>
<path d="M34.5308 26.472C34.7565 25.9551 35.0364 25.4796 35.3627 25.0586L44.7347 12.9698C44.7347 12.9698 47.9999 12.2774 48.6802 14.3546L36.7076 26.8182L34.5308 26.472Z" fill="#FAF9F9"/>
<path d="M34.0547 26.2125L47.932 53.2169C47.932 53.2169 49.2926 54.4287 50.6531 53.7362L64.8706 41.5323L49.7687 12.4506L36.1635 25.9528L34.0547 26.2125Z" fill="#89B0AE"/>
<path d="M48.0718 16.6648L39.3638 24.6265L39.4924 24.8543L48.2005 16.8926L48.0718 16.6648Z" fill="#555B6E"/>
<path d="M39.2484 27.6063L39.0645 27.7611L50.4929 49.7456L50.6768 49.5908L39.2484 27.6063Z" fill="#555B6E"/>
<path d="M61.1308 41.5905L51.8813 50.2493L52.0121 50.4753L61.2615 41.8165L61.1308 41.5905Z" fill="#555B6E"/>
<path d="M49.7229 17.0443L49.542 17.2045L61.3785 38.8426L61.5594 38.6824L49.7229 17.0443Z" fill="#555B6E"/>
<path d="M46.0671 12.7982L35.3013 25.3696L35.3932 25.4971L46.159 12.9256L46.0671 12.7982Z" fill="#555B6E"/>
<path d="M46.9636 12.906L35.7119 25.5443L35.802 25.6741L47.0537 13.0358L46.9636 12.906Z" fill="#555B6E"/>
<path d="M47.6676 13.1579L35.9873 25.5454L36.0745 25.6784L47.7547 13.2909L47.6676 13.1579Z" fill="#555B6E"/>
<path d="M96.3619 36.3326C95.7357 36.0372 94.9587 35.5328 94.4771 34.9985L94.8166 36.1923H88.7544V36.4729H94.8166L94.4771 37.6669C94.9587 37.1326 95.7357 36.6282 96.3619 36.3326Z" fill="#FAF9F9"/>
<path d="M11.356 36.1924H5.29385L5.63329 34.9984C5.15169 35.5327 4.37474 36.0371 3.74854 36.3327C4.37474 36.6281 5.15169 37.1325 5.63329 37.6668L5.29386 36.473H11.356V36.1924Z" fill="#FAF9F9"/>
</g>
<defs>
<clipPath id="clip0">
<rect width="100" height="70" fill="white"/>
</clipPath>
</defs>
</svg>
