<svg width="433" height="387" viewBox="0 0 433 387" fill="none" xmlns="http://www.w3.org/2000/svg">
<path d="M217.356 5.41675L81.4695 89.0739C81.4695 89.0739 81.4695 261.617 217.356 355.731C353.243 261.617 353.243 89.0739 353.243 89.0739L217.356 5.41675Z" fill="#89B0AE"/>
<path opacity="0.04" d="M218.168 5.41675L215.845 6.84679V354.099C216.616 354.645 217.387 355.19 218.168 355.731C354.054 261.617 354.054 89.0738 354.054 89.0738L218.168 5.41675Z" fill="#6C63FF"/>
<g opacity="0.7">
<path opacity="0.7" d="M184.459 174.939L210.076 198.431L241.832 152.601L254.64 163.279L210.076 219.787L173.785 179.21L184.459 174.939Z" fill="url(#paint0_linear)"/>
</g>
<path d="M190.505 176.35L211.285 195.406L240.723 152.096L251.114 160.759L211.285 212.73L181.847 179.815L190.505 176.35Z" fill="#FFD6BA"/>
<path opacity="0.5" d="M83.2796 24.1722C82.8631 23.9908 82.5278 23.6624 82.3375 23.2496C82.1473 22.8368 82.1155 22.3685 82.248 21.9338C82.2695 21.8671 82.283 21.7982 82.2883 21.7283V21.7283C82.3004 21.5292 82.2481 21.3314 82.139 21.1643C82.03 20.9972 81.8701 20.8696 81.6829 20.8006C81.4958 20.7315 81.2914 20.7246 81.1 20.7808C80.9086 20.8371 80.7404 20.9535 80.6203 21.1128V21.1128C80.579 21.1693 80.5446 21.2306 80.5176 21.2952C80.3362 21.7119 80.0079 22.0473 79.5953 22.2376C79.1828 22.4279 78.7146 22.4598 78.28 22.3272C78.2134 22.3057 78.1445 22.2922 78.0747 22.2869C77.8756 22.2748 77.6779 22.3272 77.5109 22.4362C77.3438 22.5453 77.2163 22.7053 77.1473 22.8925C77.0783 23.0797 77.0713 23.2842 77.1276 23.4757C77.1838 23.6672 77.3001 23.8354 77.4594 23.9556V23.9556C77.5159 23.9969 77.5771 24.0314 77.6417 24.0583C78.0583 24.2398 78.3936 24.5682 78.5838 24.981C78.774 25.3937 78.8059 25.8621 78.6733 26.2968C78.6519 26.3635 78.6384 26.4324 78.6331 26.5022V26.5022C78.6209 26.7014 78.6733 26.8992 78.7823 27.0663C78.8913 27.2334 79.0513 27.3609 79.2384 27.43C79.4256 27.4991 79.63 27.506 79.8213 27.4498C80.0127 27.3935 80.1809 27.2771 80.301 27.1178V27.1178C80.3423 27.0612 80.3768 27 80.4037 26.9354C80.5851 26.5187 80.9134 26.1833 81.326 25.9929C81.7386 25.8026 82.2067 25.7708 82.6413 25.9034C82.7079 25.9248 82.7768 25.9383 82.8466 25.9436V25.9436C83.0457 25.9558 83.2434 25.9034 83.4105 25.7943C83.5775 25.6853 83.705 25.5253 83.774 25.338C83.8431 25.1508 83.85 24.9463 83.7938 24.7549C83.7375 24.5634 83.6212 24.3952 83.4619 24.275V24.275C83.4054 24.2337 83.3442 24.1992 83.2796 24.1722V24.1722Z" fill="#4D8AF0"/>
<path opacity="0.5" d="M9.71891 187.988C9.30237 187.806 8.96708 187.478 8.77686 187.065C8.58663 186.653 8.55476 186.184 8.68731 185.749C8.70876 185.683 8.72227 185.614 8.72757 185.544V185.544C8.73969 185.345 8.68736 185.147 8.57833 184.98C8.4693 184.813 8.30937 184.685 8.12222 184.616C7.93508 184.547 7.73068 184.54 7.53929 184.596C7.3479 184.653 7.17972 184.769 7.05964 184.928V184.928C7.01834 184.985 6.98386 185.046 6.9569 185.111C6.77549 185.528 6.44724 185.863 6.03464 186.053C5.62205 186.244 5.15391 186.275 4.71934 186.143C4.65272 186.121 4.5838 186.108 4.51401 186.103V186.103C4.31491 186.09 4.11719 186.143 3.95016 186.252C3.78312 186.361 3.65564 186.521 3.58661 186.708C3.51757 186.895 3.51065 187.1 3.56687 187.291C3.62308 187.483 3.73945 187.651 3.89873 187.771C3.95524 187.813 4.01642 187.847 4.08102 187.874C4.49756 188.055 4.83286 188.384 5.02308 188.797C5.2133 189.209 5.24516 189.678 5.11261 190.112C5.09117 190.179 5.07766 190.248 5.07236 190.318V190.318C5.06024 190.517 5.11257 190.715 5.2216 190.882C5.33063 191.049 5.49056 191.177 5.6777 191.246C5.86485 191.315 6.06925 191.322 6.26064 191.265C6.45202 191.209 6.62022 191.093 6.7403 190.933C6.78159 190.877 6.81608 190.816 6.84303 190.751C7.02445 190.334 7.35269 189.999 7.76529 189.809C8.17788 189.618 8.64602 189.586 9.08059 189.719C9.14721 189.741 9.21613 189.754 9.28592 189.759V189.759C9.48502 189.771 9.68273 189.719 9.84977 189.61C10.0168 189.501 10.1443 189.341 10.2133 189.154C10.2823 188.967 10.2893 188.762 10.2331 188.571C10.1768 188.379 10.0605 188.211 9.9012 188.091C9.84469 188.049 9.7835 188.015 9.71891 187.988V187.988Z" fill="#4D8AF0"/>
<path opacity="0.5" d="M377.074 131.052C378.743 131.052 380.097 129.698 380.097 128.028C380.097 126.358 378.743 125.004 377.074 125.004C375.404 125.004 374.051 126.358 374.051 128.028C374.051 129.698 375.404 131.052 377.074 131.052Z" fill="#F55F44"/>
<path opacity="0.5" d="M61.1658 347.289C62.8354 347.289 64.1889 345.935 64.1889 344.265C64.1889 342.595 62.8354 341.241 61.1658 341.241C59.4962 341.241 58.1428 342.595 58.1428 344.265C58.1428 345.935 59.4962 347.289 61.1658 347.289Z" fill="#F55F44"/>
<path opacity="0.5" d="M428.465 247.488C430.135 247.488 431.488 246.134 431.488 244.463C431.488 242.793 430.135 241.439 428.465 241.439C426.796 241.439 425.442 242.793 425.442 244.463C425.442 246.134 426.796 247.488 428.465 247.488Z" fill="#F55F44"/>
<path opacity="0.5" d="M354.85 38.7897C354.433 38.6082 354.098 38.2798 353.907 37.867C353.717 37.4543 353.685 36.9859 353.818 36.5512C353.839 36.4845 353.853 36.4156 353.858 36.3458V36.3458C353.87 36.1466 353.818 35.9488 353.709 35.7817C353.6 35.6146 353.44 35.4871 353.253 35.418C353.066 35.3489 352.861 35.342 352.67 35.3982C352.479 35.4545 352.31 35.5709 352.19 35.7302C352.149 35.7868 352.114 35.848 352.088 35.9126C351.906 36.3293 351.578 36.6648 351.165 36.8551C350.753 37.0454 350.285 37.0772 349.85 36.9446C349.783 36.9232 349.714 36.9097 349.645 36.9044V36.9044C349.446 36.8922 349.248 36.9446 349.081 37.0537C348.914 37.1627 348.786 37.3227 348.717 37.51C348.648 37.6972 348.641 37.9017 348.698 38.0931C348.754 38.2846 348.87 38.4529 349.029 38.573V38.573C349.086 38.6143 349.147 38.6488 349.212 38.6758C349.628 38.8572 349.963 39.1856 350.154 39.5984C350.344 40.0112 350.376 40.4795 350.243 40.9142C350.222 40.9809 350.208 41.0498 350.203 41.1197V41.1197C350.191 41.3188 350.243 41.5166 350.352 41.6837C350.461 41.8508 350.621 41.9784 350.808 42.0474C350.995 42.1165 351.2 42.1234 351.391 42.0672C351.583 42.011 351.751 41.8945 351.871 41.7352V41.7352C351.912 41.6787 351.947 41.6174 351.974 41.5528C352.155 41.1361 352.483 40.8007 352.896 40.6104C353.308 40.4201 353.777 40.3882 354.211 40.5208C354.278 40.5423 354.347 40.5558 354.417 40.5611V40.5611C354.616 40.5732 354.813 40.5208 354.98 40.4118C355.147 40.3027 355.275 40.1427 355.344 39.9555C355.413 39.7683 355.42 39.5638 355.364 39.3723C355.307 39.1808 355.191 39.0126 355.032 38.8925C354.975 38.8511 354.914 38.8166 354.85 38.7897V38.7897Z" fill="#4D8AF0"/>
<path opacity="0.5" d="M405.234 355.332C404.817 355.15 404.482 354.822 404.292 354.409C404.101 353.996 404.069 353.528 404.202 353.093C404.223 353.027 404.237 352.958 404.242 352.888V352.888C404.254 352.689 404.202 352.491 404.093 352.324C403.984 352.157 403.824 352.029 403.637 351.96C403.45 351.891 403.245 351.884 403.054 351.94C402.863 351.997 402.694 352.113 402.574 352.272C402.533 352.329 402.499 352.39 402.472 352.455C402.29 352.872 401.962 353.207 401.549 353.397C401.137 353.588 400.669 353.619 400.234 353.487C400.167 353.465 400.098 353.452 400.029 353.447V353.447C399.83 353.434 399.632 353.487 399.465 353.596C399.298 353.705 399.17 353.865 399.101 354.052C399.032 354.239 399.025 354.444 399.082 354.635C399.138 354.827 399.254 354.995 399.413 355.115V355.115C399.47 355.157 399.531 355.191 399.596 355.218C400.012 355.399 400.348 355.728 400.538 356.141C400.728 356.553 400.76 357.022 400.627 357.456C400.606 357.523 400.592 357.592 400.587 357.662V357.662C400.575 357.861 400.627 358.059 400.736 358.226C400.845 358.393 401.005 358.521 401.192 358.59C401.38 358.659 401.584 358.666 401.775 358.609C401.967 358.553 402.135 358.437 402.255 358.277V358.277C402.296 358.221 402.331 358.16 402.358 358.095C402.539 357.678 402.867 357.343 403.28 357.153C403.693 356.962 404.161 356.93 404.595 357.063C404.662 357.084 404.731 357.098 404.801 357.103V357.103C405 357.115 405.197 357.063 405.364 356.954C405.531 356.845 405.659 356.685 405.728 356.498C405.797 356.311 405.804 356.106 405.748 355.915C405.692 355.723 405.575 355.555 405.416 355.435C405.359 355.393 405.298 355.359 405.234 355.332V355.332Z" fill="#4D8AF0"/>
<path opacity="0.5" d="M6.19203 92.2186C5.77548 92.0371 5.44019 91.7088 5.24997 91.296C5.05975 90.8832 5.02788 90.4149 5.16043 89.9801C5.18188 89.9135 5.19539 89.8446 5.20068 89.7747V89.7747C5.2128 89.5755 5.16047 89.3778 5.05144 89.2106C4.94241 89.0435 4.78248 88.916 4.59534 88.8469C4.40819 88.7779 4.20379 88.771 4.0124 88.8272C3.82102 88.8834 3.65283 88.9999 3.53275 89.1592C3.49146 89.2157 3.45697 89.2769 3.43002 89.3416C3.2486 89.7583 2.92035 90.0937 2.50776 90.284C2.09516 90.4743 1.62703 90.5062 1.19246 90.3736C1.12583 90.3521 1.05692 90.3386 0.987125 90.3333V90.3333C0.788022 90.3212 0.590309 90.3735 0.423272 90.4826C0.256236 90.5917 0.128758 90.7517 0.0597226 90.9389C-0.00931291 91.1261 -0.0162361 91.3306 0.0399798 91.5221C0.0961957 91.7135 0.212563 91.8818 0.37184 92.0019V92.0019C0.42835 92.0433 0.489537 92.0777 0.55413 92.1047C0.970674 92.2862 1.30597 92.6146 1.49619 93.0273C1.68642 93.4401 1.71828 93.9084 1.58573 94.3432C1.56428 94.4098 1.55077 94.4788 1.54547 94.5486V94.5486C1.53335 94.7478 1.58568 94.9456 1.69471 95.1127C1.80374 95.2798 1.96367 95.4073 2.15082 95.4764C2.33796 95.5455 2.54237 95.5524 2.73375 95.4961C2.92514 95.4399 3.09333 95.3235 3.21341 95.1641V95.1641C3.25471 95.1076 3.28919 95.0464 3.31615 94.9818C3.49756 94.5651 3.82581 94.2296 4.2384 94.0393C4.651 93.849 5.11913 93.8171 5.5537 93.9498C5.62032 93.9712 5.68924 93.9847 5.75903 93.99V93.99C5.95813 94.0021 6.15585 93.9498 6.32288 93.8407C6.48992 93.7316 6.61739 93.5716 6.68643 93.3844C6.75546 93.1972 6.76238 92.9927 6.70617 92.8013C6.64995 92.6098 6.53359 92.4415 6.37432 92.3214C6.31781 92.2801 6.25662 92.2456 6.19203 92.2186V92.2186Z" fill="#4D8AF0"/>
<path opacity="0.5" d="M40.0045 146.174C41.6741 146.174 43.0275 144.82 43.0275 143.15C43.0275 141.48 41.6741 140.125 40.0045 140.125C38.3349 140.125 36.9815 141.48 36.9815 143.15C36.9815 144.82 38.3349 146.174 40.0045 146.174Z" fill="#47E6B1"/>
<path opacity="0.5" d="M429.977 170.368C431.647 170.368 433 169.014 433 167.344C433 165.674 431.647 164.32 429.977 164.32C428.307 164.32 426.954 165.674 426.954 167.344C426.954 169.014 428.307 170.368 429.977 170.368Z" fill="#47E6B1"/>
<g opacity="0.5">
<path opacity="0.5" d="M295.452 0H293.94V8.56882H295.452V0Z" fill="#47E6B1"/>
<path opacity="0.5" d="M298.978 5.04046V3.52832L290.413 3.52832V5.04046H298.978Z" fill="#47E6B1"/>
</g>
<g opacity="0.5">
<path opacity="0.5" d="M300.994 335.696H299.482V344.265H300.994V335.696Z" fill="#47E6B1"/>
<path opacity="0.5" d="M304.521 340.737V339.224H295.955V340.737H304.521Z" fill="#47E6B1"/>
</g>
<g opacity="0.5">
<path opacity="0.5" d="M14.8125 353.842H13.301V362.411H14.8125V353.842Z" fill="#47E6B1"/>
<path opacity="0.5" d="M18.3394 358.882V357.37H9.7741V358.882H18.3394Z" fill="#47E6B1"/>
</g>
<g opacity="0.5">
<path opacity="0.5" d="M358.935 199.603H357.424V208.172H358.935V199.603Z" fill="#47E6B1"/>
<path opacity="0.5" d="M362.462 204.643V203.131H353.897V204.643H362.462Z" fill="#47E6B1"/>
</g>
<path opacity="0.5" d="M400.858 62.007L404.105 64.9839L408.704 58.2175L410.327 59.5709L404.105 67.6906L399.506 62.5483L400.858 62.007Z" fill="#47E6B1"/>
<path d="M308.184 120.604L296.986 121.039L297.544 135.442L308.742 135.008L308.184 120.604Z" fill="#6C63FF"/>
<path d="M257.669 171.049C257.669 171.049 242.161 163.637 242.409 170.038C242.657 176.44 258.041 180.651 258.041 180.651L257.669 171.049Z" fill="#FFB9B9"/>
<path d="M266.177 225.214C266.177 225.214 258.861 243.129 256.157 256.056C253.454 268.983 249.337 286.774 254.633 299.391C259.928 312.008 274.984 349.09 275.139 353.091C275.294 357.092 273.85 361.155 277.049 361.031C280.248 360.906 297.659 355.423 298.366 352.991C299.073 350.559 292.426 344.406 292.426 344.406L276.012 292.952L293.138 259.43L305.49 309.439L307.909 371.854C307.909 371.854 319.783 368.188 321.507 371.327C321.507 371.327 326.827 363.908 327.503 360.676C328.179 357.444 324.99 295.86 324.99 295.86C324.99 295.86 335.89 225.715 327.091 226.057C318.292 226.398 283.83 205.296 266.177 225.214Z" fill="#6C63FF"/>
<path d="M276.925 357.83C276.925 357.83 268.809 375.776 268.04 376.607C267.271 377.438 261.982 385.657 265.982 385.502C269.981 385.347 279.424 380.974 286.375 374.293C293.326 367.612 302.49 356.037 301.659 355.267C300.828 354.498 295.136 352.315 295.136 352.315L276.925 357.83Z" fill="#575A89"/>
<path d="M309.354 367.791C309.354 367.791 308.864 375.824 307.389 379.087C305.913 382.35 306.099 387.151 310.098 386.996C314.098 386.841 324.434 384.837 324.434 384.837C324.434 384.837 325.048 380.005 324.217 379.236C323.386 378.467 319.845 369.789 321.352 367.326C322.859 364.863 309.354 367.791 309.354 367.791Z" fill="#575A89"/>
<path d="M315.271 107.106C315.271 107.106 323.797 120.4 327.12 123.476C330.444 126.553 321.093 133.327 321.093 133.327L304.358 135.579C304.358 135.579 304.569 120.344 303.707 118.775C302.845 117.205 315.271 107.106 315.271 107.106Z" fill="#FFB9B9"/>
<path d="M300.725 124.5C300.725 124.5 304.172 130.778 307.372 130.654C310.571 130.529 327.12 123.476 327.827 121.045C328.534 118.613 333.309 138.463 333.309 138.463L292.814 209.756L282.937 202.926L287.723 161.068L291.653 138.476L300.725 124.5Z" fill="#6C63FF"/>
<path d="M329.321 188.304C327.705 191.685 326.696 195.21 326.836 198.819C326.843 198.979 326.849 199.139 326.863 199.299C327.246 206.705 329.973 215.27 330.952 221.499C331.662 225.968 331.46 229.229 328.846 229.996C322.509 231.844 329.77 233.165 305.253 241.329C280.736 249.493 276.458 242.446 276.396 240.846C276.334 239.246 279.868 227.087 279.037 226.318C278.206 225.549 267.411 236.386 264.15 234.91C260.888 233.433 263.777 225.307 263.777 225.307C263.777 225.307 271.125 208.193 270.97 204.192C270.815 200.191 282.099 181.321 282.099 181.321L289.775 131.336C289.775 131.336 292.726 124.811 296.694 123.855C300.662 122.9 303.955 125.176 303.955 125.176L297.314 139.859L290.308 165.776L291.48 175.347C291.48 175.347 299.628 158.202 304.979 151.583C310.33 144.964 321.738 129.295 321.738 129.295C321.738 129.295 324.402 120.304 322.391 117.617C320.38 114.922 330.778 114.519 335.212 125.567C337.562 131.422 341.377 140.153 343.767 148.283C345.896 155.485 346.902 162.218 344.792 166.066C341.568 171.945 333.456 179.673 329.321 188.304Z" fill="#575A89"/>
<path opacity="0.1" d="M344.792 166.066C341.568 171.946 333.456 179.673 329.321 188.304C328.241 184.411 326.923 180.383 326.923 180.383C326.923 180.383 321.869 153.332 336.818 146.341C339.295 146.101 341.773 146.794 343.767 148.283C345.896 155.485 346.902 162.218 344.792 166.066Z" fill="black"/>
<path d="M285.447 164.362L272.773 168.059L255.176 168.742L253.366 184.038L282.285 186.122C282.285 186.122 289.508 165.807 285.447 164.362Z" fill="#575A89"/>
<path d="M306.114 215.794C306.114 215.794 289.159 218.609 293.028 223.713C296.898 228.817 311.918 223.451 311.918 223.451L306.114 215.794Z" fill="#FFB9B9"/>
<path opacity="0.1" d="M326.863 199.299C327.246 206.705 329.973 215.27 330.952 221.499C325.551 226.613 320.414 231.124 318.479 231.199C314.479 231.354 308.049 230.802 305.681 231.696C303.312 232.589 301.923 217.416 301.923 217.416C301.923 217.416 303.337 212.553 309.642 209.904C313.899 208.112 322.058 203.252 326.863 199.299Z" fill="black"/>
<path d="M336.632 141.539C336.632 141.539 350.168 139.411 349.437 161.879C348.705 184.347 350.863 198.688 345.419 202.906C339.975 207.125 322.292 226.243 318.293 226.398C314.293 226.553 307.863 226.001 305.495 226.894C303.126 227.788 301.737 212.615 301.737 212.615C301.737 212.615 303.15 207.752 309.456 205.103C315.762 202.454 330.619 193.062 330.495 189.862C330.37 186.661 326.737 175.582 326.737 175.582C326.737 175.582 321.683 148.53 336.632 141.539Z" fill="#575A89"/>
<path d="M303.335 126.79C313.061 126.79 320.945 118.902 320.945 109.172C320.945 99.4424 313.061 91.5547 303.335 91.5547C293.609 91.5547 285.724 99.4424 285.724 109.172C285.724 118.902 293.609 126.79 303.335 126.79Z" fill="#FFB9B9"/>
<path d="M291.477 83.9211C291.052 84.2872 290.544 84.5425 289.996 84.6644C289.722 84.7134 289.439 84.6517 289.209 84.4927C288.98 84.3337 288.823 84.0904 288.772 83.8159C288.369 84.6518 287.915 85.5427 287.092 85.9716C286.269 86.4006 284.997 86.0409 284.879 85.1205C284.759 85.8193 284.45 86.472 283.985 87.0076C283.475 87.4944 282.549 87.6173 282.104 87.0705C282.464 89.0401 282.241 91.0655 282.355 93.0646C282.468 95.0636 283.001 97.1829 284.51 98.4974C286.712 100.414 290.023 99.9413 292.919 99.5781C293.357 99.4862 293.811 99.5111 294.237 99.6502C295.321 100.112 295.272 101.623 295.287 102.802C295.375 104.871 296.193 106.841 297.597 108.364C299 109.886 300.897 110.862 302.951 111.117C304.101 111.295 305.274 111.008 306.212 110.321C307.034 109.624 307.454 108.487 308.397 107.964C309.929 107.111 311.788 108.354 312.909 109.703C314.03 111.052 315.134 112.712 316.87 112.959C319.166 113.286 320.915 110.945 321.773 108.79C322.956 105.769 323.523 102.541 323.44 99.2974C323.358 96.0537 322.626 92.8594 321.29 89.903C316.496 79.4485 300.119 77.7949 291.477 83.9211Z" fill="#2F2E41"/>
<defs>
<linearGradient id="paint0_linear" x1="173.785" y1="186.194" x2="254.64" y2="186.194" gradientUnits="userSpaceOnUse">
<stop stop-color="#808080" stop-opacity="0.25"/>
<stop offset="0.53514" stop-color="#808080" stop-opacity="0.12"/>
<stop offset="1" stop-color="#808080" stop-opacity="0.1"/>
</linearGradient>
</defs>
</svg>
