<svg width="502" height="343" viewBox="0 0 502 343" fill="none" xmlns="http://www.w3.org/2000/svg">
<g clip-path="url(#clip0)">
<path d="M295.411 251.629C364.983 251.629 421.381 195.3 421.381 125.815C421.381 56.3291 364.983 0 295.411 0C225.84 0 169.442 56.3291 169.442 125.815C169.442 195.3 225.84 251.629 295.411 251.629Z" fill="#FAF9F9"/>
<path d="M71.0465 304.194C74.4681 305.395 78.1419 305.696 81.7138 305.067C85.2857 304.439 88.6354 302.902 91.4401 300.606C98.5831 294.618 100.823 284.753 102.645 275.618L108.035 248.6L96.7505 256.36C88.6357 261.941 80.338 267.701 74.7193 275.784C69.1006 283.867 66.6481 294.902 71.1625 303.648" fill="#89B0AE"/>
<path d="M72.011 336.904C70.8689 328.596 69.6945 320.18 70.4956 311.782C71.2071 304.324 73.4853 297.039 78.1235 291.066C80.5854 287.902 83.5811 285.191 86.9758 283.054C87.8611 282.496 88.6758 283.898 87.7945 284.453C81.9205 288.161 77.3772 293.636 74.8196 300.089C71.9948 307.265 71.5412 315.087 72.028 322.71C72.3224 327.32 72.9463 331.9 73.575 336.474C73.6245 336.681 73.5936 336.899 73.4885 337.084C73.3833 337.269 73.2118 337.407 73.0086 337.47C72.8012 337.526 72.5802 337.498 72.3934 337.392C72.2067 337.286 72.0693 337.111 72.011 336.904V336.904Z" fill="#FAF9F9"/>
<path d="M147.593 325.461C148.929 327.036 150.648 328.242 152.586 328.961C154.524 329.681 156.614 329.889 158.656 329.568C163.896 328.68 167.844 324.474 171.376 320.508L181.824 308.775L174.036 309.342C168.436 309.75 162.694 310.193 157.598 312.55C152.503 314.906 148.112 319.626 147.808 325.226" fill="#89B0AE"/>
<path d="M138.627 341.821C140.463 337.407 142.315 332.932 145.132 329.033C147.635 325.571 150.857 322.645 154.862 321.044C156.985 320.197 159.241 319.726 161.526 319.653C162.123 319.634 162.119 320.557 161.525 320.577C157.567 320.708 153.753 322.092 150.633 324.529C147.173 327.244 144.693 330.959 142.732 334.848C141.546 337.199 140.531 339.63 139.52 342.06C139.485 342.176 139.407 342.274 139.302 342.335C139.197 342.396 139.072 342.414 138.954 342.387C138.836 342.355 138.736 342.277 138.674 342.171C138.613 342.065 138.596 341.94 138.627 341.821H138.627Z" fill="#FAF9F9"/>
<path d="M83.0115 322.202C84.479 324.429 86.4961 326.242 88.8686 327.465C91.2411 328.688 93.889 329.28 96.5571 329.184C103.414 328.859 109.131 324.079 114.277 319.541L129.498 306.119L119.424 305.637C112.18 305.291 104.748 304.968 97.8482 307.199C90.9482 309.431 84.5846 314.801 83.3229 321.934" fill="#89B0AE"/>
<path d="M68.7835 341.681C74.2806 331.966 80.6568 321.169 92.0499 317.718C95.2178 316.762 98.5394 316.419 101.836 316.709C102.875 316.799 102.616 318.398 101.579 318.309C96.0526 317.851 90.5374 319.308 85.9613 322.436C81.5578 325.429 78.1292 329.591 75.2273 334.005C73.4498 336.708 71.8576 339.526 70.2651 342.341C69.7562 343.24 68.2686 342.591 68.7835 341.681V341.681Z" fill="#FAF9F9"/>
<path d="M306.183 175.86C317.114 169.86 330.717 171.064 342.494 175.167C354.27 179.269 364.942 185.989 376.378 190.96C411.326 206.15 453.446 203.701 486.392 184.563C489.508 191.802 486.165 200.082 482.493 207.056C478.822 214.03 474.637 221.589 476.148 229.322C478.082 239.219 488.471 245.152 492.68 254.317C496.676 263.017 494.531 273.234 491.466 282.302C488.401 291.371 484.423 300.508 484.943 310.065C485.464 319.623 492.417 329.729 502 329.737C487.798 331.941 473.316 334.146 459.122 331.887C444.929 329.629 430.81 322.131 424.219 309.374C420.925 302.998 419.656 295.666 415.873 289.567C409.429 279.177 397.063 274.292 385.395 270.609C373.728 266.927 361.242 263.38 353.027 254.322C345.199 245.692 342.72 233.67 338.573 222.787C331.589 204.569 319.458 188.769 303.654 177.305" fill="#BEE3DB"/>
<path d="M318.848 130.644C315.011 128.862 310.3 128.277 306.396 129.934C302.492 131.59 299.83 135.837 301.093 139.594C301.665 141.298 302.968 142.974 302.461 144.694C302.07 146.019 300.706 146.893 299.367 147.515C298.028 148.137 296.562 148.66 295.594 149.708C294.625 150.757 294.423 152.562 295.633 153.375C296.032 153.643 296.53 153.77 296.917 154.053C297.246 154.32 297.484 154.683 297.597 155.092C297.709 155.501 297.692 155.934 297.546 156.333C297.224 157.134 296.692 157.834 296.005 158.358C294.631 159.541 292.816 160.895 293.243 162.574C293.401 163.023 293.665 163.427 294.013 163.752C294.361 164.078 294.782 164.314 295.241 164.442C296.195 164.716 297.183 164.847 298.175 164.828L338.705 166.104C340.043 166.204 341.388 166.129 342.707 165.88C343.348 165.764 343.958 165.516 344.498 165.153C345.039 164.79 345.499 164.32 345.85 163.772C346.626 162.337 346.116 160.569 345.158 159.23C344.199 157.89 342.843 156.833 341.722 155.602C340.601 154.372 339.684 152.836 339.881 151.246C340.04 149.973 340.88 148.873 341.483 147.717C342.087 146.56 342.437 145.115 341.656 144.051C340.555 142.551 337.911 142.687 336.659 141.29C335.714 140.236 335.896 138.718 335.802 137.358C335.576 134.088 333.309 130.999 330.082 129.565C328.441 128.861 326.656 128.558 324.875 128.679C323.093 128.8 321.366 129.343 319.835 130.262L318.848 130.644Z" fill="#2F2E41"/>
<path d="M293.236 335.919L286.888 334.014L291.224 308.653L300.593 311.464L293.236 335.919Z" fill="#FFD6BA"/>
<path d="M293.007 342.55L272.539 336.408L272.616 336.15C272.931 335.105 273.448 334.132 274.139 333.287C274.829 332.441 275.68 331.74 276.642 331.223C277.604 330.707 278.659 330.384 279.746 330.274C280.832 330.164 281.93 330.269 282.976 330.583L282.977 330.583L295.478 334.335L293.007 342.55Z" fill="#2F2E41"/>
<path d="M353.137 336.133L346.509 336.133L343.356 310.598L353.139 310.599L353.137 336.133Z" fill="#FFD6BA"/>
<path d="M354.828 342.55L333.456 342.55V342.28C333.456 341.189 333.671 340.108 334.089 339.1C334.507 338.092 335.12 337.176 335.892 336.405C336.665 335.633 337.582 335.021 338.591 334.604C339.6 334.186 340.682 333.971 341.774 333.971H341.775L354.828 333.972L354.828 342.55Z" fill="#2F2E41"/>
<path d="M343.937 316.821C343.358 316.82 342.799 316.614 342.359 316.239C341.919 315.865 341.627 315.345 341.535 314.775L331.694 253.458C331.629 253.052 331.433 252.678 331.135 252.394C330.838 252.109 330.456 251.929 330.047 251.88C329.638 251.832 329.225 251.919 328.869 252.127C328.514 252.334 328.236 252.652 328.078 253.032L302.581 314.339C302.343 314.905 301.901 315.361 301.342 315.615C300.783 315.87 300.148 315.905 299.565 315.713L290.355 312.646C289.782 312.457 289.299 312.061 289.003 311.536C288.706 311.011 288.617 310.394 288.751 309.806L309.647 217.458C309.749 217.013 309.974 216.606 310.296 216.282C310.618 215.958 311.025 215.731 311.47 215.627L339.492 209.13C339.837 209.051 340.194 209.048 340.54 209.12C340.886 209.191 341.212 209.336 341.497 209.545C359.949 222.936 358.39 266.686 354.951 314.191C354.908 314.786 354.648 315.344 354.22 315.76C353.792 316.175 353.226 316.419 352.63 316.445L344.043 316.818C344.008 316.82 343.972 316.821 343.937 316.821Z" fill="#2F2E41"/>
<path d="M320.347 165.79C327.681 165.79 333.626 159.852 333.626 152.528C333.626 145.203 327.681 139.265 320.347 139.265C313.014 139.265 307.069 145.203 307.069 152.528C307.069 159.852 313.014 165.79 320.347 165.79Z" fill="#FFD6BA"/>
<path d="M320.921 221.265C317.733 221.245 314.59 220.519 311.717 219.141L311.618 219.095L311.579 218.993L299.669 188.173L299.442 182.818C299.367 181.027 299.667 179.241 300.324 177.573C300.982 175.905 301.982 174.393 303.259 173.135C304.537 171.876 306.065 170.899 307.744 170.266C309.423 169.633 311.216 169.358 313.007 169.459L325.652 170.17C328.918 170.356 331.991 171.778 334.244 174.146C336.498 176.515 337.763 179.652 337.782 182.919C338.11 183.55 340.443 188.477 335.872 193.106C335.701 194.16 334.102 205.119 340.136 211.145L340.305 211.315L340.157 211.503C340.061 211.625 332.312 221.264 320.921 221.265Z" fill="#3F3D56"/>
<path d="M338.676 223.59C339.424 223.319 340.102 222.888 340.665 222.328C341.227 221.767 341.66 221.089 341.932 220.344C342.204 219.598 342.309 218.801 342.239 218.011C342.17 217.22 341.927 216.454 341.529 215.767L354.158 201.164L344.203 199.87L333.736 213.935C332.625 214.679 331.825 215.805 331.489 217.098C331.153 218.392 331.304 219.764 331.913 220.954C332.522 222.144 333.546 223.07 334.793 223.556C336.04 224.041 337.421 224.054 338.676 223.59V223.59Z" fill="#FFD6BA"/>
<path d="M346.572 212.319C346.098 212.319 345.634 212.18 345.238 211.919L338.992 207.828C338.466 207.485 338.094 206.953 337.953 206.343C337.812 205.732 337.913 205.091 338.235 204.553L342.757 196.966C343.002 196.555 343.157 196.098 343.212 195.623C343.267 195.148 343.221 194.668 343.076 194.212C342.932 193.757 342.693 193.337 342.375 192.98C342.057 192.624 341.667 192.338 341.23 192.143L328.24 186.326C326.642 185.601 325.338 184.357 324.541 182.795C323.745 181.234 323.502 179.449 323.854 177.732V177.732C324.097 176.574 324.604 175.488 325.336 174.558C326.067 173.628 327.004 172.879 328.073 172.369C329.142 171.86 330.314 171.603 331.498 171.62C332.682 171.637 333.847 171.926 334.901 172.465L354.608 182.551C355.938 183.232 357.104 184.191 358.028 185.364C358.952 186.536 359.611 187.894 359.96 189.345C360.31 190.796 360.341 192.305 360.052 193.769C359.764 195.233 359.161 196.617 358.287 197.827L348.545 211.31C348.32 211.622 348.024 211.877 347.681 212.052C347.338 212.228 346.958 212.319 346.572 212.319Z" fill="#3F3D56"/>
<path d="M306.763 150.642C310.956 150.306 314.438 146.122 314.002 141.943C313.953 143.665 314.539 145.346 315.65 146.664C316.76 147.983 318.318 148.848 320.025 149.095C321.949 149.307 324.058 148.725 325.732 149.695C327.586 150.768 328.18 153.375 330.112 154.302C331.978 155.198 334.349 153.976 335.271 152.124C336.193 150.272 335.967 148.047 335.356 146.071C334.484 143.253 332.897 140.708 330.749 138.683C328.601 136.659 325.965 135.225 323.097 134.519C320.23 133.814 317.228 133.862 314.384 134.658C311.541 135.455 308.952 136.973 306.87 139.065C305.106 140.836 303.706 143.094 303.479 145.581C303.252 148.069 304.408 150.768 306.644 151.885L306.763 150.642Z" fill="#2F2E41"/>
<path d="M275.87 113.905C276.57 114.282 277.178 114.807 277.653 115.444C278.127 116.081 278.456 116.814 278.616 117.591C278.776 118.369 278.763 119.172 278.579 119.944C278.394 120.716 278.043 121.439 277.549 122.061L287.907 138.349L277.869 138.177L269.571 122.736C268.581 121.837 267.954 120.607 267.811 119.279C267.667 117.95 268.017 116.615 268.794 115.526C269.57 114.438 270.719 113.671 272.023 113.373C273.328 113.074 274.696 113.263 275.87 113.905V113.905Z" fill="#FFD6BA"/>
<path d="M284.219 125.503L297.559 156.985L311.544 180.671C312.135 181.671 312.49 182.791 312.583 183.948C312.676 185.105 312.505 186.269 312.082 187.35C311.659 188.431 310.996 189.402 310.142 190.19C309.289 190.978 308.267 191.561 307.154 191.897C305.39 192.42 303.496 192.295 301.815 191.546C300.135 190.796 298.778 189.471 297.99 187.81L271.035 130.285C270.889 129.972 270.81 129.632 270.806 129.287C270.801 128.942 270.87 128.6 271.008 128.284C271.146 127.967 271.35 127.684 271.607 127.453C271.863 127.221 272.165 127.047 272.494 126.941L281.234 124.137C281.4 124.084 281.571 124.048 281.744 124.031C282.26 123.979 282.779 124.094 283.225 124.359C283.671 124.624 284.019 125.025 284.219 125.503Z" fill="#3F3D56"/>
<path d="M409.266 343H0.540642C0.397255 343 0.25974 342.943 0.15835 342.842C0.0569599 342.741 0 342.603 0 342.46C0 342.317 0.0569599 342.18 0.15835 342.078C0.25974 341.977 0.397255 341.92 0.540642 341.92H409.266C409.409 341.92 409.547 341.977 409.648 342.078C409.75 342.18 409.807 342.317 409.807 342.46C409.807 342.603 409.75 342.741 409.648 342.842C409.547 342.943 409.409 343 409.266 343Z" fill="#CCCCCC"/>
<path d="M323.227 58.4323V102.71C323.227 102.854 323.17 102.991 323.069 103.092C322.968 103.193 322.83 103.25 322.687 103.25C322.543 103.25 322.406 103.193 322.304 103.092C322.203 102.991 322.146 102.854 322.146 102.71V58.4323C322.146 58.2891 322.203 58.1518 322.304 58.0505C322.406 57.9492 322.543 57.8923 322.687 57.8923C322.83 57.8923 322.968 57.9492 323.069 58.0505C323.17 58.1518 323.227 58.2891 323.227 58.4323V58.4323Z" fill="#CCCCCC"/>
<path d="M370.169 95.9956L354.877 111.269C354.776 111.369 354.638 111.426 354.495 111.426C354.352 111.426 354.215 111.369 354.113 111.268C354.012 111.167 353.955 111.029 353.955 110.886C353.955 110.743 354.012 110.606 354.113 110.505L369.404 95.232C369.454 95.1817 369.514 95.1417 369.58 95.1144C369.645 95.0872 369.716 95.0731 369.787 95.073C369.858 95.0729 369.928 95.0868 369.994 95.114C370.06 95.1411 370.119 95.1809 370.17 95.2311C370.22 95.2814 370.26 95.341 370.287 95.4066C370.314 95.4722 370.328 95.5426 370.328 95.6136C370.328 95.6846 370.314 95.7549 370.287 95.8204C370.259 95.886 370.219 95.9455 370.169 95.9956V95.9956Z" fill="#CCCCCC"/>
<path d="M275.204 95.9956L290.496 111.269C290.597 111.37 290.735 111.427 290.878 111.427C291.022 111.427 291.159 111.37 291.261 111.269C291.362 111.167 291.419 111.03 291.419 110.887C291.419 110.743 291.362 110.606 291.261 110.505L275.969 95.232C275.919 95.1817 275.859 95.1417 275.794 95.1144C275.728 95.0872 275.658 95.0731 275.586 95.073C275.515 95.0729 275.445 95.0868 275.379 95.114C275.314 95.1411 275.254 95.1809 275.204 95.2311C275.153 95.2814 275.113 95.341 275.086 95.4066C275.059 95.4722 275.045 95.5426 275.045 95.6136C275.045 95.6846 275.059 95.7549 275.087 95.8204C275.114 95.886 275.154 95.9455 275.204 95.9956V95.9956Z" fill="#CCCCCC"/>
</g>
<defs>
<clipPath id="clip0">
<rect width="502" height="343" fill="white"/>
</clipPath>
</defs>
</svg>
