<svg width="100" height="71" viewBox="0 0 100 71" fill="none" xmlns="http://www.w3.org/2000/svg">
<g clip-path="url(#clip0)">
<path d="M30.58 22.7213C30.2894 32.1584 44.8535 41.7921 63.0329 41.7921C81.2124 41.7921 110.163 23.1871 96.4135 22.7213C69.9193 21.8236 60.8401 12.3461 63.4967 5.62767C68.2544 -6.4045 31.1521 4.13941 30.58 22.7213Z" fill="#3F3D56"/>
<path d="M54.7615 15.2467L54.5398 15.1249L54.6809 14.9334L54.6204 14.9003L54.4794 15.0917L54.2577 14.9699L54.2192 15.022L54.4409 15.1439L54.2998 15.3353L54.3603 15.3686L54.5013 15.1771L54.723 15.2989L54.7615 15.2467Z" fill="#BEE3DB"/>
<path d="M71.2443 29.1089L71.0227 28.9871L71.1638 28.7956L71.1033 28.7625L70.9623 28.9539L70.7406 28.832L70.7021 28.8842L70.9238 29.0061L70.7827 29.1975L70.8432 29.2308L70.9842 29.0393L71.2058 29.1611L71.2443 29.1089Z" fill="#BEE3DB"/>
<path d="M44.5686 27.423L44.3469 27.3011L44.488 27.1097L44.4275 27.0765L44.2865 27.268L44.0649 27.1461L44.0264 27.1983L44.248 27.3202L44.1069 27.5116L44.1674 27.5449L44.3084 27.3534L44.5301 27.4752L44.5686 27.423Z" fill="#BEE3DB"/>
<path d="M64.5212 36.4147L64.2995 36.2928L64.4406 36.1014L64.3801 36.0682L64.2391 36.2597L64.0175 36.1378L63.979 36.19L64.2006 36.3119L64.0596 36.5033L64.1201 36.5366L64.261 36.3451L64.4827 36.4669L64.5212 36.4147Z" fill="#BEE3DB"/>
<path d="M45.9782 32.9491L45.7566 32.8273L45.8977 32.6358L45.8371 32.6027L45.6962 32.7941L45.4745 32.6723L45.436 32.7244L45.6577 32.8463L45.5166 33.0377L45.5771 33.071L45.7181 32.8795L45.9397 33.0013L45.9782 32.9491Z" fill="#BEE3DB"/>
<path d="M90.6545 28.3596L90.4328 28.2378L90.5739 28.0463L90.5134 28.0132L90.3724 28.2046L90.1508 28.0828L90.1123 28.1349L90.3339 28.2568L90.1929 28.4483L90.2534 28.4815L90.3943 28.2901L90.616 28.4118L90.6545 28.3596Z" fill="#BEE3DB"/>
<path d="M41.4235 17.0264L41.2019 16.9045L41.343 16.7131L41.2825 16.6799L41.1415 16.8714L40.9198 16.7495L40.8813 16.8017L41.103 16.9236L40.9619 17.115L41.0224 17.1483L41.1634 16.9568L41.385 17.0786L41.4235 17.0264Z" fill="#BEE3DB"/>
<path d="M59.9666 19.1319L59.6562 18.9614L59.8537 18.6933L59.7691 18.6469L59.5717 18.9148L59.2614 18.7443L59.2075 18.8174L59.5179 18.9879L59.3204 19.256L59.405 19.3025L59.6024 19.0344L59.9127 19.205L59.9666 19.1319Z" fill="white"/>
<path d="M48.7975 22.6744C48.9771 22.6744 49.1228 22.5486 49.1228 22.3934C49.1228 22.2382 48.9771 22.1124 48.7975 22.1124C48.6178 22.1124 48.4722 22.2382 48.4722 22.3934C48.4722 22.5486 48.6178 22.6744 48.7975 22.6744Z" fill="#BEE3DB"/>
<path d="M36.1105 22.6744C36.2901 22.6744 36.4358 22.5486 36.4358 22.3934C36.4358 22.2382 36.2901 22.1124 36.1105 22.1124C35.9308 22.1124 35.7852 22.2382 35.7852 22.3934C35.7852 22.5486 35.9308 22.6744 36.1105 22.6744Z" fill="#BEE3DB"/>
<path d="M58.2316 12.3714C58.4112 12.3714 58.5569 12.2456 58.5569 12.0904C58.5569 11.9353 58.4112 11.8094 58.2316 11.8094C58.0519 11.8094 57.9062 11.9353 57.9062 12.0904C57.9062 12.2456 58.0519 12.3714 58.2316 12.3714Z" fill="#BEE3DB"/>
<path d="M55.1954 29.5118C55.3751 29.5118 55.5207 29.386 55.5207 29.2308C55.5207 29.0756 55.3751 28.9498 55.1954 28.9498C55.0158 28.9498 54.8701 29.0756 54.8701 29.2308C54.8701 29.386 55.0158 29.5118 55.1954 29.5118Z" fill="#BEE3DB"/>
<path d="M54.9786 23.5173C55.0983 23.5173 55.1954 23.4335 55.1954 23.33C55.1954 23.2266 55.0983 23.1427 54.9786 23.1427C54.8588 23.1427 54.7617 23.2266 54.7617 23.33C54.7617 23.4335 54.8588 23.5173 54.9786 23.5173Z" fill="#BEE3DB"/>
<path d="M77.2081 31.7598C77.3279 31.7598 77.425 31.6759 77.425 31.5725C77.425 31.469 77.3279 31.3851 77.2081 31.3851C77.0883 31.3851 76.9912 31.469 76.9912 31.5725C76.9912 31.6759 77.0883 31.7598 77.2081 31.7598Z" fill="#FF6584"/>
<path d="M44.0264 21.5504C44.1462 21.5504 44.2433 21.4666 44.2433 21.3631C44.2433 21.2597 44.1462 21.1758 44.0264 21.1758C43.9067 21.1758 43.8096 21.2597 43.8096 21.3631C43.8096 21.4666 43.9067 21.5504 44.0264 21.5504Z" fill="#FF6584"/>
<path d="M57.5811 6.37697C57.7009 6.37697 57.798 6.2931 57.798 6.18964C57.798 6.08619 57.7009 6.00232 57.5811 6.00232C57.4614 6.00232 57.3643 6.08619 57.3643 6.18964C57.3643 6.2931 57.4614 6.37697 57.5811 6.37697Z" fill="#FF6584"/>
<path d="M48.689 15.0877C48.8088 15.0877 48.9059 15.0038 48.9059 14.9003C48.9059 14.7969 48.8088 14.713 48.689 14.713C48.5693 14.713 48.4722 14.7969 48.4722 14.9003C48.4722 15.0038 48.5693 15.0877 48.689 15.0877Z" fill="#BEE3DB"/>
<path d="M51.4 8.81215C51.5198 8.81215 51.6169 8.72828 51.6169 8.62483C51.6169 8.52137 51.5198 8.4375 51.4 8.4375C51.2802 8.4375 51.1831 8.52137 51.1831 8.62483C51.1831 8.72828 51.2802 8.81215 51.4 8.81215Z" fill="white"/>
<path d="M83.8229 25.7652C84.0025 25.7652 84.1482 25.6394 84.1482 25.4842C84.1482 25.3291 84.0025 25.2032 83.8229 25.2032C83.6432 25.2032 83.4976 25.3291 83.4976 25.4842C83.4976 25.6394 83.6432 25.7652 83.8229 25.7652Z" fill="#BEE3DB"/>
<path d="M62.2438 26.7956C62.4234 26.7956 62.5691 26.6698 62.5691 26.5146C62.5691 26.3594 62.4234 26.2336 62.2438 26.2336C62.0641 26.2336 61.9185 26.3594 61.9185 26.5146C61.9185 26.6698 62.0641 26.7956 62.2438 26.7956Z" fill="#BEE3DB"/>
<path d="M56.7138 34.1013C57.3127 34.1013 57.7982 33.682 57.7982 33.1647C57.7982 32.6474 57.3127 32.228 56.7138 32.228C56.1149 32.228 55.6294 32.6474 55.6294 33.1647C55.6294 33.682 56.1149 34.1013 56.7138 34.1013Z" fill="#BEE3DB"/>
<path d="M69.8346 23.2364C70.0143 23.2364 70.1599 23.1106 70.1599 22.9554C70.1599 22.8002 70.0143 22.6744 69.8346 22.6744C69.6549 22.6744 69.5093 22.8002 69.5093 22.9554C69.5093 23.1106 69.6549 23.2364 69.8346 23.2364Z" fill="white"/>
<path d="M9.96851 67.9952C9.96851 67.9952 9.36158 70.1875 9.91333 70.2828C10.4651 70.3781 13.1687 70.3474 13.8308 70.4427C14.4929 70.538 15.8722 70.3781 15.8722 69.9492C15.8722 69.5203 14.4377 69.2343 14.4377 69.2343C14.4377 69.2343 12.3962 68.2812 12.341 68.2335C12.2859 68.1859 9.96851 67.9952 9.96851 67.9952Z" fill="#2F2E41"/>
<path d="M10.6184 52.3419C10.6184 52.3419 10.8163 54.2792 10.8163 54.4501C10.8163 54.6211 9.62888 63.6239 9.89275 65.4472C10.1566 67.2706 9.86833 67.8529 9.86833 68.1948C9.86833 68.5367 12.0037 68.4102 12.0037 68.4102L14.3126 55.8177L13.1252 52.057L10.6184 52.3419Z" fill="#2F2E41"/>
<path d="M10.7408 68.4751C10.7408 68.4751 10.1891 70.1907 10.7408 70.2861C11.2926 70.3814 13.9962 70.1769 14.6582 70.2722C15.3203 70.3675 16.6997 70.3814 16.6997 69.9525C16.6997 69.5236 15.2652 69.2376 15.2652 69.2376C15.2652 69.2376 13.2237 68.2845 13.1685 68.2368C13.1133 68.1891 10.7408 68.4751 10.7408 68.4751Z" fill="#2F2E41"/>
<path d="M10.0248 50.0627C10.0248 50.0627 9.23314 51.7152 10.1567 52.5699C11.0802 53.4246 12.1357 55.1339 12.1357 55.2479C12.1357 55.3619 10.2886 66.7008 10.5525 67.4416C10.8164 68.1823 10.7504 68.6381 10.6844 68.7521C10.6185 68.8661 11.3441 69.4928 12.1357 69.4928C12.9273 69.4928 14.1148 68.98 14.2467 68.5242C14.3786 68.0684 14.0488 64.1367 14.1148 63.396C14.1807 62.6553 16.8194 50.8035 16.4896 50.5186C16.1598 50.2337 10.0248 50.0627 10.0248 50.0627Z" fill="#2F2E41"/>
<path d="M15.0383 36.9575C16.2771 36.9575 17.2812 36.0901 17.2812 35.0202C17.2812 33.9503 16.2771 33.0829 15.0383 33.0829C13.7996 33.0829 12.7954 33.9503 12.7954 35.0202C12.7954 36.0901 13.7996 36.9575 15.0383 36.9575Z" fill="#9F616A"/>
<path d="M13.6528 35.9886C13.6528 35.9886 14.1146 38.0969 13.7848 38.3248C13.4549 38.5527 16.2916 38.8946 16.2916 38.8946C16.2916 38.8946 16.6214 36.1026 16.6874 35.8177C16.7533 35.5328 13.6528 35.9886 13.6528 35.9886Z" fill="#9F616A"/>
<path d="M16.6876 38.7236C16.6876 38.7236 17.1131 36.716 13.8807 37.2858C13.8807 37.2858 10.9294 39.376 11.0613 41.3133C11.1932 43.2506 10.0248 48.866 10.1568 49.2649C10.2887 49.6637 9.36516 50.1765 9.76097 50.3475C10.1568 50.5184 17.2813 51.544 17.4792 50.3475C17.6771 49.1509 17.4132 46.131 17.5452 45.5612C17.6771 44.9914 17.5452 40.2051 17.1494 39.6353C16.7536 39.0655 16.6876 38.7236 16.6876 38.7236Z" fill="#BEE3DB"/>
<path d="M15.3021 52.6268C15.3021 52.6268 14.3125 55.8746 15.5659 55.8746C16.8193 55.8746 16.7534 52.5128 16.7534 52.5128L15.3021 52.6268Z" fill="#9F616A"/>
<path d="M15.9519 35.3434C15.9233 35.5068 15.6312 35.5747 15.2024 35.5429L15.2018 35.5428C15.0202 35.5281 14.8402 35.5015 14.6633 35.4632C14.3957 35.4064 14.2449 35.612 14.1477 35.8966C13.9881 36.3662 13.976 37.0521 13.8356 37.1415C12.8554 37.6095 9.95889 34.4718 11.4431 33.6594C11.9718 33.3701 13.7513 32.2898 14.9807 32.508C16.2101 32.7263 15.7124 34.0443 15.7124 34.0443C15.7124 34.0443 15.7575 34.2174 15.8086 34.4396C15.8814 34.7195 15.9307 35.0037 15.956 35.2898C15.956 35.3077 15.9546 35.3257 15.9519 35.3434Z" fill="#2F2E41"/>
<path d="M16.0936 39.2935C16.0936 39.2935 13.8506 39.1795 13.6527 42.0285C13.4548 44.8775 13.5208 47.5556 13.5208 47.6125C13.5208 47.6695 14.4444 53.0826 15.3019 53.0826C16.1595 53.0826 16.8192 52.9686 17.0171 52.6837C17.215 52.3988 16.4894 48.2963 16.4894 48.2963C16.4894 48.2963 16.1595 43.9658 16.6873 42.5983C17.215 41.2308 17.281 39.4644 16.0936 39.2935Z" fill="#BEE3DB"/>
<path opacity="0.1" d="M13.5549 42.812L12.9043 48.9002L15.0731 53.1151L13.6634 48.8065L13.5549 42.7184" fill="black"/>
<path opacity="0.1" d="M16.6999 43.4677L16.8656 50.645L16.2661 46.7459L16.6999 43.4677Z" fill="black"/>
<path d="M27.9486 70.5H0V70.3027H27.99L27.9486 70.5Z" fill="#3F3D56"/>
</g>
<defs>
<clipPath id="clip0">
<rect width="100" height="70" fill="white" transform="translate(0 0.5)"/>
</clipPath>
</defs>
</svg>
