<svg width="278" height="287" viewBox="0 0 278 287" fill="none" xmlns="http://www.w3.org/2000/svg">
<g clip-path="url(#clip0)">
<path d="M183.308 73.9401H137.694C136.696 73.9431 135.71 73.7183 134.811 73.2828C133.913 72.8473 133.125 72.2126 132.509 71.4269V71.4269C131.881 70.6339 131.443 69.7081 131.227 68.72C131.011 67.7319 131.024 66.7077 131.264 65.7252C135.468 48.1167 135.468 29.766 131.263 12.1575C131.024 11.1751 131.011 10.1509 131.227 9.16291C131.443 8.17493 131.881 7.24918 132.509 6.45609C133.125 5.67037 133.912 5.03561 134.811 4.60011C135.71 4.1646 136.696 3.93983 137.694 3.9429H183.308C184.883 3.94743 186.405 4.51082 187.603 5.53274C188.801 6.55466 189.598 7.96874 189.851 9.52314C192.853 29.0205 192.853 48.8625 189.851 68.3599C189.598 69.9143 188.801 71.3284 187.603 72.3503C186.405 73.3722 184.883 73.9356 183.308 73.9401V73.9401Z" fill="#E6E6E6"/>
<path d="M137.694 7.37502C137.215 7.37341 136.741 7.4812 136.31 7.69019C135.878 7.89918 135.5 8.20386 135.203 8.58106C134.899 8.96753 134.686 9.41846 134.581 9.89955C134.477 10.3806 134.483 10.8792 134.601 11.3573C138.93 29.4919 138.931 48.3911 134.601 66.5257C134.484 67.0037 134.477 67.5022 134.581 67.9832C134.686 68.4642 134.898 68.915 135.203 69.3014L135.204 69.3017C135.5 69.679 135.878 69.9837 136.31 70.1928C136.741 70.4018 137.215 70.5096 137.694 70.508H183.308C184.064 70.5083 184.796 70.2401 185.373 69.7512C185.95 69.2623 186.335 68.5845 186.459 67.8384C189.407 48.6866 189.407 29.1964 186.459 10.0446C186.335 9.29854 185.95 8.62071 185.373 8.13183C184.796 7.64295 184.064 7.37475 183.308 7.37501L137.694 7.37502Z" fill="#FAF9F9"/>
<path d="M173.354 23.8784H149.418C148.508 23.8775 147.636 23.5156 146.992 22.8721C146.349 22.2287 145.987 21.3564 145.986 20.4465V19.1053C145.987 18.1954 146.349 17.323 146.992 16.6796C147.636 16.0362 148.508 15.6743 149.418 15.6733H173.354C174.264 15.6743 175.136 16.0362 175.78 16.6796C176.423 17.323 176.785 18.1954 176.786 19.1053V20.4465C176.785 21.3564 176.423 22.2288 175.78 22.8722C175.136 23.5156 174.264 23.8775 173.354 23.8784Z" fill="#E6E6E6"/>
<path d="M173.354 40.8247H149.418C148.508 40.8237 147.636 40.4618 146.992 39.8184C146.349 39.175 145.987 38.3027 145.986 37.3928V36.0516C145.987 35.1417 146.349 34.2693 146.992 33.6259C147.636 32.9825 148.508 32.6206 149.418 32.6196H173.354C174.264 32.6206 175.136 32.9825 175.78 33.6259C176.423 34.2693 176.785 35.1417 176.786 36.0516V37.3928C176.785 38.3027 176.423 39.175 175.78 39.8184C175.136 40.4618 174.264 40.8237 173.354 40.8247Z" fill="#E6E6E6"/>
<path d="M173.354 57.771H149.418C148.508 57.77 147.636 57.4081 146.992 56.7647C146.349 56.1213 145.987 55.2489 145.986 54.339V52.9979C145.987 52.088 146.349 51.2156 146.992 50.5722C147.636 49.9288 148.508 49.5669 149.418 49.5659H173.354C174.264 49.5669 175.136 49.9288 175.78 50.5722C176.423 51.2156 176.785 52.088 176.786 52.9979V54.339C176.785 55.2489 176.423 56.1213 175.78 56.7647C175.136 57.4081 174.264 57.77 173.354 57.771V57.771Z" fill="#E6E6E6"/>
<path d="M269.11 117.413H223.497C222.498 117.416 221.512 117.191 220.614 116.756C219.715 116.32 218.928 115.686 218.311 114.9V114.9C217.684 114.107 217.245 113.181 217.03 112.193C216.814 111.205 216.826 110.181 217.066 109.198C221.27 91.5899 221.27 73.2391 217.066 55.6307C216.826 54.6482 216.814 53.6241 217.03 52.6361C217.245 51.6481 217.684 50.7223 218.311 49.9292C218.927 49.1435 219.715 48.5088 220.614 48.0733C221.512 47.6377 222.498 47.413 223.497 47.416H269.11C270.685 47.4206 272.207 47.984 273.406 49.0059C274.604 50.0278 275.401 51.4419 275.654 52.9963C278.656 72.4936 278.656 92.3356 275.654 111.833C275.401 113.387 274.604 114.801 273.406 115.823C272.207 116.845 270.685 117.409 269.11 117.413Z" fill="#E6E6E6"/>
<path d="M223.497 50.8482C223.017 50.8466 222.544 50.9543 222.112 51.1633C221.68 51.3723 221.302 51.677 221.006 52.0542C220.701 52.4407 220.488 52.8916 220.384 53.3727C220.279 53.8538 220.286 54.3524 220.403 54.8305C224.733 72.9651 224.733 91.8642 220.403 109.999C220.286 110.477 220.279 110.975 220.384 111.456C220.488 111.937 220.701 112.388 221.006 112.775L221.006 112.775C221.302 113.152 221.68 113.457 222.112 113.666C222.544 113.875 223.017 113.983 223.497 113.981H269.11C269.867 113.981 270.598 113.713 271.175 113.224C271.752 112.735 272.137 112.058 272.261 111.312C275.21 92.1598 275.21 72.6695 272.261 53.5178C272.137 52.7717 271.752 52.0939 271.175 51.605C270.598 51.1161 269.867 50.8479 269.11 50.8481L223.497 50.8482Z" fill="#FAF9F9"/>
<path d="M178.16 166.893H132.546C131.504 166.896 130.476 166.662 129.538 166.207C128.601 165.753 127.779 165.091 127.136 164.271C126.482 163.444 126.024 162.478 125.799 161.448C125.574 160.418 125.587 159.35 125.837 158.325C130.031 140.761 130.031 122.456 125.837 104.891C125.587 103.867 125.574 102.799 125.799 101.768C126.024 100.738 126.481 99.7729 127.136 98.9459C127.779 98.1262 128.6 97.4639 129.538 97.0095C130.476 96.5552 131.504 96.3206 132.546 96.3238H178.16C179.803 96.3287 181.391 96.9166 182.641 97.983C183.891 99.0493 184.722 100.525 184.986 102.146C187.992 121.673 187.992 141.544 184.986 161.07C184.722 162.692 183.891 164.167 182.641 165.234C181.391 166.3 179.803 166.888 178.16 166.893V166.893Z" fill="#F2F2F2"/>
<path d="M259.156 75.9316H235.22C234.311 75.9307 233.438 75.5688 232.795 74.9254C232.151 74.282 231.789 73.4096 231.788 72.4997V71.1585C231.789 70.2486 232.151 69.3763 232.795 68.7329C233.438 68.0895 234.311 67.7276 235.22 67.7266H259.156C260.066 67.7276 260.939 68.0895 261.582 68.7329C262.226 69.3763 262.587 70.2486 262.588 71.1585V72.4997C262.587 73.4096 262.226 74.282 261.582 74.9254C260.939 75.5688 260.066 75.9307 259.156 75.9316V75.9316Z" fill="#E6E6E6"/>
<path d="M259.156 92.8779H235.22C234.311 92.877 233.438 92.515 232.795 91.8716C232.151 91.2282 231.789 90.3559 231.788 89.446V88.1048C231.789 87.1949 232.151 86.3225 232.795 85.6791C233.438 85.0357 234.311 84.6738 235.22 84.6729H259.156C260.066 84.6738 260.939 85.0357 261.582 85.6791C262.226 86.3225 262.587 87.1949 262.588 88.1048V89.446C262.587 90.3559 262.226 91.2282 261.582 91.8716C260.939 92.515 260.066 92.877 259.156 92.8779V92.8779Z" fill="#E6E6E6"/>
<path d="M155.48 144.529C162.746 144.529 168.637 138.638 168.637 131.372C168.637 124.106 162.746 118.216 155.48 118.216C148.214 118.216 142.324 124.106 142.324 131.372C142.324 138.638 148.214 144.529 155.48 144.529Z" fill="#FAF9F9"/>
<path d="M161.773 129.656H157.196V125.08C157.196 124.625 157.016 124.189 156.694 123.867C156.372 123.545 155.936 123.364 155.48 123.364C155.025 123.364 154.589 123.545 154.267 123.867C153.945 124.189 153.764 124.625 153.764 125.08V129.656H149.188C148.733 129.656 148.297 129.837 147.975 130.159C147.653 130.481 147.472 130.917 147.472 131.372C147.472 131.828 147.653 132.264 147.975 132.586C148.297 132.908 148.733 133.089 149.188 133.089H153.764V137.665C153.764 138.12 153.945 138.556 154.267 138.878C154.589 139.2 155.025 139.381 155.48 139.381C155.936 139.381 156.372 139.2 156.694 138.878C157.016 138.556 157.196 138.12 157.196 137.665V133.089H161.773C162.228 133.089 162.664 132.908 162.986 132.586C163.308 132.264 163.489 131.828 163.489 131.372C163.489 130.917 163.308 130.481 162.986 130.159C162.664 129.837 162.228 129.656 161.773 129.656V129.656Z" fill="#E6E6E6"/>
<path d="M172.069 10.3908H148.044C147.362 10.39 146.708 10.1186 146.225 9.63601C145.742 9.15344 145.471 8.49916 145.47 7.81671V3.24058C145.471 2.55813 145.742 1.90385 146.225 1.42128C146.708 0.938716 147.362 0.667273 148.044 0.666504H172.069C172.751 0.667273 173.406 0.938716 173.888 1.42128C174.371 1.90385 174.642 2.55813 174.643 3.24058V7.81671C174.642 8.49916 174.371 9.15344 173.888 9.63601C173.406 10.1186 172.751 10.39 172.069 10.3908Z" fill="#CCCCCC"/>
<path d="M259.015 54.4362H234.991C234.308 54.4354 233.654 54.164 233.172 53.6814C232.689 53.1988 232.418 52.5446 232.417 51.8621V47.286C232.418 46.6035 232.689 45.9493 233.172 45.4667C233.654 44.9841 234.308 44.7127 234.991 44.7119H259.015C259.698 44.7127 260.352 44.9841 260.835 45.4667C261.317 45.9493 261.589 46.6035 261.59 47.286V51.8621C261.589 52.5446 261.317 53.1988 260.835 53.6814C260.352 54.164 259.698 54.4354 259.015 54.4362Z" fill="#CCCCCC"/>
<path d="M50.6784 270.121H57.6913L59.8839 243.072H50.6772L50.6784 270.121Z" fill="#FFD6BA"/>
<path d="M48.8899 267.832L62.7005 267.831H62.7011C63.8569 267.831 65.0014 268.059 66.0692 268.501C67.1371 268.943 68.1073 269.592 68.9246 270.409C69.7419 271.226 70.3902 272.196 70.8325 273.264C71.2748 274.332 71.5025 275.476 71.5024 276.632V276.918L48.8903 276.919L48.8899 267.832Z" fill="#2F2E41"/>
<path d="M12.9252 270.121H19.9381L23.2747 243.072H12.9241L12.9252 270.121Z" fill="#FFD6BA"/>
<path d="M11.1367 267.832L24.9474 267.831H24.948C26.1038 267.831 27.2482 268.059 28.3161 268.501C29.3839 268.943 30.3542 269.592 31.1714 270.409C31.9887 271.226 32.637 272.196 33.0793 273.264C33.5216 274.332 33.7493 275.476 33.7493 276.632V276.918L11.1372 276.919L11.1367 267.832Z" fill="#2F2E41"/>
<path d="M14.1696 261.576C13.4543 261.576 12.7651 261.307 12.2391 260.822V260.822C11.9567 260.565 11.7293 260.253 11.5704 259.905C11.4116 259.557 11.3247 259.181 11.3149 258.799L8.50244 158.002L48.4356 167.985L60.7566 204.947C62.3454 209.702 63.0332 214.712 62.7846 219.719L61.2547 255.548C61.2198 256.282 60.9035 256.975 60.3715 257.482C59.8395 257.989 59.1327 258.271 58.3978 258.271H51.7001C51.0088 258.268 50.3416 258.016 49.8211 257.561C49.3005 257.106 48.9613 256.479 48.8659 255.794L44.0787 216.244C43.6604 213.158 42.5811 210.2 40.9145 207.57L31.4936 192.654C31.4306 192.554 31.3384 192.476 31.2296 192.431C31.1207 192.386 31.0005 192.375 30.8855 192.401C30.7705 192.427 30.6662 192.487 30.5869 192.575C30.5076 192.662 30.4571 192.771 30.4425 192.888L23.0494 258.721C22.97 259.388 22.6576 260.007 22.1672 260.467C21.6768 260.927 21.0398 261.199 20.3684 261.236L14.3324 261.571C14.2781 261.574 14.224 261.576 14.1696 261.576Z" fill="#2F2E41"/>
<path d="M41.7903 92.7422C49.5495 92.7422 55.8396 86.4521 55.8396 78.6929C55.8396 70.9337 49.5495 64.6436 41.7903 64.6436C34.0311 64.6436 27.741 70.9337 27.741 78.6929C27.741 86.4521 34.0311 92.7422 41.7903 92.7422Z" fill="#FFD6BA"/>
<path d="M48.2442 172.084C48.0025 172.084 47.7617 172.053 47.5275 171.993H47.5271L7.90678 161.834C7.19841 161.653 6.58646 161.207 6.19675 160.588C5.80705 159.97 5.66919 159.225 5.81156 158.508L14.9107 109.491C15.4776 106.658 16.7237 104.004 18.542 101.759C20.3603 99.5131 22.6964 97.7422 25.3499 96.5983C27.9353 95.454 30.7627 94.9637 33.5825 95.1708C36.4022 95.3778 39.1277 96.2757 41.5183 97.7853C42.073 98.1314 42.6317 98.5087 43.1786 98.907C45.3802 100.531 47.1757 102.643 48.424 105.078C49.6724 107.512 50.3398 110.203 50.3739 112.938L51.0975 169.184C51.1023 169.562 51.0322 169.938 50.8911 170.289C50.75 170.64 50.5408 170.959 50.2755 171.229C50.0102 171.499 49.6941 171.713 49.3455 171.86C48.9968 172.007 48.6225 172.083 48.2442 172.084V172.084Z" fill="#89B0AE"/>
<path d="M11.9833 172.661C11.5106 171.965 11.1962 171.174 11.0623 170.344C10.9283 169.514 10.9779 168.665 11.2078 167.856C11.4376 167.047 11.8419 166.298 12.3924 165.662C12.9429 165.027 13.626 164.519 14.3938 164.176L12.6315 143.812L21.9702 148.873L22.212 167.436C22.7029 168.764 22.6897 170.226 22.1748 171.544C21.66 172.863 20.6792 173.947 19.4184 174.592C18.1575 175.236 16.7043 175.395 15.3339 175.039C13.9636 174.683 12.7714 173.837 11.9833 172.661H11.9833Z" fill="#FFD6BA"/>
<path d="M15.3197 161.483C15.0562 161.483 14.7938 161.449 14.5385 161.384C13.9895 161.244 13.4885 160.958 13.0885 160.557C12.6886 160.155 12.4046 159.653 12.2665 159.104L7.67713 140.866C6.07326 134.496 6.83783 127.76 9.82861 121.912L19.4435 103.103C20.0513 100.851 21.5199 98.9282 23.5325 97.7492C25.5451 96.5701 27.9405 96.2293 30.2021 96.8002C31.3293 97.0849 32.3888 97.5905 33.3192 98.2877C34.2495 98.9849 35.0322 99.8599 35.6219 100.862C36.2236 101.878 36.6172 103.004 36.7796 104.174C36.9421 105.344 36.8701 106.535 36.568 107.676L22.8811 138.283L23.0437 156.608C23.0479 157.254 22.8535 157.886 22.4868 158.419C22.1201 158.951 21.5988 159.358 20.9933 159.585L16.4129 161.286C16.0632 161.416 15.693 161.483 15.3197 161.483Z" fill="#89B0AE"/>
<path d="M80.8362 165.17C80.0007 165.074 79.1963 164.797 78.4797 164.357C77.7631 163.917 77.1516 163.325 76.6885 162.623C76.2253 161.922 75.9216 161.127 75.7989 160.295C75.6761 159.463 75.7373 158.614 75.978 157.808L59.3933 145.859L69.3215 142.083L83.5486 154.009C84.8753 154.503 85.9747 155.467 86.6384 156.717C87.3022 157.968 87.4841 159.418 87.1497 160.794C86.8154 162.17 85.988 163.375 84.8244 164.182C83.6608 164.988 82.2417 165.34 80.8362 165.17H80.8362Z" fill="#FFD6BA"/>
<path d="M72.1541 156.444C71.6652 156.444 71.1829 156.33 70.7455 156.111L53.9287 147.693C48.0548 144.753 43.4486 139.78 40.9664 133.698L32.9826 114.141C31.6724 112.211 31.1731 109.844 31.5923 107.549C32.0115 105.254 33.3157 103.216 35.2236 101.874C36.1769 101.204 37.254 100.73 38.3923 100.48C39.5305 100.231 40.7071 100.21 41.8535 100.419C43.0133 100.628 44.1202 101.065 45.11 101.704C46.0998 102.344 46.9529 103.173 47.6199 104.145L61.8889 134.484L75.8837 146.315C76.3765 146.733 76.7289 147.293 76.8933 147.918C77.0577 148.544 77.0261 149.204 76.8028 149.811L75.104 154.392C74.8822 154.993 74.4816 155.511 73.9561 155.877C73.4278 156.246 72.7987 156.444 72.1541 156.444V156.444Z" fill="#89B0AE"/>
<path d="M38.84 92.9574C39.5865 93.284 41.1151 87.336 40.4304 86.1464C39.412 84.3772 39.4722 84.3899 38.7962 83.2194C38.1202 82.0489 37.9689 80.4467 38.8444 79.4168C39.7198 78.3869 41.7456 78.5235 42.1451 79.8148C41.8881 77.3621 44.3142 75.3905 46.7173 74.8365C49.1204 74.2824 51.6552 74.6264 54.0715 74.1334C56.8758 73.5612 59.7935 71.2106 58.6746 68.1268C58.4826 67.6134 58.1952 67.141 57.8274 66.7345C56.5347 65.281 54.7264 64.6604 52.9584 64.0603C49.2803 62.8119 45.5016 61.5478 41.6198 61.6856C38.4215 61.8529 35.3412 62.9488 32.756 64.8394C30.1708 66.73 28.1928 69.3332 27.0641 72.3304C26.7966 73.0802 26.5894 73.8502 26.4444 74.633C25.112 81.7971 29.2722 88.8636 36.0292 91.5917L38.84 92.9574Z" fill="#2F2E41"/>
<path opacity="0.2" d="M22.2515 157.023L22.5701 138.187L32.5478 118.126L24.5395 138.719L22.2515 157.023Z" fill="black"/>
<path d="M112.732 204.294L70.6092 186.793C69.6859 186.413 68.8615 185.827 68.1987 185.08C67.536 184.333 67.0523 183.445 66.7846 182.483C66.5094 181.51 66.4598 180.486 66.6397 179.491C66.8195 178.496 67.2241 177.555 67.8226 176.74C78.4608 162.092 85.5016 145.146 88.3753 127.272C88.531 126.273 88.9124 125.322 89.4908 124.492C90.0691 123.663 90.829 122.976 91.7127 122.484C92.5834 121.995 93.5541 121.711 94.5511 121.654C95.5481 121.597 96.545 121.767 97.466 122.153L139.588 139.654C141.041 140.263 142.23 141.367 142.945 142.771C143.659 144.174 143.852 145.786 143.49 147.318C138.781 166.475 131.168 184.798 120.915 201.652C120.085 202.99 118.807 203.99 117.308 204.474C115.809 204.958 114.188 204.894 112.732 204.294Z" fill="#E6E6E6"/>
<path d="M96.149 125.323C95.7068 125.137 95.2281 125.055 94.7493 125.082C94.2705 125.11 93.8043 125.246 93.3861 125.481C92.9562 125.721 92.5866 126.055 92.3056 126.459C92.0246 126.864 91.8394 127.327 91.7642 127.813C88.8046 146.221 81.5534 163.674 70.5973 178.759C70.3055 179.156 70.108 179.613 70.0199 180.098C69.9317 180.582 69.9552 181.08 70.0885 181.554L70.0886 181.554C70.2173 182.016 70.4496 182.443 70.768 182.801C71.0864 183.16 71.4824 183.441 71.9259 183.624L114.048 201.125C114.747 201.415 115.525 201.448 116.246 201.218C116.966 200.988 117.582 200.51 117.982 199.869C128.054 183.314 135.532 165.315 140.157 146.498C140.329 145.761 140.233 144.988 139.888 144.315C139.543 143.642 138.97 143.114 138.271 142.824L96.149 125.323Z" fill="#FAF9F9"/>
<path d="M118.577 164.281L96.4734 155.097C95.6335 154.747 94.9668 154.078 94.6195 153.237C94.2722 152.396 94.2727 151.452 94.6209 150.611L95.1355 149.373C95.4855 148.533 96.1544 147.866 96.9954 147.519C97.8365 147.172 98.7809 147.172 99.6216 147.52L121.726 156.704C122.566 157.054 123.232 157.723 123.58 158.564C123.927 159.405 123.926 160.35 123.578 161.19L123.064 162.429C122.714 163.269 122.045 163.935 121.204 164.283C120.363 164.63 119.418 164.63 118.577 164.281V164.281Z" fill="#89B0AE"/>
<path d="M112.075 179.931L89.9712 170.747C89.1313 170.397 88.4646 169.728 88.1173 168.887C87.77 168.046 87.7705 167.101 88.1187 166.261L88.6333 165.022C88.9833 164.182 89.6522 163.516 90.4932 163.168C91.3343 162.821 92.2787 162.822 93.1194 163.17L115.223 172.354C116.063 172.704 116.73 173.373 117.077 174.214C117.425 175.055 117.424 175.999 117.076 176.84L116.561 178.078C116.211 178.918 115.542 179.585 114.701 179.932C113.86 180.279 112.916 180.279 112.075 179.931V179.931Z" fill="#89B0AE"/>
<path d="M127.435 142.288C127.104 142.287 126.776 142.223 126.469 142.098L104.196 133.093C103.564 132.837 103.059 132.34 102.793 131.712C102.526 131.084 102.52 130.375 102.775 129.742L104.49 125.5C104.746 124.867 105.243 124.362 105.871 124.095C106.5 123.828 107.208 123.822 107.841 124.078L130.114 133.083C130.747 133.34 131.252 133.837 131.518 134.465C131.785 135.093 131.791 135.801 131.536 136.434L129.821 140.677C129.628 141.152 129.298 141.559 128.873 141.846C128.448 142.133 127.947 142.287 127.435 142.288V142.288Z" fill="#CCCCCC"/>
<path d="M80.6544 277.237H0.572017C0.420308 277.237 0.274822 277.177 0.167548 277.069C0.0602742 276.962 0 276.817 0 276.665C0 276.513 0.0602742 276.368 0.167548 276.26C0.274822 276.153 0.420308 276.093 0.572017 276.093H80.6544C80.8061 276.093 80.9516 276.153 81.0588 276.26C81.1661 276.368 81.2264 276.513 81.2264 276.665C81.2264 276.817 81.1661 276.962 81.0588 277.069C80.9516 277.177 80.8061 277.237 80.6544 277.237Z" fill="#CCCCCC"/>
</g>
<path d="M47.7695 231V202.387H53.3945C54.4102 203.975 56.474 207.178 59.5859 211.996C62.6979 216.814 64.5924 219.743 65.2695 220.785C65.4648 221.085 65.7969 221.592 66.2656 222.309C66.7474 223.012 67.0859 223.513 67.2812 223.812C67.1901 219.346 67.1445 217.029 67.1445 216.859V202.387H71.9688V231H66.2656L53.3555 210.883L52.418 209.34C52.5221 212.777 52.5742 215.193 52.5742 216.586V231H47.7695ZM86.9883 227.523C88.7201 227.523 90.0221 226.892 90.8945 225.629C91.7669 224.366 92.2031 222.556 92.2031 220.199C92.2031 217.816 91.7669 216 90.8945 214.75C90.0221 213.5 88.707 212.875 86.9492 212.875C85.2174 212.875 83.9089 213.507 83.0234 214.77C82.151 216.02 81.7148 217.836 81.7148 220.219C81.7148 222.562 82.1576 224.366 83.043 225.629C83.9284 226.892 85.2435 227.523 86.9883 227.523ZM86.8516 231.41C83.6745 231.41 81.1745 230.382 79.3516 228.324C77.5286 226.267 76.6172 223.559 76.6172 220.199C76.6172 216.736 77.5286 214.008 79.3516 212.016C81.1745 210.01 83.7461 209.008 87.0664 209.008C90.2695 209.008 92.776 210.03 94.5859 212.074C96.4089 214.105 97.3203 216.814 97.3203 220.199C97.3203 223.624 96.4023 226.352 94.5664 228.383C92.7305 230.401 90.1589 231.41 86.8516 231.41ZM118.941 231.391C115.777 231.391 113.245 230.85 111.344 229.77L111.871 225.922C112.73 226.391 113.824 226.814 115.152 227.191C116.48 227.556 117.691 227.738 118.785 227.738C119.918 227.738 120.797 227.53 121.422 227.113C122.06 226.684 122.385 226.059 122.398 225.238C122.398 224.496 122.099 223.91 121.5 223.48C120.914 223.051 119.788 222.517 118.121 221.879C117.548 221.671 117.177 221.534 117.008 221.469C115.029 220.701 113.603 219.848 112.73 218.91C111.858 217.96 111.422 216.677 111.422 215.062C111.422 213.109 112.125 211.612 113.531 210.57C114.951 209.529 116.923 209.008 119.449 209.008C122.184 209.008 124.586 209.522 126.656 210.551L125.387 214.086C123.342 213.135 121.396 212.66 119.547 212.66C118.518 212.66 117.711 212.836 117.125 213.188C116.552 213.526 116.266 214.047 116.266 214.75C116.266 215.414 116.546 215.935 117.105 216.312C117.665 216.677 118.759 217.159 120.387 217.758C120.439 217.771 120.608 217.829 120.895 217.934C121.181 218.038 121.402 218.122 121.559 218.188C123.525 218.904 124.97 219.763 125.895 220.766C126.819 221.755 127.281 223.051 127.281 224.652C127.268 226.801 126.539 228.461 125.094 229.633C123.648 230.805 121.598 231.391 118.941 231.391ZM146.832 229.32C145.126 230.714 142.88 231.41 140.094 231.41C137.307 231.41 135.061 230.714 133.355 229.32C131.663 227.927 130.816 225.883 130.816 223.188V209.535H135.953V222.992C135.953 224.594 136.285 225.753 136.949 226.469C137.626 227.185 138.694 227.543 140.152 227.543C141.585 227.543 142.626 227.191 143.277 226.488C143.941 225.772 144.273 224.607 144.273 222.992V209.535H149.391V223.188C149.391 225.87 148.538 227.914 146.832 229.32ZM154.098 231V209.535H158.395L159.059 212.816C160.465 210.564 162.503 209.438 165.172 209.438C165.732 209.438 166.188 209.464 166.539 209.516L166.461 213.793C165.94 213.715 165.4 213.676 164.84 213.676C162.952 213.676 161.539 214.177 160.602 215.18C159.677 216.182 159.215 217.576 159.215 219.359V231H154.098ZM175.68 231L167.125 209.535H172.555C172.763 210.121 173.421 211.944 174.527 215.004C175.647 218.051 176.389 220.128 176.754 221.234C177.496 223.396 178.03 225.03 178.355 226.137C178.355 226.124 178.466 225.701 178.688 224.867C178.909 224.034 179.117 223.253 179.312 222.523C179.521 221.781 179.651 221.332 179.703 221.176C179.716 221.15 180.309 219.353 181.48 215.785C182.665 212.217 183.368 210.134 183.59 209.535H188.98L180.855 231H175.68ZM201.422 231.41C197.971 231.41 195.283 230.421 193.355 228.441C191.441 226.449 190.484 223.702 190.484 220.199C190.484 216.788 191.389 214.073 193.199 212.055C195.009 210.036 197.477 209.021 200.602 209.008C203.557 209.008 205.849 209.932 207.477 211.781C209.117 213.63 209.938 216.085 209.938 219.145C209.938 219.366 209.931 219.724 209.918 220.219C209.918 220.714 209.918 221.078 209.918 221.312H195.641C195.693 223.318 196.24 224.874 197.281 225.98C198.336 227.074 199.781 227.621 201.617 227.621C203.961 227.621 206.214 227.009 208.375 225.785L209.098 229.418C206.949 230.746 204.391 231.41 201.422 231.41ZM195.738 218.09H205.113C205.113 216.345 204.716 215.004 203.922 214.066C203.128 213.129 202.027 212.66 200.621 212.66C199.306 212.66 198.193 213.116 197.281 214.027C196.383 214.939 195.868 216.293 195.738 218.09ZM215.25 240.043C214.417 240.043 213.531 239.991 212.594 239.887L212.34 235.922C212.939 235.987 213.701 236.02 214.625 236.02C215.81 236.02 216.76 235.785 217.477 235.316C218.193 234.848 218.785 234.014 219.254 232.816C219.306 232.686 219.566 231.951 220.035 230.609L211.402 209.535H216.871L222.516 225.102C222.932 223.552 223.863 220.674 225.309 216.469C226.767 212.263 227.568 209.952 227.711 209.535H233.18C227.229 225.264 224.228 233.194 224.176 233.324C223.251 235.733 222.086 237.452 220.68 238.48C219.273 239.522 217.464 240.043 215.25 240.043ZM10.9336 282V260.535H15.2305L15.8945 263.816C17.3008 261.564 19.3385 260.438 22.0078 260.438C22.5677 260.438 23.0234 260.464 23.375 260.516L23.2969 264.793C22.776 264.715 22.2357 264.676 21.6758 264.676C19.7878 264.676 18.375 265.177 17.4375 266.18C16.513 267.182 16.0508 268.576 16.0508 270.359V282H10.9336ZM36.2266 282.41C32.776 282.41 30.0872 281.421 28.1602 279.441C26.2461 277.449 25.2891 274.702 25.2891 271.199C25.2891 267.788 26.194 265.073 28.0039 263.055C29.8138 261.036 32.2812 260.021 35.4062 260.008C38.362 260.008 40.6536 260.932 42.2812 262.781C43.9219 264.63 44.7422 267.085 44.7422 270.145C44.7422 270.366 44.7357 270.724 44.7227 271.219C44.7227 271.714 44.7227 272.078 44.7227 272.312H30.4453C30.4974 274.318 31.0443 275.874 32.0859 276.98C33.1406 278.074 34.5859 278.621 36.4219 278.621C38.7656 278.621 41.0182 278.009 43.1797 276.785L43.9023 280.418C41.7539 281.746 39.1953 282.41 36.2266 282.41ZM30.543 269.09H39.918C39.918 267.345 39.5208 266.004 38.7266 265.066C37.9323 264.129 36.832 263.66 35.4258 263.66C34.1107 263.66 32.9974 264.116 32.0859 265.027C31.1875 265.939 30.6732 267.293 30.543 269.09ZM58.3164 282.41C55.0352 282.41 52.4766 281.434 50.6406 279.48C48.8177 277.527 47.9062 274.734 47.9062 271.102C47.9062 267.586 48.8633 264.858 50.7773 262.918C52.7044 260.978 55.237 260.008 58.375 260.008C60.888 260.008 63.0104 260.548 64.7422 261.629L63.5312 265.281C61.7604 264.357 60.1133 263.895 58.5898 263.895C56.8581 263.895 55.4909 264.513 54.4883 265.75C53.4987 266.987 53.0039 268.79 53.0039 271.16C53.0039 273.556 53.4922 275.379 54.4688 276.629C55.4583 277.879 56.8516 278.504 58.6484 278.504C60.5234 278.504 62.3268 277.951 64.0586 276.844L64.5469 280.73C63.6484 281.329 62.7174 281.759 61.7539 282.02C60.7904 282.28 59.6445 282.41 58.3164 282.41ZM77.8086 278.523C79.5404 278.523 80.8424 277.892 81.7148 276.629C82.5872 275.366 83.0234 273.556 83.0234 271.199C83.0234 268.816 82.5872 267 81.7148 265.75C80.8424 264.5 79.5273 263.875 77.7695 263.875C76.0378 263.875 74.7292 264.507 73.8438 265.77C72.9714 267.02 72.5352 268.836 72.5352 271.219C72.5352 273.562 72.9779 275.366 73.8633 276.629C74.7487 277.892 76.0638 278.523 77.8086 278.523ZM77.6719 282.41C74.4948 282.41 71.9948 281.382 70.1719 279.324C68.349 277.267 67.4375 274.559 67.4375 271.199C67.4375 267.736 68.349 265.008 70.1719 263.016C71.9948 261.01 74.5664 260.008 77.8867 260.008C81.0898 260.008 83.5964 261.03 85.4062 263.074C87.2292 265.105 88.1406 267.814 88.1406 271.199C88.1406 274.624 87.2227 277.352 85.3867 279.383C83.5508 281.401 80.9792 282.41 77.6719 282.41ZM92.3398 282V260.535H96.6367L97.3008 263.816C98.707 261.564 100.745 260.438 103.414 260.438C103.974 260.438 104.43 260.464 104.781 260.516L104.703 264.793C104.182 264.715 103.642 264.676 103.082 264.676C101.194 264.676 99.7812 265.177 98.8438 266.18C97.9193 267.182 97.457 268.576 97.457 270.359V282H92.3398ZM115.699 282.41C112.9 282.41 110.699 281.382 109.098 279.324C107.496 277.267 106.695 274.52 106.695 271.082C106.695 267.749 107.49 265.073 109.078 263.055C110.68 261.023 112.88 260.008 115.68 260.008C118.727 260.008 120.882 261.089 122.145 263.25C122.014 261.974 121.949 260.743 121.949 259.559V252.625L127.066 252.293V282H122.633L122.066 279.07C121.845 279.422 121.637 279.728 121.441 279.988C121.259 280.236 120.986 280.529 120.621 280.867C120.257 281.193 119.859 281.46 119.43 281.668C119.013 281.863 118.479 282.033 117.828 282.176C117.19 282.332 116.48 282.41 115.699 282.41ZM116.91 278.523C120.348 278.523 122.092 276.186 122.145 271.512C122.145 268.868 121.702 266.941 120.816 265.73C119.931 264.52 118.609 263.914 116.852 263.914C115.315 263.914 114.085 264.533 113.16 265.77C112.249 266.993 111.793 268.803 111.793 271.199C111.793 273.582 112.249 275.398 113.16 276.648C114.085 277.898 115.335 278.523 116.91 278.523ZM139.176 282.391C136.012 282.391 133.479 281.85 131.578 280.77L132.105 276.922C132.965 277.391 134.059 277.814 135.387 278.191C136.715 278.556 137.926 278.738 139.02 278.738C140.152 278.738 141.031 278.53 141.656 278.113C142.294 277.684 142.62 277.059 142.633 276.238C142.633 275.496 142.333 274.91 141.734 274.48C141.148 274.051 140.022 273.517 138.355 272.879C137.783 272.671 137.411 272.534 137.242 272.469C135.263 271.701 133.837 270.848 132.965 269.91C132.092 268.96 131.656 267.677 131.656 266.062C131.656 264.109 132.359 262.612 133.766 261.57C135.185 260.529 137.158 260.008 139.684 260.008C142.418 260.008 144.82 260.522 146.891 261.551L145.621 265.086C143.577 264.135 141.63 263.66 139.781 263.66C138.753 263.66 137.945 263.836 137.359 264.188C136.786 264.526 136.5 265.047 136.5 265.75C136.5 266.414 136.78 266.935 137.34 267.312C137.9 267.677 138.993 268.159 140.621 268.758C140.673 268.771 140.842 268.829 141.129 268.934C141.415 269.038 141.637 269.122 141.793 269.188C143.759 269.904 145.204 270.763 146.129 271.766C147.053 272.755 147.516 274.051 147.516 275.652C147.503 277.801 146.773 279.461 145.328 280.633C143.883 281.805 141.832 282.391 139.176 282.391ZM163.531 282V263.934H160.133L160.465 260.926L163.531 260.535V259.344C163.531 258.042 163.648 256.928 163.883 256.004C164.13 255.079 164.527 254.292 165.074 253.641C165.621 252.977 166.35 252.488 167.262 252.176C168.186 251.85 169.319 251.688 170.66 251.688C171.962 251.688 173.29 251.811 174.645 252.059L174.195 255.867C173.128 255.724 172.288 255.652 171.676 255.652C170.582 255.652 169.801 255.919 169.332 256.453C168.876 256.974 168.648 257.846 168.648 259.07V260.535H173.688V263.934H168.648V282H163.531ZM185.934 278.523C187.665 278.523 188.967 277.892 189.84 276.629C190.712 275.366 191.148 273.556 191.148 271.199C191.148 268.816 190.712 267 189.84 265.75C188.967 264.5 187.652 263.875 185.895 263.875C184.163 263.875 182.854 264.507 181.969 265.77C181.096 267.02 180.66 268.836 180.66 271.219C180.66 273.562 181.103 275.366 181.988 276.629C182.874 277.892 184.189 278.523 185.934 278.523ZM185.797 282.41C182.62 282.41 180.12 281.382 178.297 279.324C176.474 277.267 175.562 274.559 175.562 271.199C175.562 267.736 176.474 265.008 178.297 263.016C180.12 261.01 182.691 260.008 186.012 260.008C189.215 260.008 191.721 261.03 193.531 263.074C195.354 265.105 196.266 267.814 196.266 271.199C196.266 274.624 195.348 277.352 193.512 279.383C191.676 281.401 189.104 282.41 185.797 282.41ZM215.934 280.32C214.228 281.714 211.982 282.41 209.195 282.41C206.409 282.41 204.163 281.714 202.457 280.32C200.764 278.927 199.918 276.883 199.918 274.188V260.535H205.055V273.992C205.055 275.594 205.387 276.753 206.051 277.469C206.728 278.185 207.796 278.543 209.254 278.543C210.686 278.543 211.728 278.191 212.379 277.488C213.043 276.772 213.375 275.607 213.375 273.992V260.535H218.492V274.188C218.492 276.87 217.639 278.914 215.934 280.32ZM223.18 282V260.535H227.301L227.867 263.25C230.055 261.089 232.483 260.008 235.152 260.008C237.652 260.008 239.521 260.73 240.758 262.176C242.008 263.608 242.633 265.691 242.633 268.426V282H237.496V269.051C237.483 267.319 237.203 266.023 236.656 265.164C236.109 264.305 235.126 263.875 233.707 263.875C232.6 263.875 231.585 264.161 230.66 264.734C229.749 265.294 229.085 266.004 228.668 266.863C228.421 267.879 228.297 269.441 228.297 271.551V282H223.18ZM255.66 282.41C252.861 282.41 250.66 281.382 249.059 279.324C247.457 277.267 246.656 274.52 246.656 271.082C246.656 267.749 247.451 265.073 249.039 263.055C250.641 261.023 252.841 260.008 255.641 260.008C258.688 260.008 260.842 261.089 262.105 263.25C261.975 261.974 261.91 260.743 261.91 259.559V252.625L267.027 252.293V282H262.594L262.027 279.07C261.806 279.422 261.598 279.728 261.402 279.988C261.22 280.236 260.947 280.529 260.582 280.867C260.217 281.193 259.82 281.46 259.391 281.668C258.974 281.863 258.44 282.033 257.789 282.176C257.151 282.332 256.441 282.41 255.66 282.41ZM256.871 278.523C260.309 278.523 262.053 276.186 262.105 271.512C262.105 268.868 261.663 266.941 260.777 265.73C259.892 264.52 258.57 263.914 256.812 263.914C255.276 263.914 254.046 264.533 253.121 265.77C252.21 266.993 251.754 268.803 251.754 271.199C251.754 273.582 252.21 275.398 253.121 276.648C254.046 277.898 255.296 278.523 256.871 278.523Z" fill="white"/>
<defs>
<clipPath id="clip0">
<rect width="277.905" height="276.57" fill="white" transform="translate(0 0.666504)"/>
</clipPath>
</defs>
</svg>
