<svg width="172" height="107" viewBox="0 0 172 107" fill="none" xmlns="http://www.w3.org/2000/svg">
<rect x="0.713392" y="-8.9407e-08" width="75.3214" height="75.3214" rx="9.5" transform="matrix(0.713392 -0.700766 0.713392 0.700765 0.204464 54.0165)" fill="#555B6E" stroke="#FFD6BA"/>
<path d="M53.7537 69.729C50.3031 69.729 47.2107 68.9347 44.4763 67.3462L45.7654 63.147C46.9893 63.8241 48.3175 64.3709 49.7498 64.7876C51.1951 65.2043 52.6013 65.4126 53.9685 65.4126C55.6482 65.4126 56.9177 65.0545 57.7771 64.3384C58.6365 63.6092 59.0662 62.5675 59.0662 61.2134C59.0662 59.4165 57.8682 58.173 55.4724 57.4829C55.3031 57.4308 54.8279 57.2941 54.0466 57.0728C53.2654 56.8384 52.5297 56.617 51.8396 56.4087C51.1625 56.1873 50.6742 56.0181 50.3748 55.9009C46.5336 54.5467 44.613 52.0207 44.613 48.3228C44.613 45.7316 45.531 43.7329 47.3669 42.3267C49.2159 40.9204 51.6638 40.2173 54.7107 40.2173C58.1612 40.2173 61.1365 40.9269 63.6365 42.3462L62.0349 46.2134C59.4828 45.0675 57.113 44.4946 54.9255 44.4946C53.35 44.4946 52.1586 44.7746 51.3513 45.3345C50.557 45.8813 50.1339 46.7993 50.0818 48.0884C50.0818 49.6769 50.8695 50.7121 52.4451 51.1938C52.7576 51.311 53.5258 51.5649 54.7498 51.9556C55.9737 52.3462 56.768 52.6001 57.1326 52.7173C59.7498 53.5767 61.6182 54.6444 62.738 55.9204C63.8708 57.1965 64.4373 58.9738 64.4373 61.2524C64.4373 63.9738 63.4737 66.0701 61.5466 67.5415C59.6195 68.9998 57.0219 69.729 53.7537 69.729Z" fill="#FFD6BA"/>
<path d="M44.4763 67.3462L43.5203 67.0527L43.2873 67.8119L43.974 68.2109L44.4763 67.3462ZM45.7654 63.147L46.2494 62.2719L45.1711 61.6754L44.8094 62.8535L45.7654 63.147ZM49.7498 64.7876L49.4704 65.7478L49.4727 65.7485L49.7498 64.7876ZM57.7771 64.3384L58.4173 65.1066L58.4241 65.1009L57.7771 64.3384ZM55.4724 57.4829L55.1783 58.4387L55.187 58.4413L55.1956 58.4438L55.4724 57.4829ZM54.0466 57.0728L53.7593 58.0306L53.7666 58.0328L53.774 58.0349L54.0466 57.0728ZM51.8396 56.4087L51.5289 57.3592L51.5397 57.3627L51.5506 57.366L51.8396 56.4087ZM50.3748 55.9009L50.7392 54.9696L50.7233 54.9634L50.7072 54.9578L50.3748 55.9009ZM47.3669 42.3267L46.7616 41.5307L46.7589 41.5328L47.3669 42.3267ZM63.6365 42.3462L64.5604 42.7288L64.8984 41.9127L64.1302 41.4766L63.6365 42.3462ZM62.0349 46.2134L61.6253 47.1256L62.5648 47.5474L62.9588 46.596L62.0349 46.2134ZM51.3513 45.3345L51.9184 46.1581L51.9212 46.1562L51.3513 45.3345ZM50.0818 48.0884L49.0826 48.048L49.0818 48.0682V48.0884H50.0818ZM52.4451 51.1938L52.7962 50.2575L52.7671 50.2466L52.7375 50.2376L52.4451 51.1938ZM57.1326 52.7173L57.4445 51.7672L57.4386 51.7653L57.1326 52.7173ZM62.738 55.9204L61.9864 56.58L61.9902 56.5843L62.738 55.9204ZM61.5466 67.5415L62.1501 68.3389L62.1535 68.3363L61.5466 67.5415ZM53.7537 68.729C50.463 68.729 47.5467 67.9735 44.9787 66.4815L43.974 68.2109C46.8746 69.896 50.1433 70.729 53.7537 70.729V68.729ZM45.4323 67.6397L46.7214 63.4404L44.8094 62.8535L43.5203 67.0527L45.4323 67.6397ZM45.2813 64.022C46.5743 64.7373 47.9716 65.3118 49.4704 65.7478L50.0291 63.8274C48.6633 63.4301 47.4044 62.9108 46.2494 62.2719L45.2813 64.022ZM49.4727 65.7485C50.9992 66.1885 52.4987 66.4126 53.9685 66.4126V64.4126C52.7039 64.4126 51.391 64.22 50.0268 63.8267L49.4727 65.7485ZM53.9685 66.4126C55.7692 66.4126 57.3072 66.0317 58.4173 65.1066L57.1369 63.5702C56.5282 64.0774 55.5272 64.4126 53.9685 64.4126V66.4126ZM58.4241 65.1009C59.5527 64.1433 60.0662 62.7962 60.0662 61.2134H58.0662C58.0662 62.3389 57.7203 63.0751 57.1301 63.5759L58.4241 65.1009ZM60.0662 61.2134C60.0662 60.0679 59.6743 59.0557 58.8879 58.2393C58.1248 57.4472 57.0455 56.8954 55.7492 56.522L55.1956 58.4438C56.2952 58.7606 57.0127 59.1755 57.4475 59.6269C57.859 60.054 58.0662 60.562 58.0662 61.2134H60.0662ZM55.7665 56.5271C55.5839 56.4709 55.0955 56.3306 54.3192 56.1106L53.774 58.0349C54.5603 58.2577 55.0224 58.3907 55.1783 58.4387L55.7665 56.5271ZM54.334 56.1149C53.5532 55.8807 52.8181 55.6595 52.1286 55.4514L51.5506 57.366C52.2413 57.5745 52.9776 57.7961 53.7593 58.0306L54.334 56.1149ZM52.1503 55.4582C51.4751 55.2374 51.0101 55.0756 50.7392 54.9696L50.0104 56.8321C50.3384 56.9605 50.85 57.1372 51.5289 57.3592L52.1503 55.4582ZM50.7072 54.9578C48.9191 54.3274 47.6622 53.4544 46.8495 52.3855C46.0426 51.3242 45.613 49.9907 45.613 48.3228H43.613C43.613 50.3528 44.1438 52.1312 45.2574 53.596C46.3653 55.0531 47.9893 56.1202 50.0423 56.844L50.7072 54.9578ZM45.613 48.3228C45.613 45.9999 46.4183 44.3129 47.975 43.1205L46.7589 41.5328C44.6437 43.1529 43.613 45.4633 43.613 48.3228H45.613ZM47.9723 43.1226C49.5998 41.8848 51.8143 41.2173 54.7107 41.2173V39.2173C51.5133 39.2173 48.832 39.956 46.7616 41.5307L47.9723 43.1226ZM54.7107 41.2173C58.0228 41.2173 60.8208 41.8976 63.1428 43.2158L64.1302 41.4766C61.4522 39.9562 58.2996 39.2173 54.7107 39.2173V41.2173ZM62.7126 41.9636L61.111 45.8308L62.9588 46.596L64.5604 42.7288L62.7126 41.9636ZM62.4445 45.3011C59.7982 44.113 57.2878 43.4946 54.9255 43.4946V45.4946C56.9383 45.4946 59.1675 46.0221 61.6253 47.1256L62.4445 45.3011ZM54.9255 43.4946C53.2591 43.4946 51.8295 43.7859 50.7814 44.5128L51.9212 46.1562C52.4877 45.7633 53.4409 45.4946 54.9255 45.4946V43.4946ZM50.7842 44.5108C49.6485 45.2928 49.1427 46.5595 49.0826 48.048L51.081 48.1288C51.125 47.0391 51.4656 46.4699 51.9184 46.1581L50.7842 44.5108ZM49.0818 48.0884C49.0818 49.0518 49.3233 49.9344 49.8768 50.6617C50.4278 51.3858 51.2182 51.8644 52.1526 52.1501L52.7375 50.2376C52.0964 50.0415 51.7051 49.7617 51.4684 49.4506C51.2342 49.1428 51.0818 48.7135 51.0818 48.0884H49.0818ZM52.0939 52.1302C52.4349 52.258 53.23 52.5202 54.4457 52.9082L55.0538 51.0029C53.8216 50.6097 53.0802 50.364 52.7962 50.2575L52.0939 52.1302ZM54.4457 52.9082C55.6699 53.2989 56.4631 53.5525 56.8266 53.6693L57.4386 51.7653C57.0728 51.6477 56.2775 51.3935 55.0538 51.0029L54.4457 52.9082ZM56.8206 53.6674C59.3629 54.5022 61.0366 55.4976 61.9864 56.58L63.4897 55.2608C62.1999 53.7911 60.1366 52.6511 57.4445 51.7672L56.8206 53.6674ZM61.9902 56.5843C62.9127 57.6234 63.4373 59.1352 63.4373 61.2524H65.4373C65.4373 58.8124 64.829 56.7695 63.4859 55.2565L61.9902 56.5843ZM63.4373 61.2524C63.4373 63.7057 62.5863 65.4895 60.9398 66.7467L62.1535 68.3363C64.3611 66.6508 65.4373 64.2419 65.4373 61.2524H63.4373ZM60.9432 66.7441C59.2419 68.0315 56.88 68.729 53.7537 68.729V70.729C57.1638 70.729 59.9972 69.9681 62.1501 68.3389L60.9432 66.7441Z" fill="#555B6E"/>
<rect x="0.713392" width="75.3214" height="75.3214" rx="9.5" transform="matrix(0.713392 -0.700765 0.713392 0.700765 63.3104 53.9833)" fill="#555B6E" stroke="#FFD6BA"/>
<path d="M108.696 69.3052V40.6138H119.301C120.746 40.6138 121.996 40.6789 123.051 40.8091C124.119 40.9393 125.128 41.1802 126.078 41.5317C127.042 41.8703 127.817 42.3325 128.403 42.9185C129.002 43.5044 129.47 44.2726 129.809 45.2231C130.16 46.1606 130.336 47.2739 130.336 48.563C130.336 52.3651 128.611 54.8651 125.16 56.063C125.864 56.8573 126.736 58.3286 127.778 60.4771L132.035 69.3052H126.254L122.914 61.8247C121.651 59.1424 120.87 57.5539 120.571 57.0591C120.349 57.0461 119.614 57.0396 118.364 57.0396L113.93 57.0005V69.3052H108.696ZM119.77 53.2114C121.801 53.2114 123.259 52.8534 124.145 52.1372C125.03 51.408 125.473 50.2427 125.473 48.6411C125.473 47.2349 125.024 46.1997 124.125 45.5356C123.227 44.8716 121.853 44.5396 120.004 44.5396H113.93V53.1919C114.125 53.1919 115.095 53.1984 116.84 53.2114C118.585 53.2114 119.561 53.2114 119.77 53.2114Z" fill="#FFD6BA"/>
<path d="M108.696 69.3052H107.696V70.3052H108.696V69.3052ZM108.696 40.6138V39.6138H107.696V40.6138H108.696ZM123.051 40.8091L122.928 41.8015L122.93 41.8017L123.051 40.8091ZM126.078 41.5317L125.731 42.4696L125.739 42.4725L125.747 42.4752L126.078 41.5317ZM128.403 42.9185L127.695 43.6256L127.703 43.6333L128.403 42.9185ZM129.809 45.2231L128.867 45.5587L128.87 45.5665L128.873 45.5743L129.809 45.2231ZM125.16 56.063L124.832 55.1183L123.422 55.6079L124.412 56.7258L125.16 56.063ZM127.778 60.4771L128.678 60.0426L128.677 60.0408L127.778 60.4771ZM132.035 69.3052V70.3052H133.628L132.936 68.8708L132.035 69.3052ZM126.254 69.3052L125.341 69.7129L125.605 70.3052H126.254V69.3052ZM122.914 61.8247L123.827 61.417L123.823 61.4078L123.819 61.3987L122.914 61.8247ZM120.571 57.0591L121.426 56.5413L121.154 56.0917L120.629 56.0608L120.571 57.0591ZM118.364 57.0396L118.355 58.0396H118.364V57.0396ZM113.93 57.0005L113.939 56.0005L112.93 55.9916V57.0005H113.93ZM113.93 69.3052V70.3052H114.93V69.3052H113.93ZM124.145 52.1372L124.774 52.9147L124.78 52.9091L124.145 52.1372ZM113.93 44.5396V43.5396H112.93V44.5396H113.93ZM113.93 53.1919H112.93V54.1919H113.93V53.1919ZM116.84 53.2114L116.833 54.2114H116.84V53.2114ZM109.696 69.3052V40.6138H107.696V69.3052H109.696ZM108.696 41.6138H119.301V39.6138H108.696V41.6138ZM119.301 41.6138C120.719 41.6138 121.926 41.6778 122.928 41.8015L123.174 39.8166C122.067 39.68 120.774 39.6138 119.301 39.6138V41.6138ZM122.93 41.8017C123.925 41.9231 124.858 42.1466 125.731 42.4696L126.425 40.5938C125.398 40.2137 124.312 39.9555 123.172 39.8164L122.93 41.8017ZM125.747 42.4752C126.601 42.7754 127.237 43.1673 127.695 43.6256L129.11 42.2114C128.396 41.4978 127.483 40.9652 126.41 40.5883L125.747 42.4752ZM127.703 43.6333C128.174 44.0934 128.569 44.7225 128.867 45.5587L130.751 44.8876C130.372 43.8227 129.83 42.9154 129.102 42.2036L127.703 43.6333ZM128.873 45.5743C129.172 46.3724 129.336 47.361 129.336 48.563H131.336C131.336 47.1868 131.149 45.9489 130.745 44.872L128.873 45.5743ZM129.336 48.563C129.336 50.3125 128.941 51.6763 128.219 52.7216C127.5 53.7634 126.399 54.5746 124.832 55.1183L125.488 57.0077C127.373 56.3535 128.859 55.3157 129.865 53.8575C130.869 52.4028 131.336 50.6156 131.336 48.563H129.336ZM124.412 56.7258C125.016 57.4088 125.839 58.7707 126.878 60.9133L128.677 60.0408C127.633 57.8865 126.711 56.3057 125.909 55.4001L124.412 56.7258ZM126.877 60.9115L131.135 69.7396L132.936 68.8708L128.678 60.0426L126.877 60.9115ZM132.035 68.3052H126.254V70.3052H132.035V68.3052ZM127.167 68.8975L123.827 61.417L122.001 62.2324L125.341 69.7129L127.167 68.8975ZM123.819 61.3987C122.568 58.7417 121.76 57.0924 121.426 56.5413L119.715 57.5769C119.98 58.0154 120.735 59.5432 122.01 62.2507L123.819 61.3987ZM120.629 56.0608C120.371 56.0456 119.596 56.0396 118.364 56.0396V58.0396C119.631 58.0396 120.328 58.0465 120.512 58.0574L120.629 56.0608ZM118.372 56.0396L113.939 56.0005L113.921 58.0004L118.355 58.0395L118.372 56.0396ZM112.93 57.0005V69.3052H114.93V57.0005H112.93ZM113.93 68.3052H108.696V70.3052H113.93V68.3052ZM119.77 54.2114C121.87 54.2114 123.617 53.8506 124.774 52.9147L123.516 51.3597C122.902 51.8561 121.732 52.2114 119.77 52.2114V54.2114ZM124.78 52.9091C125.978 51.9231 126.473 50.4173 126.473 48.6411H124.473C124.473 50.068 124.083 50.893 123.509 51.3653L124.78 52.9091ZM126.473 48.6411C126.473 47.0087 125.938 45.6323 124.72 44.7315L123.531 46.3398C124.109 46.7671 124.473 47.461 124.473 48.6411H126.473ZM124.72 44.7315C123.569 43.8809 121.939 43.5396 120.004 43.5396V45.5396C121.767 45.5396 122.885 45.8622 123.531 46.3398L124.72 44.7315ZM120.004 43.5396H113.93V45.5396H120.004V43.5396ZM112.93 44.5396V53.1919H114.93V44.5396H112.93ZM113.93 54.1919C114.12 54.1919 115.085 54.1984 116.833 54.2114L116.848 52.2115C115.106 52.1985 114.13 52.1919 113.93 52.1919V54.1919ZM116.84 54.2114C116.843 54.2114 116.847 54.2114 116.85 54.2114C116.854 54.2114 116.857 54.2114 116.86 54.2114C116.864 54.2114 116.867 54.2114 116.871 54.2114C116.874 54.2114 116.877 54.2114 116.881 54.2114C116.884 54.2114 116.888 54.2114 116.891 54.2114C116.894 54.2114 116.898 54.2114 116.901 54.2114C116.904 54.2114 116.908 54.2114 116.911 54.2114C116.915 54.2114 116.918 54.2114 116.921 54.2114C116.925 54.2114 116.928 54.2114 116.931 54.2114C116.935 54.2114 116.938 54.2114 116.941 54.2114C116.945 54.2114 116.948 54.2114 116.951 54.2114C116.955 54.2114 116.958 54.2114 116.962 54.2114C116.965 54.2114 116.968 54.2114 116.972 54.2114C116.975 54.2114 116.978 54.2114 116.981 54.2114C116.985 54.2114 116.988 54.2114 116.991 54.2114C116.995 54.2114 116.998 54.2114 117.001 54.2114C117.005 54.2114 117.008 54.2114 117.011 54.2114C117.015 54.2114 117.018 54.2114 117.021 54.2114C117.025 54.2114 117.028 54.2114 117.031 54.2114C117.034 54.2114 117.038 54.2114 117.041 54.2114C117.044 54.2114 117.048 54.2114 117.051 54.2114C117.054 54.2114 117.057 54.2114 117.061 54.2114C117.064 54.2114 117.067 54.2114 117.071 54.2114C117.074 54.2114 117.077 54.2114 117.08 54.2114C117.084 54.2114 117.087 54.2114 117.09 54.2114C117.093 54.2114 117.097 54.2114 117.1 54.2114C117.103 54.2114 117.106 54.2114 117.11 54.2114C117.113 54.2114 117.116 54.2114 117.119 54.2114C117.123 54.2114 117.126 54.2114 117.129 54.2114C117.132 54.2114 117.136 54.2114 117.139 54.2114C117.142 54.2114 117.145 54.2114 117.149 54.2114C117.152 54.2114 117.155 54.2114 117.158 54.2114C117.161 54.2114 117.165 54.2114 117.168 54.2114C117.171 54.2114 117.174 54.2114 117.178 54.2114C117.181 54.2114 117.184 54.2114 117.187 54.2114C117.19 54.2114 117.194 54.2114 117.197 54.2114C117.2 54.2114 117.203 54.2114 117.206 54.2114C117.21 54.2114 117.213 54.2114 117.216 54.2114C117.219 54.2114 117.222 54.2114 117.225 54.2114C117.229 54.2114 117.232 54.2114 117.235 54.2114C117.238 54.2114 117.241 54.2114 117.244 54.2114C117.248 54.2114 117.251 54.2114 117.254 54.2114C117.257 54.2114 117.26 54.2114 117.263 54.2114C117.267 54.2114 117.27 54.2114 117.273 54.2114C117.276 54.2114 117.279 54.2114 117.282 54.2114C117.285 54.2114 117.289 54.2114 117.292 54.2114C117.295 54.2114 117.298 54.2114 117.301 54.2114C117.304 54.2114 117.307 54.2114 117.311 54.2114C117.314 54.2114 117.317 54.2114 117.32 54.2114C117.323 54.2114 117.326 54.2114 117.329 54.2114C117.332 54.2114 117.336 54.2114 117.339 54.2114C117.342 54.2114 117.345 54.2114 117.348 54.2114C117.351 54.2114 117.354 54.2114 117.357 54.2114C117.36 54.2114 117.363 54.2114 117.367 54.2114C117.37 54.2114 117.373 54.2114 117.376 54.2114C117.379 54.2114 117.382 54.2114 117.385 54.2114C117.388 54.2114 117.391 54.2114 117.394 54.2114C117.397 54.2114 117.4 54.2114 117.403 54.2114C117.407 54.2114 117.41 54.2114 117.413 54.2114C117.416 54.2114 117.419 54.2114 117.422 54.2114C117.425 54.2114 117.428 54.2114 117.431 54.2114C117.434 54.2114 117.437 54.2114 117.44 54.2114C117.443 54.2114 117.446 54.2114 117.449 54.2114C117.452 54.2114 117.455 54.2114 117.458 54.2114C117.461 54.2114 117.464 54.2114 117.467 54.2114C117.47 54.2114 117.474 54.2114 117.477 54.2114C117.48 54.2114 117.483 54.2114 117.486 54.2114C117.489 54.2114 117.492 54.2114 117.495 54.2114C117.498 54.2114 117.501 54.2114 117.504 54.2114C117.507 54.2114 117.51 54.2114 117.513 54.2114C117.516 54.2114 117.519 54.2114 117.522 54.2114C117.525 54.2114 117.528 54.2114 117.531 54.2114C117.534 54.2114 117.537 54.2114 117.54 54.2114C117.543 54.2114 117.546 54.2114 117.548 54.2114C117.551 54.2114 117.554 54.2114 117.557 54.2114C117.56 54.2114 117.563 54.2114 117.566 54.2114C117.569 54.2114 117.572 54.2114 117.575 54.2114C117.578 54.2114 117.581 54.2114 117.584 54.2114C117.587 54.2114 117.59 54.2114 117.593 54.2114C117.596 54.2114 117.599 54.2114 117.602 54.2114C117.605 54.2114 117.608 54.2114 117.611 54.2114C117.613 54.2114 117.616 54.2114 117.619 54.2114C117.622 54.2114 117.625 54.2114 117.628 54.2114C117.631 54.2114 117.634 54.2114 117.637 54.2114C117.64 54.2114 117.643 54.2114 117.646 54.2114C117.648 54.2114 117.651 54.2114 117.654 54.2114C117.657 54.2114 117.66 54.2114 117.663 54.2114C117.666 54.2114 117.669 54.2114 117.672 54.2114C117.675 54.2114 117.677 54.2114 117.68 54.2114C117.683 54.2114 117.686 54.2114 117.689 54.2114C117.692 54.2114 117.695 54.2114 117.698 54.2114C117.7 54.2114 117.703 54.2114 117.706 54.2114C117.709 54.2114 117.712 54.2114 117.715 54.2114C117.718 54.2114 117.721 54.2114 117.723 54.2114C117.726 54.2114 117.729 54.2114 117.732 54.2114C117.735 54.2114 117.738 54.2114 117.741 54.2114C117.743 54.2114 117.746 54.2114 117.749 54.2114C117.752 54.2114 117.755 54.2114 117.758 54.2114C117.76 54.2114 117.763 54.2114 117.766 54.2114C117.769 54.2114 117.772 54.2114 117.775 54.2114C117.777 54.2114 117.78 54.2114 117.783 54.2114C117.786 54.2114 117.789 54.2114 117.791 54.2114C117.794 54.2114 117.797 54.2114 117.8 54.2114C117.803 54.2114 117.805 54.2114 117.808 54.2114C117.811 54.2114 117.814 54.2114 117.817 54.2114C117.819 54.2114 117.822 54.2114 117.825 54.2114C117.828 54.2114 117.831 54.2114 117.833 54.2114C117.836 54.2114 117.839 54.2114 117.842 54.2114C117.844 54.2114 117.847 54.2114 117.85 54.2114C117.853 54.2114 117.856 54.2114 117.858 54.2114C117.861 54.2114 117.864 54.2114 117.867 54.2114C117.869 54.2114 117.872 54.2114 117.875 54.2114C117.878 54.2114 117.88 54.2114 117.883 54.2114C117.886 54.2114 117.889 54.2114 117.891 54.2114C117.894 54.2114 117.897 54.2114 117.9 54.2114C117.902 54.2114 117.905 54.2114 117.908 54.2114C117.91 54.2114 117.913 54.2114 117.916 54.2114C117.919 54.2114 117.921 54.2114 117.924 54.2114C117.927 54.2114 117.929 54.2114 117.932 54.2114C117.935 54.2114 117.938 54.2114 117.94 54.2114C117.943 54.2114 117.946 54.2114 117.948 54.2114C117.951 54.2114 117.954 54.2114 117.956 54.2114C117.959 54.2114 117.962 54.2114 117.965 54.2114C117.967 54.2114 117.97 54.2114 117.973 54.2114C117.975 54.2114 117.978 54.2114 117.981 54.2114C117.983 54.2114 117.986 54.2114 117.989 54.2114C117.991 54.2114 117.994 54.2114 117.997 54.2114C117.999 54.2114 118.002 54.2114 118.005 54.2114C118.007 54.2114 118.01 54.2114 118.013 54.2114C118.015 54.2114 118.018 54.2114 118.021 54.2114C118.023 54.2114 118.026 54.2114 118.028 54.2114C118.031 54.2114 118.034 54.2114 118.036 54.2114C118.039 54.2114 118.042 54.2114 118.044 54.2114C118.047 54.2114 118.05 54.2114 118.052 54.2114C118.055 54.2114 118.057 54.2114 118.06 54.2114C118.063 54.2114 118.065 54.2114 118.068 54.2114C118.07 54.2114 118.073 54.2114 118.076 54.2114C118.078 54.2114 118.081 54.2114 118.083 54.2114C118.086 54.2114 118.089 54.2114 118.091 54.2114C118.094 54.2114 118.096 54.2114 118.099 54.2114C118.102 54.2114 118.104 54.2114 118.107 54.2114C118.109 54.2114 118.112 54.2114 118.115 54.2114C118.117 54.2114 118.12 54.2114 118.122 54.2114C118.125 54.2114 118.127 54.2114 118.13 54.2114C118.133 54.2114 118.135 54.2114 118.138 54.2114C118.14 54.2114 118.143 54.2114 118.145 54.2114C118.148 54.2114 118.15 54.2114 118.153 54.2114C118.155 54.2114 118.158 54.2114 118.161 54.2114C118.163 54.2114 118.166 54.2114 118.168 54.2114C118.171 54.2114 118.173 54.2114 118.176 54.2114C118.178 54.2114 118.181 54.2114 118.183 54.2114C118.186 54.2114 118.188 54.2114 118.191 54.2114C118.193 54.2114 118.196 54.2114 118.198 54.2114C118.201 54.2114 118.203 54.2114 118.206 54.2114C118.208 54.2114 118.211 54.2114 118.213 54.2114C118.216 54.2114 118.218 54.2114 118.221 54.2114C118.223 54.2114 118.226 54.2114 118.228 54.2114C118.231 54.2114 118.233 54.2114 118.236 54.2114C118.238 54.2114 118.241 54.2114 118.243 54.2114C118.246 54.2114 118.248 54.2114 118.251 54.2114C118.253 54.2114 118.256 54.2114 118.258 54.2114C118.261 54.2114 118.263 54.2114 118.266 54.2114C118.268 54.2114 118.27 54.2114 118.273 54.2114C118.275 54.2114 118.278 54.2114 118.28 54.2114C118.283 54.2114 118.285 54.2114 118.288 54.2114C118.29 54.2114 118.292 54.2114 118.295 54.2114C118.297 54.2114 118.3 54.2114 118.302 54.2114C118.305 54.2114 118.307 54.2114 118.309 54.2114C118.312 54.2114 118.314 54.2114 118.317 54.2114C118.319 54.2114 118.322 54.2114 118.324 54.2114C118.326 54.2114 118.329 54.2114 118.331 54.2114C118.334 54.2114 118.336 54.2114 118.338 54.2114C118.341 54.2114 118.343 54.2114 118.346 54.2114C118.348 54.2114 118.35 54.2114 118.353 54.2114C118.355 54.2114 118.358 54.2114 118.36 54.2114C118.362 54.2114 118.365 54.2114 118.367 54.2114C118.369 54.2114 118.372 54.2114 118.374 54.2114C118.377 54.2114 118.379 54.2114 118.381 54.2114C118.384 54.2114 118.386 54.2114 118.388 54.2114C118.391 54.2114 118.393 54.2114 118.395 54.2114C118.398 54.2114 118.4 54.2114 118.402 54.2114C118.405 54.2114 118.407 54.2114 118.41 54.2114C118.412 54.2114 118.414 54.2114 118.417 54.2114C118.419 54.2114 118.421 54.2114 118.424 54.2114C118.426 54.2114 118.428 54.2114 118.431 54.2114C118.433 54.2114 118.435 54.2114 118.437 54.2114C118.44 54.2114 118.442 54.2114 118.444 54.2114C118.447 54.2114 118.449 54.2114 118.451 54.2114C118.454 54.2114 118.456 54.2114 118.458 54.2114C118.461 54.2114 118.463 54.2114 118.465 54.2114C118.467 54.2114 118.47 54.2114 118.472 54.2114C118.474 54.2114 118.477 54.2114 118.479 54.2114C118.481 54.2114 118.483 54.2114 118.486 54.2114C118.488 54.2114 118.49 54.2114 118.493 54.2114C118.495 54.2114 118.497 54.2114 118.499 54.2114C118.502 54.2114 118.504 54.2114 118.506 54.2114C118.508 54.2114 118.511 54.2114 118.513 54.2114C118.515 54.2114 118.517 54.2114 118.52 54.2114C118.522 54.2114 118.524 54.2114 118.526 54.2114C118.529 54.2114 118.531 54.2114 118.533 54.2114C118.535 54.2114 118.538 54.2114 118.54 54.2114C118.542 54.2114 118.544 54.2114 118.546 54.2114C118.549 54.2114 118.551 54.2114 118.553 54.2114C118.555 54.2114 118.558 54.2114 118.56 54.2114C118.562 54.2114 118.564 54.2114 118.566 54.2114C118.569 54.2114 118.571 54.2114 118.573 54.2114C118.575 54.2114 118.577 54.2114 118.58 54.2114C118.582 54.2114 118.584 54.2114 118.586 54.2114C118.588 54.2114 118.591 54.2114 118.593 54.2114C118.595 54.2114 118.597 54.2114 118.599 54.2114C118.601 54.2114 118.604 54.2114 118.606 54.2114C118.608 54.2114 118.61 54.2114 118.612 54.2114C118.614 54.2114 118.617 54.2114 118.619 54.2114C118.621 54.2114 118.623 54.2114 118.625 54.2114C118.627 54.2114 118.63 54.2114 118.632 54.2114C118.634 54.2114 118.636 54.2114 118.638 54.2114C118.64 54.2114 118.642 54.2114 118.645 54.2114C118.647 54.2114 118.649 54.2114 118.651 54.2114C118.653 54.2114 118.655 54.2114 118.657 54.2114C118.659 54.2114 118.662 54.2114 118.664 54.2114C118.666 54.2114 118.668 54.2114 118.67 54.2114C118.672 54.2114 118.674 54.2114 118.676 54.2114C118.678 54.2114 118.681 54.2114 118.683 54.2114C118.685 54.2114 118.687 54.2114 118.689 54.2114C118.691 54.2114 118.693 54.2114 118.695 54.2114C118.697 54.2114 118.699 54.2114 118.702 54.2114C118.704 54.2114 118.706 54.2114 118.708 54.2114C118.71 54.2114 118.712 54.2114 118.714 54.2114C118.716 54.2114 118.718 54.2114 118.72 54.2114C118.722 54.2114 118.724 54.2114 118.726 54.2114C118.728 54.2114 118.731 54.2114 118.733 54.2114C118.735 54.2114 118.737 54.2114 118.739 54.2114C118.741 54.2114 118.743 54.2114 118.745 54.2114C118.747 54.2114 118.749 54.2114 118.751 54.2114C118.753 54.2114 118.755 54.2114 118.757 54.2114C118.759 54.2114 118.761 54.2114 118.763 54.2114C118.765 54.2114 118.767 54.2114 118.769 54.2114C118.771 54.2114 118.773 54.2114 118.775 54.2114C118.777 54.2114 118.779 54.2114 118.781 54.2114C118.783 54.2114 118.785 54.2114 118.787 54.2114C118.789 54.2114 118.791 54.2114 118.793 54.2114C118.795 54.2114 118.797 54.2114 118.799 54.2114C118.801 54.2114 118.803 54.2114 118.805 54.2114C118.807 54.2114 118.809 54.2114 118.811 54.2114C118.813 54.2114 118.815 54.2114 118.817 54.2114C118.819 54.2114 118.821 54.2114 118.823 54.2114C118.825 54.2114 118.827 54.2114 118.829 54.2114C118.831 54.2114 118.833 54.2114 118.835 54.2114C118.837 54.2114 118.839 54.2114 118.841 54.2114C118.843 54.2114 118.845 54.2114 118.846 54.2114C118.848 54.2114 118.85 54.2114 118.852 54.2114C118.854 54.2114 118.856 54.2114 118.858 54.2114C118.86 54.2114 118.862 54.2114 118.864 54.2114C118.866 54.2114 118.868 54.2114 118.87 54.2114C118.872 54.2114 118.873 54.2114 118.875 54.2114C118.877 54.2114 118.879 54.2114 118.881 54.2114C118.883 54.2114 118.885 54.2114 118.887 54.2114C118.889 54.2114 118.891 54.2114 118.893 54.2114C118.894 54.2114 118.896 54.2114 118.898 54.2114C118.9 54.2114 118.902 54.2114 118.904 54.2114C118.906 54.2114 118.908 54.2114 118.909 54.2114C118.911 54.2114 118.913 54.2114 118.915 54.2114C118.917 54.2114 118.919 54.2114 118.921 54.2114C118.923 54.2114 118.924 54.2114 118.926 54.2114C118.928 54.2114 118.93 54.2114 118.932 54.2114C118.934 54.2114 118.936 54.2114 118.937 54.2114C118.939 54.2114 118.941 54.2114 118.943 54.2114C118.945 54.2114 118.947 54.2114 118.949 54.2114C118.95 54.2114 118.952 54.2114 118.954 54.2114C118.956 54.2114 118.958 54.2114 118.959 54.2114C118.961 54.2114 118.963 54.2114 118.965 54.2114C118.967 54.2114 118.969 54.2114 118.97 54.2114C118.972 54.2114 118.974 54.2114 118.976 54.2114C118.978 54.2114 118.979 54.2114 118.981 54.2114C118.983 54.2114 118.985 54.2114 118.987 54.2114C118.988 54.2114 118.99 54.2114 118.992 54.2114C118.994 54.2114 118.996 54.2114 118.997 54.2114C118.999 54.2114 119.001 54.2114 119.003 54.2114C119.005 54.2114 119.006 54.2114 119.008 54.2114C119.01 54.2114 119.012 54.2114 119.013 54.2114C119.015 54.2114 119.017 54.2114 119.019 54.2114C119.02 54.2114 119.022 54.2114 119.024 54.2114C119.026 54.2114 119.027 54.2114 119.029 54.2114C119.031 54.2114 119.033 54.2114 119.034 54.2114C119.036 54.2114 119.038 54.2114 119.04 54.2114C119.041 54.2114 119.043 54.2114 119.045 54.2114C119.047 54.2114 119.048 54.2114 119.05 54.2114C119.052 54.2114 119.053 54.2114 119.055 54.2114C119.057 54.2114 119.059 54.2114 119.06 54.2114C119.062 54.2114 119.064 54.2114 119.065 54.2114C119.067 54.2114 119.069 54.2114 119.071 54.2114C119.072 54.2114 119.074 54.2114 119.076 54.2114C119.077 54.2114 119.079 54.2114 119.081 54.2114C119.082 54.2114 119.084 54.2114 119.086 54.2114C119.088 54.2114 119.089 54.2114 119.091 54.2114C119.093 54.2114 119.094 54.2114 119.096 54.2114C119.098 54.2114 119.099 54.2114 119.101 54.2114C119.103 54.2114 119.104 54.2114 119.106 54.2114C119.108 54.2114 119.109 54.2114 119.111 54.2114C119.113 54.2114 119.114 54.2114 119.116 54.2114C119.118 54.2114 119.119 54.2114 119.121 54.2114C119.122 54.2114 119.124 54.2114 119.126 54.2114C119.127 54.2114 119.129 54.2114 119.131 54.2114C119.132 54.2114 119.134 54.2114 119.136 54.2114C119.137 54.2114 119.139 54.2114 119.14 54.2114C119.142 54.2114 119.144 54.2114 119.145 54.2114C119.147 54.2114 119.148 54.2114 119.15 54.2114C119.152 54.2114 119.153 54.2114 119.155 54.2114C119.156 54.2114 119.158 54.2114 119.16 54.2114C119.161 54.2114 119.163 54.2114 119.164 54.2114C119.166 54.2114 119.168 54.2114 119.169 54.2114C119.171 54.2114 119.172 54.2114 119.174 54.2114C119.176 54.2114 119.177 54.2114 119.179 54.2114C119.18 54.2114 119.182 54.2114 119.183 54.2114C119.185 54.2114 119.187 54.2114 119.188 54.2114C119.19 54.2114 119.191 54.2114 119.193 54.2114C119.194 54.2114 119.196 54.2114 119.197 54.2114C119.199 54.2114 119.201 54.2114 119.202 54.2114C119.204 54.2114 119.205 54.2114 119.207 54.2114C119.208 54.2114 119.21 54.2114 119.211 54.2114C119.213 54.2114 119.214 54.2114 119.216 54.2114C119.217 54.2114 119.219 54.2114 119.22 54.2114C119.222 54.2114 119.224 54.2114 119.225 54.2114C119.227 54.2114 119.228 54.2114 119.23 54.2114C119.231 54.2114 119.233 54.2114 119.234 54.2114C119.236 54.2114 119.237 54.2114 119.239 54.2114C119.24 54.2114 119.242 54.2114 119.243 54.2114C119.245 54.2114 119.246 54.2114 119.248 54.2114C119.249 54.2114 119.25 54.2114 119.252 54.2114C119.253 54.2114 119.255 54.2114 119.256 54.2114C119.258 54.2114 119.259 54.2114 119.261 54.2114C119.262 54.2114 119.264 54.2114 119.265 54.2114C119.267 54.2114 119.268 54.2114 119.27 54.2114C119.271 54.2114 119.272 54.2114 119.274 54.2114C119.275 54.2114 119.277 54.2114 119.278 54.2114C119.28 54.2114 119.281 54.2114 119.283 54.2114C119.284 54.2114 119.285 54.2114 119.287 54.2114C119.288 54.2114 119.29 54.2114 119.291 54.2114C119.293 54.2114 119.294 54.2114 119.295 54.2114C119.297 54.2114 119.298 54.2114 119.3 54.2114C119.301 54.2114 119.303 54.2114 119.304 54.2114C119.305 54.2114 119.307 54.2114 119.308 54.2114C119.31 54.2114 119.311 54.2114 119.312 54.2114C119.314 54.2114 119.315 54.2114 119.317 54.2114C119.318 54.2114 119.319 54.2114 119.321 54.2114C119.322 54.2114 119.323 54.2114 119.325 54.2114C119.326 54.2114 119.328 54.2114 119.329 54.2114C119.33 54.2114 119.332 54.2114 119.333 54.2114C119.334 54.2114 119.336 54.2114 119.337 54.2114C119.339 54.2114 119.34 54.2114 119.341 54.2114C119.343 54.2114 119.344 54.2114 119.345 54.2114C119.347 54.2114 119.348 54.2114 119.349 54.2114C119.351 54.2114 119.352 54.2114 119.353 54.2114C119.355 54.2114 119.356 54.2114 119.357 54.2114C119.359 54.2114 119.36 54.2114 119.361 54.2114C119.363 54.2114 119.364 54.2114 119.365 54.2114C119.367 54.2114 119.368 54.2114 119.369 54.2114C119.371 54.2114 119.372 54.2114 119.373 54.2114C119.375 54.2114 119.376 54.2114 119.377 54.2114C119.379 54.2114 119.38 54.2114 119.381 54.2114C119.382 54.2114 119.384 54.2114 119.385 54.2114C119.386 54.2114 119.388 54.2114 119.389 54.2114C119.39 54.2114 119.391 54.2114 119.393 54.2114C119.394 54.2114 119.395 54.2114 119.397 54.2114C119.398 54.2114 119.399 54.2114 119.4 54.2114C119.402 54.2114 119.403 54.2114 119.404 54.2114C119.405 54.2114 119.407 54.2114 119.408 54.2114C119.409 54.2114 119.41 54.2114 119.412 54.2114C119.413 54.2114 119.414 54.2114 119.415 54.2114C119.417 54.2114 119.418 54.2114 119.419 54.2114C119.42 54.2114 119.422 54.2114 119.423 54.2114C119.424 54.2114 119.425 54.2114 119.427 54.2114C119.428 54.2114 119.429 54.2114 119.43 54.2114C119.431 54.2114 119.433 54.2114 119.434 54.2114C119.435 54.2114 119.436 54.2114 119.438 54.2114C119.439 54.2114 119.44 54.2114 119.441 54.2114C119.442 54.2114 119.444 54.2114 119.445 54.2114C119.446 54.2114 119.447 54.2114 119.448 54.2114C119.45 54.2114 119.451 54.2114 119.452 54.2114C119.453 54.2114 119.454 54.2114 119.455 54.2114C119.457 54.2114 119.458 54.2114 119.459 54.2114C119.46 54.2114 119.461 54.2114 119.463 54.2114C119.464 54.2114 119.465 54.2114 119.466 54.2114C119.467 54.2114 119.468 54.2114 119.469 54.2114C119.471 54.2114 119.472 54.2114 119.473 54.2114C119.474 54.2114 119.475 54.2114 119.476 54.2114C119.478 54.2114 119.479 54.2114 119.48 54.2114C119.481 54.2114 119.482 54.2114 119.483 54.2114C119.484 54.2114 119.485 54.2114 119.487 54.2114C119.488 54.2114 119.489 54.2114 119.49 54.2114C119.491 54.2114 119.492 54.2114 119.493 54.2114C119.494 54.2114 119.496 54.2114 119.497 54.2114C119.498 54.2114 119.499 54.2114 119.5 54.2114C119.501 54.2114 119.502 54.2114 119.503 54.2114C119.504 54.2114 119.506 54.2114 119.507 54.2114C119.508 54.2114 119.509 54.2114 119.51 54.2114C119.511 54.2114 119.512 54.2114 119.513 54.2114C119.514 54.2114 119.515 54.2114 119.516 54.2114C119.517 54.2114 119.519 54.2114 119.52 54.2114C119.521 54.2114 119.522 54.2114 119.523 54.2114C119.524 54.2114 119.525 54.2114 119.526 54.2114C119.527 54.2114 119.528 54.2114 119.529 54.2114C119.53 54.2114 119.531 54.2114 119.532 54.2114C119.533 54.2114 119.534 54.2114 119.535 54.2114C119.536 54.2114 119.537 54.2114 119.539 54.2114C119.54 54.2114 119.541 54.2114 119.542 54.2114C119.543 54.2114 119.544 54.2114 119.545 54.2114C119.546 54.2114 119.547 54.2114 119.548 54.2114C119.549 54.2114 119.55 54.2114 119.551 54.2114C119.552 54.2114 119.553 54.2114 119.554 54.2114C119.555 54.2114 119.556 54.2114 119.557 54.2114C119.558 54.2114 119.559 54.2114 119.56 54.2114C119.561 54.2114 119.562 54.2114 119.563 54.2114C119.564 54.2114 119.565 54.2114 119.566 54.2114C119.567 54.2114 119.568 54.2114 119.569 54.2114C119.57 54.2114 119.571 54.2114 119.572 54.2114C119.573 54.2114 119.573 54.2114 119.574 54.2114C119.575 54.2114 119.576 54.2114 119.577 54.2114C119.578 54.2114 119.579 54.2114 119.58 54.2114C119.581 54.2114 119.582 54.2114 119.583 54.2114C119.584 54.2114 119.585 54.2114 119.586 54.2114C119.587 54.2114 119.588 54.2114 119.589 54.2114C119.59 54.2114 119.591 54.2114 119.591 54.2114C119.592 54.2114 119.593 54.2114 119.594 54.2114C119.595 54.2114 119.596 54.2114 119.597 54.2114C119.598 54.2114 119.599 54.2114 119.6 54.2114C119.601 54.2114 119.602 54.2114 119.602 54.2114C119.603 54.2114 119.604 54.2114 119.605 54.2114C119.606 54.2114 119.607 54.2114 119.608 54.2114C119.609 54.2114 119.61 54.2114 119.611 54.2114C119.611 54.2114 119.612 54.2114 119.613 54.2114C119.614 54.2114 119.615 54.2114 119.616 54.2114C119.617 54.2114 119.618 54.2114 119.618 54.2114C119.619 54.2114 119.62 54.2114 119.621 54.2114C119.622 54.2114 119.623 54.2114 119.624 54.2114C119.625 54.2114 119.625 54.2114 119.626 54.2114C119.627 54.2114 119.628 54.2114 119.629 54.2114C119.63 54.2114 119.63 54.2114 119.631 54.2114C119.632 54.2114 119.633 54.2114 119.634 54.2114C119.635 54.2114 119.635 54.2114 119.636 54.2114C119.637 54.2114 119.638 54.2114 119.639 54.2114C119.64 54.2114 119.64 54.2114 119.641 54.2114C119.642 54.2114 119.643 54.2114 119.644 54.2114C119.645 54.2114 119.645 54.2114 119.646 54.2114C119.647 54.2114 119.648 54.2114 119.649 54.2114C119.649 54.2114 119.65 54.2114 119.651 54.2114C119.652 54.2114 119.652 54.2114 119.653 54.2114C119.654 54.2114 119.655 54.2114 119.656 54.2114C119.656 54.2114 119.657 54.2114 119.658 54.2114C119.659 54.2114 119.66 54.2114 119.66 54.2114C119.661 54.2114 119.662 54.2114 119.663 54.2114C119.663 54.2114 119.664 54.2114 119.665 54.2114C119.666 54.2114 119.666 54.2114 119.667 54.2114C119.668 54.2114 119.669 54.2114 119.669 54.2114C119.67 54.2114 119.671 54.2114 119.672 54.2114C119.672 54.2114 119.673 54.2114 119.674 54.2114C119.675 54.2114 119.675 54.2114 119.676 54.2114C119.677 54.2114 119.677 54.2114 119.678 54.2114C119.679 54.2114 119.68 54.2114 119.68 54.2114C119.681 54.2114 119.682 54.2114 119.683 54.2114C119.683 54.2114 119.684 54.2114 119.685 54.2114C119.685 54.2114 119.686 54.2114 119.687 54.2114C119.687 54.2114 119.688 54.2114 119.689 54.2114C119.69 54.2114 119.69 54.2114 119.691 54.2114C119.692 54.2114 119.692 54.2114 119.693 54.2114C119.694 54.2114 119.694 54.2114 119.695 54.2114C119.696 54.2114 119.696 54.2114 119.697 54.2114C119.698 54.2114 119.698 54.2114 119.699 54.2114C119.7 54.2114 119.7 54.2114 119.701 54.2114C119.702 54.2114 119.702 54.2114 119.703 54.2114C119.704 54.2114 119.704 54.2114 119.705 54.2114C119.706 54.2114 119.706 54.2114 119.707 54.2114C119.708 54.2114 119.708 54.2114 119.709 54.2114C119.709 54.2114 119.71 54.2114 119.711 54.2114C119.711 54.2114 119.712 54.2114 119.713 54.2114C119.713 54.2114 119.714 54.2114 119.714 54.2114C119.715 54.2114 119.716 54.2114 119.716 54.2114C119.717 54.2114 119.718 54.2114 119.718 54.2114C119.719 54.2114 119.719 54.2114 119.72 54.2114C119.721 54.2114 119.721 54.2114 119.722 54.2114C119.722 54.2114 119.723 54.2114 119.723 54.2114C119.724 54.2114 119.725 54.2114 119.725 54.2114C119.726 54.2114 119.726 54.2114 119.727 54.2114C119.728 54.2114 119.728 54.2114 119.729 54.2114C119.729 54.2114 119.73 54.2114 119.73 54.2114C119.731 54.2114 119.732 54.2114 119.732 54.2114C119.733 54.2114 119.733 54.2114 119.734 54.2114C119.734 54.2114 119.735 54.2114 119.735 54.2114C119.736 54.2114 119.737 54.2114 119.737 54.2114C119.738 54.2114 119.738 54.2114 119.739 54.2114C119.739 54.2114 119.74 54.2114 119.74 54.2114C119.741 54.2114 119.741 54.2114 119.742 54.2114C119.742 54.2114 119.743 54.2114 119.743 54.2114C119.744 54.2114 119.744 54.2114 119.745 54.2114C119.745 54.2114 119.746 54.2114 119.746 54.2114C119.747 54.2114 119.747 54.2114 119.748 54.2114C119.748 54.2114 119.749 54.2114 119.749 54.2114C119.75 54.2114 119.75 54.2114 119.751 54.2114C119.751 54.2114 119.752 54.2114 119.752 54.2114C119.753 54.2114 119.753 54.2114 119.754 54.2114C119.754 54.2114 119.755 54.2114 119.755 54.2114C119.756 54.2114 119.756 54.2114 119.757 54.2114C119.757 54.2114 119.758 54.2114 119.758 54.2114C119.759 54.2114 119.759 54.2114 119.759 54.2114C119.76 54.2114 119.76 54.2114 119.761 54.2114C119.761 54.2114 119.762 54.2114 119.762 54.2114C119.763 54.2114 119.763 54.2114 119.763 54.2114C119.764 54.2114 119.764 54.2114 119.765 54.2114C119.765 54.2114 119.766 54.2114 119.766 54.2114C119.766 54.2114 119.767 54.2114 119.767 54.2114C119.768 54.2114 119.768 54.2114 119.769 54.2114C119.769 54.2114 119.769 54.2114 119.77 54.2114V52.2114C119.769 52.2114 119.769 52.2114 119.769 52.2114C119.768 52.2114 119.768 52.2114 119.767 52.2114C119.767 52.2114 119.766 52.2114 119.766 52.2114C119.766 52.2114 119.765 52.2114 119.765 52.2114C119.764 52.2114 119.764 52.2114 119.763 52.2114C119.763 52.2114 119.763 52.2114 119.762 52.2114C119.762 52.2114 119.761 52.2114 119.761 52.2114C119.76 52.2114 119.76 52.2114 119.759 52.2114C119.759 52.2114 119.759 52.2114 119.758 52.2114C119.758 52.2114 119.757 52.2114 119.757 52.2114C119.756 52.2114 119.756 52.2114 119.755 52.2114C119.755 52.2114 119.754 52.2114 119.754 52.2114C119.753 52.2114 119.753 52.2114 119.752 52.2114C119.752 52.2114 119.751 52.2114 119.751 52.2114C119.75 52.2114 119.75 52.2114 119.749 52.2114C119.749 52.2114 119.748 52.2114 119.748 52.2114C119.747 52.2114 119.747 52.2114 119.746 52.2114C119.746 52.2114 119.745 52.2114 119.745 52.2114C119.744 52.2114 119.744 52.2114 119.743 52.2114C119.743 52.2114 119.742 52.2114 119.742 52.2114C119.741 52.2114 119.741 52.2114 119.74 52.2114C119.74 52.2114 119.739 52.2114 119.739 52.2114C119.738 52.2114 119.738 52.2114 119.737 52.2114C119.737 52.2114 119.736 52.2114 119.735 52.2114C119.735 52.2114 119.734 52.2114 119.734 52.2114C119.733 52.2114 119.733 52.2114 119.732 52.2114C119.732 52.2114 119.731 52.2114 119.73 52.2114C119.73 52.2114 119.729 52.2114 119.729 52.2114C119.728 52.2114 119.728 52.2114 119.727 52.2114C119.726 52.2114 119.726 52.2114 119.725 52.2114C119.725 52.2114 119.724 52.2114 119.723 52.2114C119.723 52.2114 119.722 52.2114 119.722 52.2114C119.721 52.2114 119.721 52.2114 119.72 52.2114C119.719 52.2114 119.719 52.2114 119.718 52.2114C119.718 52.2114 119.717 52.2114 119.716 52.2114C119.716 52.2114 119.715 52.2114 119.714 52.2114C119.714 52.2114 119.713 52.2114 119.713 52.2114C119.712 52.2114 119.711 52.2114 119.711 52.2114C119.71 52.2114 119.709 52.2114 119.709 52.2114C119.708 52.2114 119.708 52.2114 119.707 52.2114C119.706 52.2114 119.706 52.2114 119.705 52.2114C119.704 52.2114 119.704 52.2114 119.703 52.2114C119.702 52.2114 119.702 52.2114 119.701 52.2114C119.7 52.2114 119.7 52.2114 119.699 52.2114C119.698 52.2114 119.698 52.2114 119.697 52.2114C119.696 52.2114 119.696 52.2114 119.695 52.2114C119.694 52.2114 119.694 52.2114 119.693 52.2114C119.692 52.2114 119.692 52.2114 119.691 52.2114C119.69 52.2114 119.69 52.2114 119.689 52.2114C119.688 52.2114 119.687 52.2114 119.687 52.2114C119.686 52.2114 119.685 52.2114 119.685 52.2114C119.684 52.2114 119.683 52.2114 119.683 52.2114C119.682 52.2114 119.681 52.2114 119.68 52.2114C119.68 52.2114 119.679 52.2114 119.678 52.2114C119.677 52.2114 119.677 52.2114 119.676 52.2114C119.675 52.2114 119.675 52.2114 119.674 52.2114C119.673 52.2114 119.672 52.2114 119.672 52.2114C119.671 52.2114 119.67 52.2114 119.669 52.2114C119.669 52.2114 119.668 52.2114 119.667 52.2114C119.666 52.2114 119.666 52.2114 119.665 52.2114C119.664 52.2114 119.663 52.2114 119.663 52.2114C119.662 52.2114 119.661 52.2114 119.66 52.2114C119.66 52.2114 119.659 52.2114 119.658 52.2114C119.657 52.2114 119.656 52.2114 119.656 52.2114C119.655 52.2114 119.654 52.2114 119.653 52.2114C119.652 52.2114 119.652 52.2114 119.651 52.2114C119.65 52.2114 119.649 52.2114 119.649 52.2114C119.648 52.2114 119.647 52.2114 119.646 52.2114C119.645 52.2114 119.645 52.2114 119.644 52.2114C119.643 52.2114 119.642 52.2114 119.641 52.2114C119.64 52.2114 119.64 52.2114 119.639 52.2114C119.638 52.2114 119.637 52.2114 119.636 52.2114C119.635 52.2114 119.635 52.2114 119.634 52.2114C119.633 52.2114 119.632 52.2114 119.631 52.2114C119.63 52.2114 119.63 52.2114 119.629 52.2114C119.628 52.2114 119.627 52.2114 119.626 52.2114C119.625 52.2114 119.625 52.2114 119.624 52.2114C119.623 52.2114 119.622 52.2114 119.621 52.2114C119.62 52.2114 119.619 52.2114 119.618 52.2114C119.618 52.2114 119.617 52.2114 119.616 52.2114C119.615 52.2114 119.614 52.2114 119.613 52.2114C119.612 52.2114 119.611 52.2114 119.611 52.2114C119.61 52.2114 119.609 52.2114 119.608 52.2114C119.607 52.2114 119.606 52.2114 119.605 52.2114C119.604 52.2114 119.603 52.2114 119.602 52.2114C119.602 52.2114 119.601 52.2114 119.6 52.2114C119.599 52.2114 119.598 52.2114 119.597 52.2114C119.596 52.2114 119.595 52.2114 119.594 52.2114C119.593 52.2114 119.592 52.2114 119.591 52.2114C119.591 52.2114 119.59 52.2114 119.589 52.2114C119.588 52.2114 119.587 52.2114 119.586 52.2114C119.585 52.2114 119.584 52.2114 119.583 52.2114C119.582 52.2114 119.581 52.2114 119.58 52.2114C119.579 52.2114 119.578 52.2114 119.577 52.2114C119.576 52.2114 119.575 52.2114 119.574 52.2114C119.573 52.2114 119.573 52.2114 119.572 52.2114C119.571 52.2114 119.57 52.2114 119.569 52.2114C119.568 52.2114 119.567 52.2114 119.566 52.2114C119.565 52.2114 119.564 52.2114 119.563 52.2114C119.562 52.2114 119.561 52.2114 119.56 52.2114C119.559 52.2114 119.558 52.2114 119.557 52.2114C119.556 52.2114 119.555 52.2114 119.554 52.2114C119.553 52.2114 119.552 52.2114 119.551 52.2114C119.55 52.2114 119.549 52.2114 119.548 52.2114C119.547 52.2114 119.546 52.2114 119.545 52.2114C119.544 52.2114 119.543 52.2114 119.542 52.2114C119.541 52.2114 119.54 52.2114 119.539 52.2114C119.537 52.2114 119.536 52.2114 119.535 52.2114C119.534 52.2114 119.533 52.2114 119.532 52.2114C119.531 52.2114 119.53 52.2114 119.529 52.2114C119.528 52.2114 119.527 52.2114 119.526 52.2114C119.525 52.2114 119.524 52.2114 119.523 52.2114C119.522 52.2114 119.521 52.2114 119.52 52.2114C119.519 52.2114 119.517 52.2114 119.516 52.2114C119.515 52.2114 119.514 52.2114 119.513 52.2114C119.512 52.2114 119.511 52.2114 119.51 52.2114C119.509 52.2114 119.508 52.2114 119.507 52.2114C119.506 52.2114 119.504 52.2114 119.503 52.2114C119.502 52.2114 119.501 52.2114 119.5 52.2114C119.499 52.2114 119.498 52.2114 119.497 52.2114C119.496 52.2114 119.494 52.2114 119.493 52.2114C119.492 52.2114 119.491 52.2114 119.49 52.2114C119.489 52.2114 119.488 52.2114 119.487 52.2114C119.485 52.2114 119.484 52.2114 119.483 52.2114C119.482 52.2114 119.481 52.2114 119.48 52.2114C119.479 52.2114 119.478 52.2114 119.476 52.2114C119.475 52.2114 119.474 52.2114 119.473 52.2114C119.472 52.2114 119.471 52.2114 119.469 52.2114C119.468 52.2114 119.467 52.2114 119.466 52.2114C119.465 52.2114 119.464 52.2114 119.463 52.2114C119.461 52.2114 119.46 52.2114 119.459 52.2114C119.458 52.2114 119.457 52.2114 119.455 52.2114C119.454 52.2114 119.453 52.2114 119.452 52.2114C119.451 52.2114 119.45 52.2114 119.448 52.2114C119.447 52.2114 119.446 52.2114 119.445 52.2114C119.444 52.2114 119.442 52.2114 119.441 52.2114C119.44 52.2114 119.439 52.2114 119.438 52.2114C119.436 52.2114 119.435 52.2114 119.434 52.2114C119.433 52.2114 119.431 52.2114 119.43 52.2114C119.429 52.2114 119.428 52.2114 119.427 52.2114C119.425 52.2114 119.424 52.2114 119.423 52.2114C119.422 52.2114 119.42 52.2114 119.419 52.2114C119.418 52.2114 119.417 52.2114 119.415 52.2114C119.414 52.2114 119.413 52.2114 119.412 52.2114C119.41 52.2114 119.409 52.2114 119.408 52.2114C119.407 52.2114 119.405 52.2114 119.404 52.2114C119.403 52.2114 119.402 52.2114 119.4 52.2114C119.399 52.2114 119.398 52.2114 119.397 52.2114C119.395 52.2114 119.394 52.2114 119.393 52.2114C119.391 52.2114 119.39 52.2114 119.389 52.2114C119.388 52.2114 119.386 52.2114 119.385 52.2114C119.384 52.2114 119.382 52.2114 119.381 52.2114C119.38 52.2114 119.379 52.2114 119.377 52.2114C119.376 52.2114 119.375 52.2114 119.373 52.2114C119.372 52.2114 119.371 52.2114 119.369 52.2114C119.368 52.2114 119.367 52.2114 119.365 52.2114C119.364 52.2114 119.363 52.2114 119.361 52.2114C119.36 52.2114 119.359 52.2114 119.357 52.2114C119.356 52.2114 119.355 52.2114 119.353 52.2114C119.352 52.2114 119.351 52.2114 119.349 52.2114C119.348 52.2114 119.347 52.2114 119.345 52.2114C119.344 52.2114 119.343 52.2114 119.341 52.2114C119.34 52.2114 119.339 52.2114 119.337 52.2114C119.336 52.2114 119.334 52.2114 119.333 52.2114C119.332 52.2114 119.33 52.2114 119.329 52.2114C119.328 52.2114 119.326 52.2114 119.325 52.2114C119.323 52.2114 119.322 52.2114 119.321 52.2114C119.319 52.2114 119.318 52.2114 119.317 52.2114C119.315 52.2114 119.314 52.2114 119.312 52.2114C119.311 52.2114 119.31 52.2114 119.308 52.2114C119.307 52.2114 119.305 52.2114 119.304 52.2114C119.303 52.2114 119.301 52.2114 119.3 52.2114C119.298 52.2114 119.297 52.2114 119.295 52.2114C119.294 52.2114 119.293 52.2114 119.291 52.2114C119.29 52.2114 119.288 52.2114 119.287 52.2114C119.285 52.2114 119.284 52.2114 119.283 52.2114C119.281 52.2114 119.28 52.2114 119.278 52.2114C119.277 52.2114 119.275 52.2114 119.274 52.2114C119.272 52.2114 119.271 52.2114 119.27 52.2114C119.268 52.2114 119.267 52.2114 119.265 52.2114C119.264 52.2114 119.262 52.2114 119.261 52.2114C119.259 52.2114 119.258 52.2114 119.256 52.2114C119.255 52.2114 119.253 52.2114 119.252 52.2114C119.25 52.2114 119.249 52.2114 119.248 52.2114C119.246 52.2114 119.245 52.2114 119.243 52.2114C119.242 52.2114 119.24 52.2114 119.239 52.2114C119.237 52.2114 119.236 52.2114 119.234 52.2114C119.233 52.2114 119.231 52.2114 119.23 52.2114C119.228 52.2114 119.227 52.2114 119.225 52.2114C119.224 52.2114 119.222 52.2114 119.22 52.2114C119.219 52.2114 119.217 52.2114 119.216 52.2114C119.214 52.2114 119.213 52.2114 119.211 52.2114C119.21 52.2114 119.208 52.2114 119.207 52.2114C119.205 52.2114 119.204 52.2114 119.202 52.2114C119.201 52.2114 119.199 52.2114 119.197 52.2114C119.196 52.2114 119.194 52.2114 119.193 52.2114C119.191 52.2114 119.19 52.2114 119.188 52.2114C119.187 52.2114 119.185 52.2114 119.183 52.2114C119.182 52.2114 119.18 52.2114 119.179 52.2114C119.177 52.2114 119.176 52.2114 119.174 52.2114C119.172 52.2114 119.171 52.2114 119.169 52.2114C119.168 52.2114 119.166 52.2114 119.164 52.2114C119.163 52.2114 119.161 52.2114 119.16 52.2114C119.158 52.2114 119.156 52.2114 119.155 52.2114C119.153 52.2114 119.152 52.2114 119.15 52.2114C119.148 52.2114 119.147 52.2114 119.145 52.2114C119.144 52.2114 119.142 52.2114 119.14 52.2114C119.139 52.2114 119.137 52.2114 119.136 52.2114C119.134 52.2114 119.132 52.2114 119.131 52.2114C119.129 52.2114 119.127 52.2114 119.126 52.2114C119.124 52.2114 119.122 52.2114 119.121 52.2114C119.119 52.2114 119.118 52.2114 119.116 52.2114C119.114 52.2114 119.113 52.2114 119.111 52.2114C119.109 52.2114 119.108 52.2114 119.106 52.2114C119.104 52.2114 119.103 52.2114 119.101 52.2114C119.099 52.2114 119.098 52.2114 119.096 52.2114C119.094 52.2114 119.093 52.2114 119.091 52.2114C119.089 52.2114 119.088 52.2114 119.086 52.2114C119.084 52.2114 119.082 52.2114 119.081 52.2114C119.079 52.2114 119.077 52.2114 119.076 52.2114C119.074 52.2114 119.072 52.2114 119.071 52.2114C119.069 52.2114 119.067 52.2114 119.065 52.2114C119.064 52.2114 119.062 52.2114 119.06 52.2114C119.059 52.2114 119.057 52.2114 119.055 52.2114C119.053 52.2114 119.052 52.2114 119.05 52.2114C119.048 52.2114 119.047 52.2114 119.045 52.2114C119.043 52.2114 119.041 52.2114 119.04 52.2114C119.038 52.2114 119.036 52.2114 119.034 52.2114C119.033 52.2114 119.031 52.2114 119.029 52.2114C119.027 52.2114 119.026 52.2114 119.024 52.2114C119.022 52.2114 119.02 52.2114 119.019 52.2114C119.017 52.2114 119.015 52.2114 119.013 52.2114C119.012 52.2114 119.01 52.2114 119.008 52.2114C119.006 52.2114 119.005 52.2114 119.003 52.2114C119.001 52.2114 118.999 52.2114 118.997 52.2114C118.996 52.2114 118.994 52.2114 118.992 52.2114C118.99 52.2114 118.988 52.2114 118.987 52.2114C118.985 52.2114 118.983 52.2114 118.981 52.2114C118.979 52.2114 118.978 52.2114 118.976 52.2114C118.974 52.2114 118.972 52.2114 118.97 52.2114C118.969 52.2114 118.967 52.2114 118.965 52.2114C118.963 52.2114 118.961 52.2114 118.959 52.2114C118.958 52.2114 118.956 52.2114 118.954 52.2114C118.952 52.2114 118.95 52.2114 118.949 52.2114C118.947 52.2114 118.945 52.2114 118.943 52.2114C118.941 52.2114 118.939 52.2114 118.937 52.2114C118.936 52.2114 118.934 52.2114 118.932 52.2114C118.93 52.2114 118.928 52.2114 118.926 52.2114C118.924 52.2114 118.923 52.2114 118.921 52.2114C118.919 52.2114 118.917 52.2114 118.915 52.2114C118.913 52.2114 118.911 52.2114 118.909 52.2114C118.908 52.2114 118.906 52.2114 118.904 52.2114C118.902 52.2114 118.9 52.2114 118.898 52.2114C118.896 52.2114 118.894 52.2114 118.893 52.2114C118.891 52.2114 118.889 52.2114 118.887 52.2114C118.885 52.2114 118.883 52.2114 118.881 52.2114C118.879 52.2114 118.877 52.2114 118.875 52.2114C118.873 52.2114 118.872 52.2114 118.87 52.2114C118.868 52.2114 118.866 52.2114 118.864 52.2114C118.862 52.2114 118.86 52.2114 118.858 52.2114C118.856 52.2114 118.854 52.2114 118.852 52.2114C118.85 52.2114 118.848 52.2114 118.846 52.2114C118.845 52.2114 118.843 52.2114 118.841 52.2114C118.839 52.2114 118.837 52.2114 118.835 52.2114C118.833 52.2114 118.831 52.2114 118.829 52.2114C118.827 52.2114 118.825 52.2114 118.823 52.2114C118.821 52.2114 118.819 52.2114 118.817 52.2114C118.815 52.2114 118.813 52.2114 118.811 52.2114C118.809 52.2114 118.807 52.2114 118.805 52.2114C118.803 52.2114 118.801 52.2114 118.799 52.2114C118.797 52.2114 118.795 52.2114 118.793 52.2114C118.791 52.2114 118.789 52.2114 118.787 52.2114C118.785 52.2114 118.783 52.2114 118.781 52.2114C118.779 52.2114 118.777 52.2114 118.775 52.2114C118.773 52.2114 118.771 52.2114 118.769 52.2114C118.767 52.2114 118.765 52.2114 118.763 52.2114C118.761 52.2114 118.759 52.2114 118.757 52.2114C118.755 52.2114 118.753 52.2114 118.751 52.2114C118.749 52.2114 118.747 52.2114 118.745 52.2114C118.743 52.2114 118.741 52.2114 118.739 52.2114C118.737 52.2114 118.735 52.2114 118.733 52.2114C118.731 52.2114 118.728 52.2114 118.726 52.2114C118.724 52.2114 118.722 52.2114 118.72 52.2114C118.718 52.2114 118.716 52.2114 118.714 52.2114C118.712 52.2114 118.71 52.2114 118.708 52.2114C118.706 52.2114 118.704 52.2114 118.702 52.2114C118.699 52.2114 118.697 52.2114 118.695 52.2114C118.693 52.2114 118.691 52.2114 118.689 52.2114C118.687 52.2114 118.685 52.2114 118.683 52.2114C118.681 52.2114 118.678 52.2114 118.676 52.2114C118.674 52.2114 118.672 52.2114 118.67 52.2114C118.668 52.2114 118.666 52.2114 118.664 52.2114C118.662 52.2114 118.659 52.2114 118.657 52.2114C118.655 52.2114 118.653 52.2114 118.651 52.2114C118.649 52.2114 118.647 52.2114 118.645 52.2114C118.642 52.2114 118.64 52.2114 118.638 52.2114C118.636 52.2114 118.634 52.2114 118.632 52.2114C118.63 52.2114 118.627 52.2114 118.625 52.2114C118.623 52.2114 118.621 52.2114 118.619 52.2114C118.617 52.2114 118.614 52.2114 118.612 52.2114C118.61 52.2114 118.608 52.2114 118.606 52.2114C118.604 52.2114 118.601 52.2114 118.599 52.2114C118.597 52.2114 118.595 52.2114 118.593 52.2114C118.591 52.2114 118.588 52.2114 118.586 52.2114C118.584 52.2114 118.582 52.2114 118.58 52.2114C118.577 52.2114 118.575 52.2114 118.573 52.2114C118.571 52.2114 118.569 52.2114 118.566 52.2114C118.564 52.2114 118.562 52.2114 118.56 52.2114C118.558 52.2114 118.555 52.2114 118.553 52.2114C118.551 52.2114 118.549 52.2114 118.546 52.2114C118.544 52.2114 118.542 52.2114 118.54 52.2114C118.538 52.2114 118.535 52.2114 118.533 52.2114C118.531 52.2114 118.529 52.2114 118.526 52.2114C118.524 52.2114 118.522 52.2114 118.52 52.2114C118.517 52.2114 118.515 52.2114 118.513 52.2114C118.511 52.2114 118.508 52.2114 118.506 52.2114C118.504 52.2114 118.502 52.2114 118.499 52.2114C118.497 52.2114 118.495 52.2114 118.493 52.2114C118.49 52.2114 118.488 52.2114 118.486 52.2114C118.483 52.2114 118.481 52.2114 118.479 52.2114C118.477 52.2114 118.474 52.2114 118.472 52.2114C118.47 52.2114 118.467 52.2114 118.465 52.2114C118.463 52.2114 118.461 52.2114 118.458 52.2114C118.456 52.2114 118.454 52.2114 118.451 52.2114C118.449 52.2114 118.447 52.2114 118.444 52.2114C118.442 52.2114 118.44 52.2114 118.437 52.2114C118.435 52.2114 118.433 52.2114 118.431 52.2114C118.428 52.2114 118.426 52.2114 118.424 52.2114C118.421 52.2114 118.419 52.2114 118.417 52.2114C118.414 52.2114 118.412 52.2114 118.41 52.2114C118.407 52.2114 118.405 52.2114 118.402 52.2114C118.4 52.2114 118.398 52.2114 118.395 52.2114C118.393 52.2114 118.391 52.2114 118.388 52.2114C118.386 52.2114 118.384 52.2114 118.381 52.2114C118.379 52.2114 118.377 52.2114 118.374 52.2114C118.372 52.2114 118.369 52.2114 118.367 52.2114C118.365 52.2114 118.362 52.2114 118.36 52.2114C118.358 52.2114 118.355 52.2114 118.353 52.2114C118.35 52.2114 118.348 52.2114 118.346 52.2114C118.343 52.2114 118.341 52.2114 118.338 52.2114C118.336 52.2114 118.334 52.2114 118.331 52.2114C118.329 52.2114 118.326 52.2114 118.324 52.2114C118.322 52.2114 118.319 52.2114 118.317 52.2114C118.314 52.2114 118.312 52.2114 118.309 52.2114C118.307 52.2114 118.305 52.2114 118.302 52.2114C118.3 52.2114 118.297 52.2114 118.295 52.2114C118.292 52.2114 118.29 52.2114 118.288 52.2114C118.285 52.2114 118.283 52.2114 118.28 52.2114C118.278 52.2114 118.275 52.2114 118.273 52.2114C118.27 52.2114 118.268 52.2114 118.266 52.2114C118.263 52.2114 118.261 52.2114 118.258 52.2114C118.256 52.2114 118.253 52.2114 118.251 52.2114C118.248 52.2114 118.246 52.2114 118.243 52.2114C118.241 52.2114 118.238 52.2114 118.236 52.2114C118.233 52.2114 118.231 52.2114 118.228 52.2114C118.226 52.2114 118.223 52.2114 118.221 52.2114C118.218 52.2114 118.216 52.2114 118.213 52.2114C118.211 52.2114 118.208 52.2114 118.206 52.2114C118.203 52.2114 118.201 52.2114 118.198 52.2114C118.196 52.2114 118.193 52.2114 118.191 52.2114C118.188 52.2114 118.186 52.2114 118.183 52.2114C118.181 52.2114 118.178 52.2114 118.176 52.2114C118.173 52.2114 118.171 52.2114 118.168 52.2114C118.166 52.2114 118.163 52.2114 118.161 52.2114C118.158 52.2114 118.155 52.2114 118.153 52.2114C118.15 52.2114 118.148 52.2114 118.145 52.2114C118.143 52.2114 118.14 52.2114 118.138 52.2114C118.135 52.2114 118.133 52.2114 118.13 52.2114C118.127 52.2114 118.125 52.2114 118.122 52.2114C118.12 52.2114 118.117 52.2114 118.115 52.2114C118.112 52.2114 118.109 52.2114 118.107 52.2114C118.104 52.2114 118.102 52.2114 118.099 52.2114C118.096 52.2114 118.094 52.2114 118.091 52.2114C118.089 52.2114 118.086 52.2114 118.083 52.2114C118.081 52.2114 118.078 52.2114 118.076 52.2114C118.073 52.2114 118.07 52.2114 118.068 52.2114C118.065 52.2114 118.063 52.2114 118.06 52.2114C118.057 52.2114 118.055 52.2114 118.052 52.2114C118.05 52.2114 118.047 52.2114 118.044 52.2114C118.042 52.2114 118.039 52.2114 118.036 52.2114C118.034 52.2114 118.031 52.2114 118.028 52.2114C118.026 52.2114 118.023 52.2114 118.021 52.2114C118.018 52.2114 118.015 52.2114 118.013 52.2114C118.01 52.2114 118.007 52.2114 118.005 52.2114C118.002 52.2114 117.999 52.2114 117.997 52.2114C117.994 52.2114 117.991 52.2114 117.989 52.2114C117.986 52.2114 117.983 52.2114 117.981 52.2114C117.978 52.2114 117.975 52.2114 117.973 52.2114C117.97 52.2114 117.967 52.2114 117.965 52.2114C117.962 52.2114 117.959 52.2114 117.956 52.2114C117.954 52.2114 117.951 52.2114 117.948 52.2114C117.946 52.2114 117.943 52.2114 117.94 52.2114C117.938 52.2114 117.935 52.2114 117.932 52.2114C117.929 52.2114 117.927 52.2114 117.924 52.2114C117.921 52.2114 117.919 52.2114 117.916 52.2114C117.913 52.2114 117.91 52.2114 117.908 52.2114C117.905 52.2114 117.902 52.2114 117.9 52.2114C117.897 52.2114 117.894 52.2114 117.891 52.2114C117.889 52.2114 117.886 52.2114 117.883 52.2114C117.88 52.2114 117.878 52.2114 117.875 52.2114C117.872 52.2114 117.869 52.2114 117.867 52.2114C117.864 52.2114 117.861 52.2114 117.858 52.2114C117.856 52.2114 117.853 52.2114 117.85 52.2114C117.847 52.2114 117.844 52.2114 117.842 52.2114C117.839 52.2114 117.836 52.2114 117.833 52.2114C117.831 52.2114 117.828 52.2114 117.825 52.2114C117.822 52.2114 117.819 52.2114 117.817 52.2114C117.814 52.2114 117.811 52.2114 117.808 52.2114C117.805 52.2114 117.803 52.2114 117.8 52.2114C117.797 52.2114 117.794 52.2114 117.791 52.2114C117.789 52.2114 117.786 52.2114 117.783 52.2114C117.78 52.2114 117.777 52.2114 117.775 52.2114C117.772 52.2114 117.769 52.2114 117.766 52.2114C117.763 52.2114 117.76 52.2114 117.758 52.2114C117.755 52.2114 117.752 52.2114 117.749 52.2114C117.746 52.2114 117.743 52.2114 117.741 52.2114C117.738 52.2114 117.735 52.2114 117.732 52.2114C117.729 52.2114 117.726 52.2114 117.723 52.2114C117.721 52.2114 117.718 52.2114 117.715 52.2114C117.712 52.2114 117.709 52.2114 117.706 52.2114C117.703 52.2114 117.7 52.2114 117.698 52.2114C117.695 52.2114 117.692 52.2114 117.689 52.2114C117.686 52.2114 117.683 52.2114 117.68 52.2114C117.677 52.2114 117.675 52.2114 117.672 52.2114C117.669 52.2114 117.666 52.2114 117.663 52.2114C117.66 52.2114 117.657 52.2114 117.654 52.2114C117.651 52.2114 117.648 52.2114 117.646 52.2114C117.643 52.2114 117.64 52.2114 117.637 52.2114C117.634 52.2114 117.631 52.2114 117.628 52.2114C117.625 52.2114 117.622 52.2114 117.619 52.2114C117.616 52.2114 117.613 52.2114 117.611 52.2114C117.608 52.2114 117.605 52.2114 117.602 52.2114C117.599 52.2114 117.596 52.2114 117.593 52.2114C117.59 52.2114 117.587 52.2114 117.584 52.2114C117.581 52.2114 117.578 52.2114 117.575 52.2114C117.572 52.2114 117.569 52.2114 117.566 52.2114C117.563 52.2114 117.56 52.2114 117.557 52.2114C117.554 52.2114 117.551 52.2114 117.548 52.2114C117.546 52.2114 117.543 52.2114 117.54 52.2114C117.537 52.2114 117.534 52.2114 117.531 52.2114C117.528 52.2114 117.525 52.2114 117.522 52.2114C117.519 52.2114 117.516 52.2114 117.513 52.2114C117.51 52.2114 117.507 52.2114 117.504 52.2114C117.501 52.2114 117.498 52.2114 117.495 52.2114C117.492 52.2114 117.489 52.2114 117.486 52.2114C117.483 52.2114 117.48 52.2114 117.477 52.2114C117.474 52.2114 117.47 52.2114 117.467 52.2114C117.464 52.2114 117.461 52.2114 117.458 52.2114C117.455 52.2114 117.452 52.2114 117.449 52.2114C117.446 52.2114 117.443 52.2114 117.44 52.2114C117.437 52.2114 117.434 52.2114 117.431 52.2114C117.428 52.2114 117.425 52.2114 117.422 52.2114C117.419 52.2114 117.416 52.2114 117.413 52.2114C117.41 52.2114 117.407 52.2114 117.403 52.2114C117.4 52.2114 117.397 52.2114 117.394 52.2114C117.391 52.2114 117.388 52.2114 117.385 52.2114C117.382 52.2114 117.379 52.2114 117.376 52.2114C117.373 52.2114 117.37 52.2114 117.367 52.2114C117.363 52.2114 117.36 52.2114 117.357 52.2114C117.354 52.2114 117.351 52.2114 117.348 52.2114C117.345 52.2114 117.342 52.2114 117.339 52.2114C117.336 52.2114 117.332 52.2114 117.329 52.2114C117.326 52.2114 117.323 52.2114 117.32 52.2114C117.317 52.2114 117.314 52.2114 117.311 52.2114C117.307 52.2114 117.304 52.2114 117.301 52.2114C117.298 52.2114 117.295 52.2114 117.292 52.2114C117.289 52.2114 117.285 52.2114 117.282 52.2114C117.279 52.2114 117.276 52.2114 117.273 52.2114C117.27 52.2114 117.267 52.2114 117.263 52.2114C117.26 52.2114 117.257 52.2114 117.254 52.2114C117.251 52.2114 117.248 52.2114 117.244 52.2114C117.241 52.2114 117.238 52.2114 117.235 52.2114C117.232 52.2114 117.229 52.2114 117.225 52.2114C117.222 52.2114 117.219 52.2114 117.216 52.2114C117.213 52.2114 117.21 52.2114 117.206 52.2114C117.203 52.2114 117.2 52.2114 117.197 52.2114C117.194 52.2114 117.19 52.2114 117.187 52.2114C117.184 52.2114 117.181 52.2114 117.178 52.2114C117.174 52.2114 117.171 52.2114 117.168 52.2114C117.165 52.2114 117.161 52.2114 117.158 52.2114C117.155 52.2114 117.152 52.2114 117.149 52.2114C117.145 52.2114 117.142 52.2114 117.139 52.2114C117.136 52.2114 117.132 52.2114 117.129 52.2114C117.126 52.2114 117.123 52.2114 117.119 52.2114C117.116 52.2114 117.113 52.2114 117.11 52.2114C117.106 52.2114 117.103 52.2114 117.1 52.2114C117.097 52.2114 117.093 52.2114 117.09 52.2114C117.087 52.2114 117.084 52.2114 117.08 52.2114C117.077 52.2114 117.074 52.2114 117.071 52.2114C117.067 52.2114 117.064 52.2114 117.061 52.2114C117.057 52.2114 117.054 52.2114 117.051 52.2114C117.048 52.2114 117.044 52.2114 117.041 52.2114C117.038 52.2114 117.034 52.2114 117.031 52.2114C117.028 52.2114 117.025 52.2114 117.021 52.2114C117.018 52.2114 117.015 52.2114 117.011 52.2114C117.008 52.2114 117.005 52.2114 117.001 52.2114C116.998 52.2114 116.995 52.2114 116.991 52.2114C116.988 52.2114 116.985 52.2114 116.981 52.2114C116.978 52.2114 116.975 52.2114 116.972 52.2114C116.968 52.2114 116.965 52.2114 116.962 52.2114C116.958 52.2114 116.955 52.2114 116.951 52.2114C116.948 52.2114 116.945 52.2114 116.941 52.2114C116.938 52.2114 116.935 52.2114 116.931 52.2114C116.928 52.2114 116.925 52.2114 116.921 52.2114C116.918 52.2114 116.915 52.2114 116.911 52.2114C116.908 52.2114 116.904 52.2114 116.901 52.2114C116.898 52.2114 116.894 52.2114 116.891 52.2114C116.888 52.2114 116.884 52.2114 116.881 52.2114C116.877 52.2114 116.874 52.2114 116.871 52.2114C116.867 52.2114 116.864 52.2114 116.86 52.2114C116.857 52.2114 116.854 52.2114 116.85 52.2114C116.847 52.2114 116.843 52.2114 116.84 52.2114V54.2114Z" fill="#555B6E"/>
<path d="M70.7497 46.7423L86.0169 31.7453L101.284 46.7422C105.094 50.4847 105.094 56.5486 101.284 60.2911L86.0169 75.2881L70.7497 60.2911C66.9399 56.5487 66.9399 50.4847 70.7497 46.7423Z" fill="#555B6E" stroke="#FFD6BA"/>
</svg>
