<svg width="27" height="21" viewBox="0 0 27 21" fill="none" xmlns="http://www.w3.org/2000/svg">
<g clip-path="url(#clip0)">
<path d="M15.3849 5.64601L14.4608 7.27663L11.3009 1.69854L1.60018 18.8201H8.16818C8.16818 19.7207 8.88453 20.4507 9.76818 20.4507H1.60018C1.02861 20.4507 0.500509 20.1398 0.214771 19.6353C-0.0709666 19.1308 -0.0709376 18.5092 0.214848 18.0048L9.91552 0.883229C10.2013 0.378686 10.7295 0.0678711 11.3012 0.0678711C11.8728 0.0678711 12.401 0.378686 12.6869 0.883229L15.3849 5.64601V5.64601Z" fill="#89B0AE"/>
<path d="M22.3875 18.0048L16.3088 7.27662L15.3848 5.646L14.4608 7.27662L8.38282 18.0048C8.09703 18.5092 8.097 19.1308 8.38274 19.6352C8.66848 20.1397 9.19658 20.4507 9.76815 20.4507H21.0002C21.5718 20.4507 22.1002 20.1401 22.3861 19.6355C22.672 19.131 22.672 18.5093 22.3862 18.0048H22.3875ZM9.76815 18.8201L15.3848 8.90724L21.0002 18.8201H9.76815L9.76815 18.8201Z" fill="white"/>
<path d="M26.7334 19.6354C26.4477 20.1398 25.9196 20.4507 25.3481 20.4507H21.0001C21.8838 20.4507 22.6001 19.7206 22.6001 18.8201H25.3448L17.5568 5.07324L16.3088 7.27661L15.3848 5.64599L16.1714 4.25792C16.4572 3.75338 16.9855 3.44257 17.5571 3.44257C18.1287 3.44257 18.657 3.75338 18.9428 4.25792L26.7334 18.0048C27.0192 18.5093 27.0192 19.1309 26.7334 19.6354V19.6354Z" fill="#BEE3DB"/>
</g>
<defs>
<clipPath id="clip0">
<rect width="27" height="20.5" fill="white"/>
</clipPath>
</defs>
</svg>
