<svg width="23" height="21" viewBox="0 0 23 21" fill="none" xmlns="http://www.w3.org/2000/svg">
<path d="M7.81844 14.3897C7.94906 14.3851 8.60219 14.3241 8.69844 14.2866C8.61594 14.1647 7.19969 14.2397 6.36094 11.9616C6.21313 11.5585 6.10313 11.1366 6.14094 10.6679C6.24063 9.47255 7.27188 9.26162 7.92844 9.80068C9.16594 10.8132 10.1044 14.0804 11.8369 14.371C13.1087 14.5819 14.745 13.5741 15.5563 12.2429C15.5356 12.2382 15.5288 12.2335 15.5219 12.2382C15.5081 12.2429 15.4944 12.2476 15.4841 12.2522C14.3394 12.8194 12.2425 12.7069 10.8538 11.5585C9.56125 10.4897 9.02844 8.80693 9.07312 8.06162C9.135 7.06318 9.86031 6.97412 10.3072 7.14287C10.8022 7.32568 11.1459 7.96787 11.6444 8.42724C12.1806 8.91474 12.7753 9.06943 13.4078 8.91005C13.92 8.78349 14.5903 8.33349 14.6625 8.23037C14.6247 8.22568 14.6006 8.22568 14.5766 8.22099C14.3634 8.19287 14.1503 8.18349 13.9406 8.1413C10.1181 7.36787 9.50969 0.472553 5.26094 0.0272409C3.73813 -0.132134 1.84406 0.406928 0.575625 1.66787C0.548125 1.69599 0.524062 1.72412 0.5 1.75224C0.503438 1.76162 0.503438 1.7663 0.506875 1.77568C0.534375 1.77568 0.561875 1.77099 0.589375 1.7663C0.805937 1.71943 1.01906 1.7288 1.23219 1.78037C2.05031 1.98193 2.87188 2.86318 3.15375 5.3663C3.33594 6.97412 3.12969 7.74755 3.42875 9.40224C4.08188 13.0163 6.55687 14.446 7.81844 14.3897ZM3.08844 1.29287C3.0575 1.24599 3.0575 1.23662 3.04375 1.19912C3.45969 1.07724 3.87563 1.00693 4.30188 0.974116C4.26406 1.66318 3.53875 1.97255 3.08844 1.29287ZM9.85688 17.7226C8.38563 17.7788 6.69438 16.471 5.61156 14.8444C5.45344 14.6101 5.03406 13.8976 4.97219 13.7476L4.98594 13.7288C5.21281 13.921 5.86938 14.6007 6.86969 14.9944C7.70156 15.3226 8.52312 15.2897 9.33094 14.8397C10.1112 14.4038 10.7403 14.8163 10.8125 14.9757C10.1766 15.1538 10.1216 15.1819 9.9875 15.346C9.81219 15.5522 9.82938 15.8944 10.2281 16.1522C11.1287 16.7335 12.3938 16.021 13.5694 17.3429C13.6519 17.4366 13.8478 17.7085 13.9166 17.8444C13.9131 17.8538 13.9062 17.8585 13.9028 17.8679C13.7378 17.7976 13.3391 17.5163 12.5209 17.4319C11.6719 17.3382 10.9294 17.6804 9.85688 17.7226ZM15.8656 5.91005C16.4294 5.6663 17.2853 5.28193 18.1516 5.75537C18.705 6.06005 19.0522 6.63193 19.255 7.37724C19.3753 7.81787 19.4303 8.30068 19.4303 8.72255C19.4234 8.72255 19.4166 8.72255 19.4097 8.72724C19.4028 8.70849 19.3959 8.68505 19.3925 8.6663C19.2206 7.63505 18.3647 6.61318 17.0688 7.26474C15.3431 8.13662 12.5863 7.71943 10.9878 5.01474C10.9638 4.97255 10.9053 4.93505 10.9431 4.86474C10.9466 4.85537 11.0153 4.89287 11.0462 4.92568C11.6684 5.5538 12.3628 5.95224 13.1191 6.1538C14.1675 6.43974 14.9959 6.28974 15.8656 5.91005ZM19.3959 11.4179C18.2822 11.4272 18.2341 13.7663 15.8347 14.4366C15.2091 14.6101 14.5044 14.6522 14.2913 14.6335V14.6147C14.3875 14.5444 14.7966 14.4929 15.3122 13.8366C15.5837 13.4944 15.8381 13.1288 16.0959 12.7632C16.7663 11.8163 17.5191 10.7851 18.9112 10.9351C19.7053 11.0194 19.9184 11.3194 20.1522 11.5304C20.1625 11.5397 20.1659 11.5538 20.1763 11.5726C20.1591 11.5726 20.1522 11.5772 20.1453 11.5726C19.9047 11.446 19.6538 11.4179 19.3959 11.4179ZM18.9731 10.2882C18.9697 10.2976 18.9697 10.3069 18.9663 10.3163C17.9728 10.1101 17.3162 9.94599 16.6116 10.5038C16.0272 10.9679 15.5322 11.4647 14.4803 11.6476C13.5488 11.8069 12.93 11.7601 12.2081 11.2726C12.1978 11.2632 12.1875 11.2538 12.1738 11.2444C12.1738 11.2351 12.1772 11.2304 12.1772 11.221C13.0331 11.3991 13.4284 11.4601 14.085 10.9491C14.8516 10.3444 15.4634 9.70224 16.5359 9.49599C17.5534 9.3038 18.2994 9.61318 18.9731 10.2882ZM9.73313 2.81162C9.7125 2.78349 9.69531 2.75537 9.66094 2.7038C9.92219 2.7038 10.6819 2.64755 11.4966 3.09755C12.1737 3.47255 12.6034 4.08193 13.2222 4.63974C13.6038 4.98193 14.0266 5.07568 14.4734 5.01943C14.6213 5.00068 14.7656 4.96318 14.9134 4.93974C14.9272 4.93505 14.9444 4.93974 14.965 4.9538C14.9444 4.97255 14.9237 4.99599 14.9031 5.01005C14.6247 5.19755 14.3291 5.30537 14.0231 5.34287C13.1259 5.46474 12.2941 5.16943 11.5 4.62099C10.8366 4.15693 10.2488 3.54755 9.73313 2.81162ZM22.5 13.9866C22.3797 14.1319 21.7197 14.5304 21.0322 14.2351C20.6094 14.0522 20.3619 13.5366 19.9459 13.1054C19.6022 12.7491 19.2275 12.7351 18.98 12.7116C19.0006 12.6741 19.0109 12.6554 19.0212 12.646C19.53 12.2147 20.0697 12.0741 20.6472 12.3413C21.0769 12.5382 21.3072 12.9741 21.6922 13.4757C22.0634 13.9632 22.4141 13.9397 22.4862 13.9679C22.4897 13.9632 22.4931 13.9679 22.5 13.9866ZM15.1953 20.4085C15.2709 20.4647 15.2503 20.4788 15.2469 20.5022C14.6109 20.4366 14.0816 20.146 13.6381 19.4616C12.8888 18.3038 12.2047 18.1538 11.9675 18.0694C11.9847 18.0601 11.995 18.0507 12.0053 18.0507C12.4556 18.0554 12.9025 18.0835 13.3425 18.2335C14.2122 18.5335 14.5456 19.4241 14.7725 19.8882C14.8825 20.1132 15.0234 20.2772 15.1953 20.4085Z" fill="#FFD6BA"/>
</svg>
