<svg width="552" height="411" viewBox="0 0 552 411" fill="none" xmlns="http://www.w3.org/2000/svg">
<path d="M498.563 13.6699H0.212891V250.272H498.563V13.6699Z" fill="#C4C4C4"/>
<path d="M484.312 33.959H14.4629V231.364H484.312V33.959Z" fill="#FAF9F9"/>
<path d="M498.35 0H0V21.1827H498.35V0Z" fill="#89B0AE"/>
<path d="M15.7326 16.3821C17.8998 16.3821 19.6567 14.6243 19.6567 12.4559C19.6567 10.2876 17.8998 8.52979 15.7326 8.52979C13.5654 8.52979 11.8086 10.2876 11.8086 12.4559C11.8086 14.6243 13.5654 16.3821 15.7326 16.3821Z" fill="#FAF9F9"/>
<path d="M30.6272 16.3821C32.7944 16.3821 34.5512 14.6243 34.5512 12.4559C34.5512 10.2876 32.7944 8.52979 30.6272 8.52979C28.46 8.52979 26.7031 10.2876 26.7031 12.4559C26.7031 14.6243 28.46 16.3821 30.6272 16.3821Z" fill="#FAF9F9"/>
<path d="M45.5227 16.3821C47.6899 16.3821 49.4467 14.6243 49.4467 12.4559C49.4467 10.2876 47.6899 8.52979 45.5227 8.52979C43.3555 8.52979 41.5986 10.2876 41.5986 12.4559C41.5986 14.6243 43.3555 16.3821 45.5227 16.3821Z" fill="#FAF9F9"/>
<path d="M351.377 63.9718H285.204V68.9481H351.377V63.9718Z" fill="#C4C4C4"/>
<path d="M387.389 78.5806H285.204V83.5569H387.389V78.5806Z" fill="#89B0AE"/>
<path d="M369.545 92.4937H286.267V97.47H369.545V92.4937Z" fill="#C4C4C4"/>
<path d="M333.821 107.759H285.204V112.736H333.821V107.759Z" fill="#C4C4C4"/>
<path d="M358.579 122.671H285.204V127.647H358.579V122.671Z" fill="#89B0AE"/>
<path d="M263.147 62.4064H255.044V70.5135H263.147V62.4064Z" fill="#C4C4C4"/>
<path d="M263.147 77.0153H255.044V85.1223H263.147V77.0153Z" fill="#89B0AE"/>
<path d="M263.147 90.9282H255.044V99.0353H263.147V90.9282Z" fill="#C4C4C4"/>
<path d="M263.147 106.194H255.044V114.301H263.147V106.194Z" fill="#C4C4C4"/>
<path d="M263.147 121.105H255.044V129.213H263.147V121.105Z" fill="#89B0AE"/>
<path d="M351.377 137.675H285.204V142.652H351.377V137.675Z" fill="#C4C4C4"/>
<path d="M387.389 152.284H285.204V157.261H387.389V152.284Z" fill="#89B0AE"/>
<path d="M369.545 166.197H286.267V171.174H369.545V166.197Z" fill="#C4C4C4"/>
<path d="M333.821 181.463H285.204V186.439H333.821V181.463Z" fill="#C4C4C4"/>
<path d="M358.579 196.375H285.204V201.351H358.579V196.375Z" fill="#C4C4C4"/>
<path d="M263.147 136.11H255.044V144.217H263.147V136.11Z" fill="#C4C4C4"/>
<path d="M263.147 150.719H255.044V158.826H263.147V150.719Z" fill="#89B0AE"/>
<path d="M263.147 164.632H255.044V172.739H263.147V164.632Z" fill="#C4C4C4"/>
<path d="M263.147 179.898H255.044V188.005H263.147V179.898Z" fill="#C4C4C4"/>
<path d="M263.147 194.809H255.044V202.916H263.147V194.809Z" fill="#C4C4C4"/>
<path d="M142.042 176.71H75.8691V181.686H142.042V176.71Z" fill="#555B6E"/>
<path d="M150.293 189.641H67.0146V194.617H150.293V189.641Z" fill="#555B6E"/>
<path d="M151.964 113.936C151.961 121.415 150.02 128.766 146.329 135.27C142.639 141.774 137.326 147.21 130.908 151.045C124.491 154.881 117.189 156.986 109.716 157.155C102.242 157.323 94.853 155.55 88.2694 152.008L88.261 151.999C81.5361 148.374 75.8918 143.031 71.9032 136.512C67.9146 129.994 65.7243 122.535 65.5555 114.894C65.3866 107.253 67.2453 99.7038 70.9421 93.0157C74.6389 86.3275 80.0416 80.7394 86.5999 76.8208C93.1581 72.9022 100.637 70.793 108.276 70.7083C115.914 70.6237 123.438 72.5664 130.081 76.3387C136.725 80.1109 142.25 85.5778 146.094 92.1824C149.938 98.7869 151.963 106.293 151.964 113.936V113.936Z" fill="#555B6E"/>
<path d="M108.977 111.837C115.464 111.837 120.723 106.576 120.723 100.085C120.723 93.595 115.464 88.3335 108.977 88.3335C102.49 88.3335 97.2314 93.595 97.2314 100.085C97.2314 106.576 102.49 111.837 108.977 111.837Z" fill="#FAF9F9"/>
<path d="M129.033 136.119C115.902 140.731 101.585 140.675 88.4899 135.962L88.4814 135.956L97.2318 118.674H120.723L129.033 136.119Z" fill="#FAF9F9"/>
<path d="M464.702 402.106H456.019L451.888 368.593L464.705 368.594L464.702 402.106Z" fill="#FFB7B7"/>
<path d="M466.917 410.528L438.917 410.527V410.173C438.917 407.281 440.065 404.508 442.109 402.463C444.153 400.418 446.925 399.269 449.815 399.269H449.816L466.917 399.269L466.917 410.528Z" fill="#2F2E41"/>
<path d="M485.912 402.106H494.595L498.726 368.593L485.91 368.594L485.912 402.106Z" fill="#FFB7B7"/>
<path d="M483.697 399.269L500.799 399.269H500.799C503.69 399.269 506.462 400.418 508.506 402.463C510.549 404.508 511.698 407.281 511.698 410.173V410.527L483.698 410.528L483.697 399.269Z" fill="#2F2E41"/>
<path d="M462.772 140.217C466.502 132.706 463.44 123.592 455.933 119.86C448.426 116.128 439.317 119.192 435.587 126.703C431.858 134.214 434.92 143.328 442.426 147.06C449.933 150.791 459.043 147.728 462.772 140.217Z" fill="#FFB7B7"/>
<path d="M438.004 237.929C438.004 237.929 433.211 257.91 435.608 267.501C438.004 277.092 445.194 342.631 445.194 342.631L449.987 394.583L469.158 396.182L466.762 335.438L469.158 282.687L482.739 333.84V394.764L503.071 395.564L503.508 316.256C503.508 316.256 505.106 253.914 494.721 245.921C484.336 237.929 482.739 236.33 482.739 236.33L438.004 237.929Z" fill="#2F2E41"/>
<path d="M466.946 150.01L485.135 159.602L487.531 242.724C487.531 242.724 477.147 236.33 461.17 244.323C445.193 252.315 434.809 246.721 434.809 246.721L444.395 210.754L440.4 162.799L446.113 157.611L466.946 150.01Z" fill="#CBCBCB"/>
<path d="M446.115 156.098L442.797 158.802C442.797 158.802 422.027 169.193 421.229 176.386L435.607 215.55C435.607 215.55 439.602 224.341 436.406 227.538C433.211 230.735 430.016 238.728 430.814 242.724C431.613 246.721 426.021 263.505 432.412 263.505C438.803 263.505 453.981 225.141 453.182 209.955C452.383 194.769 451.83 154.992 446.115 156.098Z" fill="#2F2E41"/>
<path d="M460.078 150.911L467.395 149.693C467.395 149.693 494.555 156.886 498.549 168.875L487.366 196.849C487.366 196.849 495.354 248.002 492.957 248.002H490.561C490.561 248.002 496.952 252.797 492.957 254.396C488.963 255.994 479.377 268.782 476.981 263.187C474.584 257.593 460.205 191.254 461.803 176.868C463.401 162.481 458.659 152.418 460.078 150.911Z" fill="#2F2E41"/>
<path d="M463.254 118.59L463.965 117.159L460.388 115.381C460.388 115.381 456.442 108.957 449.302 110.762C442.162 112.567 438.949 113.648 438.949 113.648L435.381 115.444L437.172 117.227L433.959 118.307L436.106 119.374L433.608 120.81L434.953 128.172C434.953 128.172 437.185 122.588 441.478 124.722C445.77 126.856 453.621 123.619 453.621 123.619L460.442 136.827C460.442 136.827 461.85 132.197 464.359 133.431C464.359 133.431 470.768 123.218 463.254 118.59Z" fill="#2F2E41"/>
<path d="M485.473 258.839C485.078 257.875 484.9 256.836 484.95 255.796C485 254.755 485.277 253.738 485.763 252.816C486.248 251.895 486.929 251.091 487.759 250.461C488.588 249.831 489.546 249.391 490.564 249.172L493.639 224.034L503.658 232.56L499.202 255.124C499.457 256.859 499.067 258.628 498.106 260.095C497.145 261.562 495.679 262.625 493.987 263.083C492.295 263.541 490.493 263.362 488.924 262.58C487.355 261.798 486.127 260.467 485.473 258.839V258.839Z" fill="#FFB7B7"/>
<path d="M442.619 257.11C442.909 256.109 442.976 255.057 442.816 254.028C442.656 252.998 442.273 252.016 441.692 251.151C441.112 250.286 440.349 249.559 439.458 249.021C438.566 248.483 437.567 248.147 436.532 248.036L430.81 223.367L421.751 232.908L428.573 254.872C428.503 256.624 429.079 258.342 430.19 259.698C431.301 261.055 432.871 261.957 434.602 262.233C436.334 262.508 438.106 262.139 439.583 261.195C441.061 260.251 442.141 258.797 442.619 257.11V257.11Z" fill="#FFB7B7"/>
<path d="M485.859 162.362C485.859 162.362 496.244 158.365 499.44 170.354C502.635 182.343 506.629 206.321 506.629 206.321C506.828 219.654 506.119 219.654 506.629 232.696L504.233 244.685L490.652 243.087L491.245 212.567L484.262 181.544L485.859 162.362Z" fill="#2F2E41"/>
<path d="M428.418 171.59L423.495 172.117C423.495 172.117 418.832 175.587 418.832 183.579C418.832 191.572 418.034 215.55 418.034 215.55C418.034 215.55 417.58 216.111 421.229 236.33C423.007 246.186 426.08 250.836 426.08 250.836L435.997 241.623L434.809 217.947L438.004 205.159L428.418 171.59Z" fill="#2F2E41"/>
<path d="M551.292 411H392.63C392.442 411 392.262 410.925 392.129 410.792C391.997 410.659 391.922 410.479 391.922 410.291C391.922 410.103 391.997 409.923 392.129 409.79C392.262 409.657 392.442 409.583 392.63 409.583H551.292C551.479 409.583 551.66 409.657 551.792 409.79C551.925 409.923 552 410.103 552 410.291C552 410.479 551.925 410.659 551.792 410.792C551.66 410.925 551.479 411 551.292 411Z" fill="#CBCBCB"/>
<path d="M221.219 411H136.93C136.742 411 136.562 410.925 136.429 410.792C136.296 410.659 136.222 410.479 136.222 410.291C136.222 410.103 136.296 409.923 136.429 409.79C136.562 409.657 136.742 409.583 136.93 409.583H221.219C221.407 409.583 221.587 409.657 221.72 409.79C221.853 409.923 221.927 410.103 221.927 410.291C221.927 410.479 221.853 410.659 221.72 410.792C221.587 410.925 221.407 411 221.219 411Z" fill="#CBCBCB"/>
<path d="M183.739 380.855C169.92 391.162 166.003 409.298 166.003 409.298C166.003 409.298 184.492 410.722 198.312 400.414C212.132 390.107 216.049 371.971 216.049 371.971C216.049 371.971 197.559 370.547 183.739 380.855Z" fill="#FAF9F9"/>
<path d="M189.496 385.694C182.854 401.608 166.22 409.809 166.22 409.809C166.22 409.809 160.354 392.208 166.996 376.293C173.638 360.379 190.272 352.178 190.272 352.178C190.272 352.178 196.138 369.779 189.496 385.694Z" fill="#FAF9F9"/>
</svg>
