<svg width="299" height="326" viewBox="0 0 299 326" fill="none" xmlns="http://www.w3.org/2000/svg">
<g clip-path="url(#clip0)">
<path d="M166.716 262.409C226.579 262.409 275.108 253.834 275.108 243.257C275.108 232.68 226.579 224.106 166.716 224.106C106.853 224.106 58.3243 232.68 58.3243 243.257C58.3243 253.834 106.853 262.409 166.716 262.409Z" fill="#89B0AE"/>
<path d="M94.5813 119.258C101.471 109.015 104.462 96.6425 103.013 84.3832C101.564 72.124 95.7701 60.7901 86.6822 52.4368C77.5944 44.0835 65.8143 39.264 53.4782 38.8522C41.1421 38.4405 29.0669 42.4637 19.4424 50.1924C9.81782 57.9211 3.28125 68.8435 1.01802 80.9788C-1.24521 93.1141 0.914761 105.659 7.10624 116.338C13.2977 127.017 23.1107 135.124 34.7657 139.187C46.4207 143.251 59.1459 143.003 70.6337 138.488C71.3785 141.147 72.7708 143.579 74.686 145.568C76.6013 147.556 78.9796 149.039 81.6082 149.882C84.2368 150.726 87.0336 150.905 89.7481 150.403C92.4627 149.9 95.0103 148.732 97.163 147.004C99.3156 145.275 101.006 143.04 102.083 140.497C103.16 137.955 103.59 135.185 103.334 132.436C103.078 129.687 102.145 127.044 100.617 124.744C99.0898 122.445 97.0159 120.559 94.5813 119.258V119.258Z" fill="#FFD6BA"/>
<path d="M82.4016 80.1206H21.0044V84.9684H82.4016V80.1206Z" fill="#555B6E"/>
<path d="M82.4016 88.2002H21.0044V93.048H82.4016V88.2002Z" fill="#555B6E"/>
<path d="M82.4016 96.2798H21.0044V101.128H82.4016V96.2798Z" fill="#555B6E"/>
<path d="M204.419 80.8591C197.529 70.6165 194.538 58.2438 195.987 45.9846C197.436 33.7254 203.23 22.3914 212.318 14.0381C221.406 5.68484 233.186 0.865312 245.522 0.45355C257.858 0.0417881 269.933 4.06505 279.558 11.7938C289.182 19.5224 295.719 30.4448 297.982 42.5801C300.245 54.7154 298.085 67.2601 291.894 77.9393C285.702 88.6185 275.889 96.725 264.234 100.789C252.579 104.852 239.854 104.604 228.366 100.09C227.622 102.748 226.229 105.181 224.314 107.169C222.399 109.158 220.02 110.64 217.392 111.484C214.763 112.328 211.966 112.506 209.252 112.004C206.537 111.501 203.99 110.334 201.837 108.605C199.684 106.876 197.994 104.641 196.917 102.099C195.84 99.5564 195.41 96.7867 195.666 94.0376C195.922 91.2884 196.855 88.6456 198.383 86.3458C199.91 84.0459 201.984 82.1608 204.419 80.8591V80.8591Z" fill="#FFD6BA"/>
<path d="M216.599 46.5698L277.996 46.5698V41.722L216.599 41.722V46.5698Z" fill="#555B6E"/>
<path d="M216.599 54.6494L277.996 54.6494V49.8016L216.599 49.8016V54.6494Z" fill="#555B6E"/>
<path d="M216.599 62.729L277.996 62.729V57.8812L216.599 57.8812V62.729Z" fill="#555B6E"/>
<path d="M114.791 222.151C110.945 216.433 109.275 209.525 110.084 202.681C110.893 195.837 114.127 189.51 119.201 184.846C124.275 180.182 130.851 177.492 137.738 177.262C144.626 177.032 151.367 179.278 156.74 183.593C162.113 187.908 165.763 194.006 167.026 200.781C168.29 207.556 167.084 214.559 163.627 220.521C160.171 226.483 154.692 231.009 148.185 233.278C141.679 235.546 134.574 235.408 128.161 232.887C127.745 234.372 126.968 235.73 125.898 236.84C124.829 237.95 123.501 238.778 122.034 239.249C120.566 239.72 119.005 239.819 117.489 239.539C115.974 239.258 114.552 238.607 113.35 237.641C112.148 236.676 111.204 235.428 110.603 234.009C110.002 232.59 109.762 231.043 109.905 229.509C110.047 227.974 110.569 226.498 111.421 225.214C112.274 223.93 113.432 222.878 114.791 222.151V222.151Z" fill="#BEE3DB"/>
<path d="M127.383 208.742C129.225 208.742 130.717 207.249 130.717 205.407C130.717 203.565 129.225 202.072 127.383 202.072C125.541 202.072 124.048 203.565 124.048 205.407C124.048 207.249 125.541 208.742 127.383 208.742Z" fill="#555B6E"/>
<path d="M138.76 208.742C140.601 208.742 142.094 207.249 142.094 205.407C142.094 203.565 140.601 202.072 138.76 202.072C136.918 202.072 135.425 203.565 135.425 205.407C135.425 207.249 136.918 208.742 138.76 208.742Z" fill="#555B6E"/>
<path d="M150.137 208.742C151.978 208.742 153.471 207.249 153.471 205.407C153.471 203.565 151.978 202.072 150.137 202.072C148.295 202.072 146.802 203.565 146.802 205.407C146.802 207.249 148.295 208.742 150.137 208.742Z" fill="#555B6E"/>
<path d="M142.099 101.944C142.099 101.944 156.978 102.348 159.435 103.243C161.892 104.137 162.991 110.53 162.991 110.53L151.439 114.162L142.798 113.672L136.296 114.132L139.927 104.621L142.099 101.944Z" fill="#2F2E41"/>
<path d="M142.741 97.061C142.741 97.061 143.72 100.842 141.547 103.52C139.375 106.197 150.887 115.738 150.887 115.738L156.96 114.694C156.96 114.694 155.622 103.075 157.42 100.133C159.218 97.1909 142.741 97.061 142.741 97.061Z" fill="#9F616A"/>
<path opacity="0.1" d="M142.741 97.061C142.741 97.061 143.72 100.842 141.547 103.52C139.375 106.197 150.887 115.738 150.887 115.738L156.96 114.694C156.96 114.694 155.622 103.075 157.42 100.133C159.218 97.1909 142.741 97.061 142.741 97.061Z" fill="black"/>
<path d="M183.131 207.618L169.731 225.39L178.876 230.73L191.462 210.135L183.131 207.618Z" fill="#9F616A"/>
<path d="M173.732 225.69C173.732 225.69 168.797 219.956 169.017 221.235C169.237 222.513 165.506 233.358 168.977 234.407C172.448 235.456 202.215 238.238 202.625 234.876C203.034 231.514 193.745 229.162 193.745 229.162C193.745 229.162 188.226 223.857 187.002 224.396C185.779 224.936 173.732 225.69 173.732 225.69Z" fill="#2F2E41"/>
<path d="M180.125 224.591L190.828 242.828L198.909 238.148L188.116 223.218L180.125 224.591Z" fill="#9F616A"/>
<path d="M197.021 181.204L193.844 185.699C193.844 185.699 178.701 206.734 180.31 208.432C181.918 210.13 188.615 216.549 192.022 215.305C195.428 214.061 207.529 192.562 207.529 192.562L204.373 179.94L197.021 181.204Z" fill="#2F2E41"/>
<path d="M131.788 176.948C131.788 176.948 135.18 183.277 143.775 185.42C152.371 187.562 161.351 191.943 161.67 191.888C161.99 191.833 162.894 191.349 163.114 192.627C163.333 193.906 165.691 196.134 165.691 196.134C165.691 196.134 175.185 228.402 178.811 228.437C182.437 228.472 189.889 225.875 190.044 224.861C190.199 223.847 178.941 190.894 178.831 190.255L177.513 182.582C177.513 182.582 192.401 184.96 193.79 185.379C195.178 185.799 207.529 192.562 207.529 192.562C207.529 192.562 220.12 183.486 208.343 174.32C196.566 165.154 176.324 158.431 176.324 158.431L169.062 156.388L162.733 156.01L161.801 152.436L146.812 153.301L131.169 159.94L131.788 176.948Z" fill="#2F2E41"/>
<path d="M151.571 104.588C158.02 104.588 163.247 99.3595 163.247 92.9102C163.247 86.4609 158.02 81.2327 151.571 81.2327C145.123 81.2327 139.895 86.4609 139.895 92.9102C139.895 99.3595 145.123 104.588 151.571 104.588Z" fill="#9F616A"/>
<path d="M141.008 102.296L142.412 102.054C142.412 102.054 144.948 111.822 152.795 113.435C152.795 113.435 156.666 108.796 156.501 108.014C156.336 107.231 159.567 103.055 161.285 105.393C163.003 107.73 160.866 148.91 162.309 149.649C163.753 150.389 166.849 151.173 164.357 153.905C161.865 156.638 151.966 160.314 149.773 159.045C147.581 157.777 143.101 147.027 141.163 143.411C139.225 139.794 136.123 127.491 136.123 127.491C136.123 127.491 132.163 114.019 134.6 110.967C137.037 107.915 141.008 102.296 141.008 102.296Z" fill="#D0CDE1"/>
<path d="M152.182 152.993C151.921 155.861 151.475 158.71 150.845 161.52C150.272 163.807 149.606 165.188 148.845 165.129C146.903 164.984 146.021 167.832 145.566 171.115C145.08 174.598 145.08 178.572 144.813 179.976C144.46 181.832 142.201 183.248 137.686 182.832C134.998 182.526 132.359 181.879 129.834 180.906C123.739 178.69 123.92 160.716 124.94 147.379C125.563 139.205 126.501 132.767 126.501 132.767C126.501 132.767 124.649 127.244 124.057 123.459C123.939 122.768 123.88 122.069 123.881 121.368C123.971 118.062 130.007 109.126 133.654 103.56C137.306 97.9935 142.287 102.077 142.287 102.077L140.553 107.31C140.553 107.31 143.24 111.456 143.26 115.402C143.279 119.348 149.692 122.196 151.994 124.106C153.441 125.307 153.406 141.331 152.182 152.993Z" fill="#2F2E41"/>
<path d="M157.252 103.947C157.252 103.947 157.673 104.444 159.6 104.202C161.91 103.91 165.087 104.71 165.825 106.916C167.179 110.962 170.995 127.421 170.995 127.421C170.995 127.421 172.583 146.238 173.297 150.394C174.011 154.55 173.657 158.231 174.361 160.414C175.065 162.597 167.409 156.343 164.587 157.157C161.765 157.971 159.952 147.422 160.306 143.74C160.661 140.059 160.961 136.058 159.982 132.277C159.003 128.495 160.738 118.488 160.673 116.195C160.609 113.902 154.451 108.124 157.252 103.947Z" fill="#2F2E41"/>
<path d="M165.514 162.428C165.514 162.428 177.876 169.174 179.06 178.775C180.243 188.376 162.524 169.479 162.524 169.479L165.514 162.428Z" fill="#9F616A"/>
<path d="M172.571 155.62C172.571 155.62 176.359 174.717 182.26 173.702C188.161 172.688 178.964 154.521 178.964 154.521L172.571 155.62Z" fill="#9F616A"/>
<path d="M192.781 238.872C192.781 238.872 189.759 242.354 189.01 241.824C188.261 241.295 186.538 248.503 188.091 249.881C189.644 251.26 195.628 253.523 195.693 255.816C195.757 258.108 211.805 257.654 212.379 255.251C212.953 252.848 210.366 247.369 208.548 246.365C206.73 245.361 200.008 236.12 200.008 236.12C200.008 236.12 194.744 236.889 192.781 238.872Z" fill="#2F2E41"/>
<path opacity="0.1" d="M163.545 174.108C160.678 172.084 152.673 171.582 145.566 171.115C142.448 170.915 139.502 170.719 137.239 170.401C135.059 170.099 133.098 168.106 131.356 165.137C128.717 160.638 126.583 153.891 124.94 147.379C125.563 139.204 126.501 132.767 126.501 132.767C126.501 132.767 124.649 127.244 124.057 123.459C124.475 122.878 125.012 122.394 125.634 122.039C133.172 118.803 140.369 150.651 141.283 155.648C141.299 155.73 141.31 155.809 141.322 155.875C141.765 158.449 146.554 160.649 150.845 161.52C153.488 162.058 155.948 162.093 157.081 161.395C160.058 159.567 169.212 166.882 169.906 167.09C170.601 167.302 167.663 177.022 163.545 174.108Z" fill="black"/>
<path d="M125.635 120.079C125.635 120.079 120.156 122.666 122.564 134.759C124.971 146.853 129.821 167.412 137.237 168.441C144.654 169.47 159.423 169.236 163.543 172.148C167.663 175.06 170.6 165.339 169.906 165.13C169.212 164.92 160.057 157.607 157.08 159.435C154.104 161.263 142.037 158.071 141.323 153.916C140.608 149.76 133.297 116.787 125.635 120.079Z" fill="#2F2E41"/>
<path d="M165.116 114.279L171.138 128.253C171.138 128.253 171.744 127.951 172.448 130.134C173.152 132.316 173.482 134.235 174.716 135.668C175.949 137.102 181.438 157.552 181.603 158.511C181.768 159.47 174.022 162.776 172.291 160.111C170.56 157.447 165.116 114.279 165.116 114.279Z" fill="#2F2E41"/>
<path d="M144.928 92.7476C145.376 92.6281 145.441 92.0339 145.456 91.5709C145.537 89.0917 147.029 86.5477 149.402 85.8259C150.313 85.5762 151.266 85.5237 152.199 85.672C153.53 85.8493 154.815 86.2781 155.986 86.9356C156.604 87.2831 157.21 87.7017 157.911 87.8078C158.374 87.8779 160.378 88.4608 160.839 88.5428C161.853 88.7232 162.795 89.6301 163.768 89.2926C164.698 88.9698 164.904 87.7648 164.926 86.78C164.978 84.5365 163.275 81.4314 161.775 79.7624C160.637 78.4958 158.923 77.9112 157.247 77.6071C155.29 77.2926 153.307 77.172 151.326 77.2469C148.645 77.2947 145.889 77.5017 143.472 78.662C141.054 79.8222 139.023 82.1315 138.907 84.811C138.883 85.3692 138.941 85.9296 138.894 86.4864C138.779 87.8444 138.058 89.0711 137.72 90.3914C137.478 91.3601 137.442 92.3687 137.614 93.3523C137.786 94.3358 138.162 95.2724 138.718 96.1017C139.615 97.4224 141.025 98.6168 140.973 100.213L142.919 98.1967C143.21 97.9748 143.415 97.6599 143.502 97.3047C143.588 96.9494 143.55 96.5752 143.394 96.2445L142.705 93.558C142.528 93.0784 142.508 92.5551 142.646 92.0629C143.384 90.2384 144.182 92.9468 144.928 92.7476Z" fill="#2F2E41"/>
<path d="M233.349 227.101C233.268 226.969 231.367 223.794 230.708 217.201C230.103 211.153 230.492 200.957 235.779 186.735C245.794 159.793 233.471 138.055 233.345 137.839L233.953 137.486C233.985 137.541 237.165 143.083 239.043 151.909C241.525 163.609 240.621 175.775 236.437 186.98C226.439 213.877 233.872 226.609 233.949 226.734L233.349 227.101Z" fill="#89B0AE"/>
<path d="M229.432 136.256C231.955 136.256 234 134.211 234 131.688C234 129.165 231.955 127.12 229.432 127.12C226.91 127.12 224.865 129.165 224.865 131.688C224.865 134.211 226.91 136.256 229.432 136.256Z" fill="#FFD6BA"/>
<path d="M243.838 153.124C246.36 153.124 248.405 151.078 248.405 148.555C248.405 146.033 246.36 143.987 243.838 143.987C241.315 143.987 239.27 146.033 239.27 148.555C239.27 151.078 241.315 153.124 243.838 153.124Z" fill="#89B0AE"/>
<path d="M234 164.368C236.523 164.368 238.568 162.323 238.568 159.8C238.568 157.277 236.523 155.232 234 155.232C231.477 155.232 229.432 157.277 229.432 159.8C229.432 162.323 231.477 164.368 234 164.368Z" fill="#FFD6BA"/>
<path d="M245.946 173.856C248.469 173.856 250.514 171.811 250.514 169.288C250.514 166.765 248.469 164.72 245.946 164.72C243.423 164.72 241.378 166.765 241.378 169.288C241.378 171.811 243.423 173.856 245.946 173.856Z" fill="#FFD6BA"/>
<path d="M230.487 188.615C233.009 188.615 235.054 186.57 235.054 184.047C235.054 181.524 233.009 179.479 230.487 179.479C227.964 179.479 225.919 181.524 225.919 184.047C225.919 186.57 227.964 188.615 230.487 188.615Z" fill="#89B0AE"/>
<path d="M236.108 227.269C236.108 227.269 231.541 216.024 245.243 207.59L236.108 227.269Z" fill="#89B0AE"/>
<path d="M230.491 227.065C230.491 227.065 228.412 215.107 212.323 215.209L230.491 227.065Z" fill="#89B0AE"/>
</g>
<path d="M34.6758 274.409V245.795H40.3008C41.3164 247.384 43.3802 250.587 46.4922 255.405C49.6042 260.222 51.4987 263.152 52.1758 264.194C52.3711 264.493 52.7031 265.001 53.1719 265.717C53.6536 266.42 53.9922 266.922 54.1875 267.221C54.0964 262.755 54.0508 260.437 54.0508 260.268V245.795H58.875V274.409H53.1719L40.2617 254.292L39.3242 252.749C39.4284 256.186 39.4805 258.601 39.4805 259.995V274.409H34.6758ZM73.8945 270.932C75.6263 270.932 76.9284 270.301 77.8008 269.038C78.6732 267.775 79.1094 265.965 79.1094 263.608C79.1094 261.225 78.6732 259.409 77.8008 258.159C76.9284 256.909 75.6133 256.284 73.8555 256.284C72.1237 256.284 70.8151 256.915 69.9297 258.178C69.0573 259.428 68.6211 261.245 68.6211 263.627C68.6211 265.971 69.0638 267.775 69.9492 269.038C70.8346 270.301 72.1497 270.932 73.8945 270.932ZM73.7578 274.819C70.5807 274.819 68.0807 273.79 66.2578 271.733C64.4349 269.676 63.5234 266.967 63.5234 263.608C63.5234 260.144 64.4349 257.417 66.2578 255.424C68.0807 253.419 70.6523 252.417 73.9727 252.417C77.1758 252.417 79.6823 253.439 81.4922 255.483C83.3151 257.514 84.2266 260.222 84.2266 263.608C84.2266 267.032 83.3086 269.76 81.4727 271.792C79.6367 273.81 77.0651 274.819 73.7578 274.819ZM107.566 274.702C106.108 274.702 104.891 274.532 103.914 274.194C102.951 273.842 102.195 273.295 101.648 272.553C101.102 271.811 100.711 270.939 100.477 269.936C100.255 268.92 100.145 267.67 100.145 266.186V256.049H96.6289L96.8242 253.276L100.496 252.944L102.137 247.124L105.262 247.104V252.944H110.594V256.049H105.262V266.284C105.262 267.911 105.496 269.07 105.965 269.76C106.434 270.45 107.299 270.795 108.562 270.795C109.305 270.795 110.099 270.73 110.945 270.6L111.082 274.272C111.056 274.272 110.893 274.305 110.594 274.37C110.307 274.422 110.027 274.467 109.754 274.506C109.493 274.558 109.155 274.604 108.738 274.643C108.322 274.682 107.931 274.702 107.566 274.702ZM114.695 274.409V245.034L119.812 244.702V250.893C119.812 251.193 119.793 252.026 119.754 253.393C119.715 254.747 119.695 255.437 119.695 255.463C121.401 253.432 123.693 252.417 126.57 252.417C128.966 252.417 130.822 253.107 132.137 254.487C133.465 255.854 134.129 257.963 134.129 260.815V274.409H129.012V261.381C129.012 259.624 128.732 258.334 128.172 257.514C127.612 256.694 126.661 256.284 125.32 256.284C124.174 256.284 123.159 256.577 122.273 257.163C121.388 257.736 120.724 258.478 120.281 259.389C119.969 260.587 119.812 262.15 119.812 264.077V274.409H114.695ZM148.543 270.932C150.275 270.932 151.577 270.301 152.449 269.038C153.322 267.775 153.758 265.965 153.758 263.608C153.758 261.225 153.322 259.409 152.449 258.159C151.577 256.909 150.262 256.284 148.504 256.284C146.772 256.284 145.464 256.915 144.578 258.178C143.706 259.428 143.27 261.245 143.27 263.627C143.27 265.971 143.712 267.775 144.598 269.038C145.483 270.301 146.798 270.932 148.543 270.932ZM148.406 274.819C145.229 274.819 142.729 273.79 140.906 271.733C139.083 269.676 138.172 266.967 138.172 263.608C138.172 260.144 139.083 257.417 140.906 255.424C142.729 253.419 145.301 252.417 148.621 252.417C151.824 252.417 154.331 253.439 156.141 255.483C157.964 257.514 158.875 260.222 158.875 263.608C158.875 267.032 157.957 269.76 156.121 271.792C154.285 273.81 151.714 274.819 148.406 274.819ZM178.543 272.729C176.837 274.122 174.591 274.819 171.805 274.819C169.018 274.819 166.772 274.122 165.066 272.729C163.374 271.336 162.527 269.292 162.527 266.596V252.944H167.664V266.401C167.664 268.002 167.996 269.161 168.66 269.877C169.337 270.594 170.405 270.952 171.863 270.952C173.296 270.952 174.337 270.6 174.988 269.897C175.652 269.181 175.984 268.015 175.984 266.401V252.944H181.102V266.596C181.102 269.278 180.249 271.323 178.543 272.729ZM190.086 284.018L189.793 279.877H192.391C195.398 279.877 197.501 279.474 198.699 278.667C199.897 277.872 200.496 276.407 200.496 274.272C200.496 273.4 200.457 272.456 200.379 271.44C200.04 271.909 199.715 272.299 199.402 272.612C199.103 272.911 198.719 273.211 198.25 273.51C197.794 273.81 197.241 274.038 196.59 274.194C195.952 274.337 195.223 274.409 194.402 274.409C191.564 274.409 189.227 273.387 187.391 271.342C185.568 269.298 184.656 266.661 184.656 263.432C184.656 261.713 184.91 260.151 185.418 258.745C185.926 257.325 186.616 256.16 187.488 255.249C188.361 254.337 189.363 253.64 190.496 253.159C191.642 252.664 192.859 252.417 194.148 252.417C197.026 252.417 199.168 253.465 200.574 255.561L200.926 252.944H205.496V272.885C205.496 273.953 205.444 274.91 205.34 275.756C205.236 276.616 205.053 277.436 204.793 278.217C204.533 279.012 204.188 279.702 203.758 280.288C203.341 280.874 202.814 281.407 202.176 281.889C201.538 282.371 200.783 282.762 199.91 283.061C199.051 283.374 198.048 283.608 196.902 283.764C195.757 283.933 194.467 284.018 193.035 284.018H190.086ZM195.223 270.834C198.751 270.834 200.535 268.471 200.574 263.745V263.002C200.548 260.88 200.105 259.239 199.246 258.081C198.387 256.922 197.13 256.336 195.477 256.323C193.602 256.323 192.182 256.967 191.219 258.256C190.255 259.532 189.773 261.258 189.773 263.432C189.773 265.528 190.255 267.286 191.219 268.706C192.195 270.125 193.53 270.834 195.223 270.834ZM210.555 274.409V245.034L215.672 244.702V250.893C215.672 251.193 215.652 252.026 215.613 253.393C215.574 254.747 215.555 255.437 215.555 255.463C217.26 253.432 219.552 252.417 222.43 252.417C224.826 252.417 226.681 253.107 227.996 254.487C229.324 255.854 229.988 257.963 229.988 260.815V274.409H224.871V261.381C224.871 259.624 224.591 258.334 224.031 257.514C223.471 256.694 222.521 256.284 221.18 256.284C220.034 256.284 219.018 256.577 218.133 257.163C217.247 257.736 216.583 258.478 216.141 259.389C215.828 260.587 215.672 262.15 215.672 264.077V274.409H210.555ZM243.621 274.702C242.163 274.702 240.945 274.532 239.969 274.194C239.005 273.842 238.25 273.295 237.703 272.553C237.156 271.811 236.766 270.939 236.531 269.936C236.31 268.92 236.199 267.67 236.199 266.186V256.049H232.684L232.879 253.276L236.551 252.944L238.191 247.124L241.316 247.104V252.944H246.648V256.049H241.316V266.284C241.316 267.911 241.551 269.07 242.02 269.76C242.488 270.45 243.354 270.795 244.617 270.795C245.359 270.795 246.154 270.73 247 270.6L247.137 274.272C247.111 274.272 246.948 274.305 246.648 274.37C246.362 274.422 246.082 274.467 245.809 274.506C245.548 274.558 245.21 274.604 244.793 274.643C244.376 274.682 243.986 274.702 243.621 274.702ZM257.605 274.799C254.441 274.799 251.909 274.259 250.008 273.178L250.535 269.331C251.395 269.799 252.488 270.222 253.816 270.6C255.145 270.965 256.355 271.147 257.449 271.147C258.582 271.147 259.461 270.939 260.086 270.522C260.724 270.092 261.049 269.467 261.062 268.647C261.062 267.905 260.763 267.319 260.164 266.889C259.578 266.459 258.452 265.926 256.785 265.288C256.212 265.079 255.841 264.943 255.672 264.877C253.693 264.109 252.267 263.256 251.395 262.319C250.522 261.368 250.086 260.086 250.086 258.471C250.086 256.518 250.789 255.021 252.195 253.979C253.615 252.937 255.587 252.417 258.113 252.417C260.848 252.417 263.25 252.931 265.32 253.959L264.051 257.495C262.007 256.544 260.06 256.069 258.211 256.069C257.182 256.069 256.375 256.245 255.789 256.596C255.216 256.935 254.93 257.456 254.93 258.159C254.93 258.823 255.21 259.344 255.77 259.721C256.329 260.086 257.423 260.568 259.051 261.167C259.103 261.18 259.272 261.238 259.559 261.342C259.845 261.446 260.066 261.531 260.223 261.596C262.189 262.312 263.634 263.172 264.559 264.174C265.483 265.164 265.945 266.459 265.945 268.061C265.932 270.209 265.203 271.87 263.758 273.042C262.312 274.213 260.262 274.799 257.605 274.799ZM67.8203 325.409V303.944H72.1172L72.7812 307.225C74.1875 304.972 76.2253 303.846 78.8945 303.846C79.4544 303.846 79.9102 303.872 80.2617 303.924L80.1836 308.202C79.6628 308.124 79.1224 308.084 78.5625 308.084C76.6745 308.084 75.2617 308.586 74.3242 309.588C73.3997 310.591 72.9375 311.984 72.9375 313.768V325.409H67.8203ZM93.1133 325.819C89.6628 325.819 86.974 324.829 85.0469 322.85C83.1328 320.858 82.1758 318.111 82.1758 314.608C82.1758 311.196 83.0807 308.482 84.8906 306.463C86.7005 304.445 89.168 303.43 92.293 303.417C95.2487 303.417 97.5404 304.341 99.168 306.19C100.809 308.039 101.629 310.493 101.629 313.553C101.629 313.775 101.622 314.133 101.609 314.627C101.609 315.122 101.609 315.487 101.609 315.721H87.332C87.3841 317.726 87.931 319.282 88.9727 320.389C90.0273 321.483 91.4727 322.03 93.3086 322.03C95.6523 322.03 97.9049 321.418 100.066 320.194L100.789 323.827C98.6406 325.155 96.082 325.819 93.1133 325.819ZM87.4297 312.499H96.8047C96.8047 310.754 96.4076 309.413 95.6133 308.475C94.819 307.538 93.7188 307.069 92.3125 307.069C90.9974 307.069 89.8841 307.525 88.9727 308.436C88.0742 309.347 87.5599 310.702 87.4297 312.499ZM115.203 325.819C111.922 325.819 109.363 324.842 107.527 322.889C105.704 320.936 104.793 318.143 104.793 314.51C104.793 310.995 105.75 308.267 107.664 306.327C109.591 304.387 112.124 303.417 115.262 303.417C117.775 303.417 119.897 303.957 121.629 305.038L120.418 308.69C118.647 307.765 117 307.303 115.477 307.303C113.745 307.303 112.378 307.922 111.375 309.159C110.385 310.396 109.891 312.199 109.891 314.569C109.891 316.965 110.379 318.788 111.355 320.038C112.345 321.288 113.738 321.913 115.535 321.913C117.41 321.913 119.214 321.359 120.945 320.252L121.434 324.139C120.535 324.738 119.604 325.168 118.641 325.428C117.677 325.689 116.531 325.819 115.203 325.819ZM134.695 321.932C136.427 321.932 137.729 321.301 138.602 320.038C139.474 318.775 139.91 316.965 139.91 314.608C139.91 312.225 139.474 310.409 138.602 309.159C137.729 307.909 136.414 307.284 134.656 307.284C132.924 307.284 131.616 307.915 130.73 309.178C129.858 310.428 129.422 312.245 129.422 314.627C129.422 316.971 129.865 318.775 130.75 320.038C131.635 321.301 132.951 321.932 134.695 321.932ZM134.559 325.819C131.382 325.819 128.882 324.79 127.059 322.733C125.236 320.676 124.324 317.967 124.324 314.608C124.324 311.144 125.236 308.417 127.059 306.424C128.882 304.419 131.453 303.417 134.773 303.417C137.977 303.417 140.483 304.439 142.293 306.483C144.116 308.514 145.027 311.222 145.027 314.608C145.027 318.032 144.109 320.76 142.273 322.792C140.438 324.81 137.866 325.819 134.559 325.819ZM149.227 325.409V303.944H153.523L154.188 307.225C155.594 304.972 157.632 303.846 160.301 303.846C160.861 303.846 161.316 303.872 161.668 303.924L161.59 308.202C161.069 308.124 160.529 308.084 159.969 308.084C158.081 308.084 156.668 308.586 155.73 309.588C154.806 310.591 154.344 311.984 154.344 313.768V325.409H149.227ZM172.586 325.819C169.786 325.819 167.586 324.79 165.984 322.733C164.383 320.676 163.582 317.928 163.582 314.491C163.582 311.157 164.376 308.482 165.965 306.463C167.566 304.432 169.767 303.417 172.566 303.417C175.613 303.417 177.768 304.497 179.031 306.659C178.901 305.383 178.836 304.152 178.836 302.967V296.034L183.953 295.702V325.409H179.52L178.953 322.479C178.732 322.831 178.523 323.137 178.328 323.397C178.146 323.644 177.872 323.937 177.508 324.276C177.143 324.601 176.746 324.868 176.316 325.077C175.9 325.272 175.366 325.441 174.715 325.584C174.077 325.741 173.367 325.819 172.586 325.819ZM173.797 321.932C177.234 321.932 178.979 319.595 179.031 314.92C179.031 312.277 178.589 310.35 177.703 309.139C176.818 307.928 175.496 307.323 173.738 307.323C172.202 307.323 170.971 307.941 170.047 309.178C169.135 310.402 168.68 312.212 168.68 314.608C168.68 316.991 169.135 318.807 170.047 320.057C170.971 321.307 172.221 321.932 173.797 321.932ZM199.09 325.819C195.639 325.819 192.951 324.829 191.023 322.85C189.109 320.858 188.152 318.111 188.152 314.608C188.152 311.196 189.057 308.482 190.867 306.463C192.677 304.445 195.145 303.43 198.27 303.417C201.225 303.417 203.517 304.341 205.145 306.19C206.785 308.039 207.605 310.493 207.605 313.553C207.605 313.775 207.599 314.133 207.586 314.627C207.586 315.122 207.586 315.487 207.586 315.721H193.309C193.361 317.726 193.908 319.282 194.949 320.389C196.004 321.483 197.449 322.03 199.285 322.03C201.629 322.03 203.882 321.418 206.043 320.194L206.766 323.827C204.617 325.155 202.059 325.819 199.09 325.819ZM193.406 312.499H202.781C202.781 310.754 202.384 309.413 201.59 308.475C200.796 307.538 199.695 307.069 198.289 307.069C196.974 307.069 195.861 307.525 194.949 308.436C194.051 309.347 193.536 310.702 193.406 312.499ZM219.773 325.819C216.974 325.819 214.773 324.79 213.172 322.733C211.57 320.676 210.77 317.928 210.77 314.491C210.77 311.157 211.564 308.482 213.152 306.463C214.754 304.432 216.954 303.417 219.754 303.417C222.801 303.417 224.956 304.497 226.219 306.659C226.089 305.383 226.023 304.152 226.023 302.967V296.034L231.141 295.702V325.409H226.707L226.141 322.479C225.919 322.831 225.711 323.137 225.516 323.397C225.333 323.644 225.06 323.937 224.695 324.276C224.331 324.601 223.934 324.868 223.504 325.077C223.087 325.272 222.553 325.441 221.902 325.584C221.264 325.741 220.555 325.819 219.773 325.819ZM220.984 321.932C224.422 321.932 226.167 319.595 226.219 314.92C226.219 312.277 225.776 310.35 224.891 309.139C224.005 307.928 222.684 307.323 220.926 307.323C219.389 307.323 218.159 307.941 217.234 309.178C216.323 310.402 215.867 312.212 215.867 314.608C215.867 316.991 216.323 318.807 217.234 320.057C218.159 321.307 219.409 321.932 220.984 321.932Z" fill="white"/>
<defs>
<clipPath id="clip0">
<rect width="299" height="262.162" fill="white" transform="translate(0 0.246338)"/>
</clipPath>
</defs>
</svg>
