<svg width="100" height="70" viewBox="0 0 100 70" fill="none" xmlns="http://www.w3.org/2000/svg">
<g clip-path="url(#clip0)">
<path d="M79.6634 30.9781L79.9603 28.492C80.0658 27.6084 80.5029 26.8048 81.1754 26.258C81.8479 25.7112 82.7008 25.4659 83.5464 25.5761C84.392 25.6864 85.161 26.1431 85.6844 26.8458C86.2077 27.5485 86.4424 28.4397 86.3369 29.3232L86.0401 31.8094C86.0258 31.928 85.9671 32.0359 85.8768 32.1093C85.7864 32.1827 85.672 32.2157 85.5584 32.2011L80.0383 31.4815C79.9247 31.4665 79.8215 31.4051 79.7512 31.3108C79.681 31.2164 79.6494 31.0968 79.6634 30.9781Z" fill="#555B6E"/>
<path d="M82.3074 31.7198C83.6084 31.7198 84.663 30.6177 84.663 29.2583C84.663 27.8989 83.6084 26.7969 82.3074 26.7969C81.0063 26.7969 79.9517 27.8989 79.9517 29.2583C79.9517 30.6177 81.0063 31.7198 82.3074 31.7198Z" fill="#FFB8B8"/>
<path d="M79.1822 28.5925C79.2664 27.8939 79.6123 27.2587 80.1441 26.8263C80.676 26.3939 81.3502 26.1996 82.019 26.286L82.4949 26.348C83.1634 26.436 83.7713 26.7974 84.1852 27.3531C84.599 27.9088 84.785 28.6133 84.7023 29.3121L84.6964 29.3618L83.6907 29.2307L83.4675 28.1824L83.2791 29.1771L82.7593 29.1093L82.6468 28.5804L82.5517 29.0822L79.1763 28.6422L79.1822 28.5925Z" fill="#555B6E"/>
<path d="M70.7856 38.0388C70.8576 38.1865 70.9598 38.3159 71.0848 38.4179C71.2098 38.5199 71.3548 38.5921 71.5094 38.6292C71.664 38.6664 71.8245 38.6676 71.9796 38.6329C72.1348 38.5983 72.2807 38.5285 72.4072 38.4285L74.5468 39.7381L75.6256 38.5736L72.5792 36.7685C72.4044 36.5575 72.1615 36.4209 71.8967 36.3846C71.6319 36.3482 71.3635 36.4146 71.1424 36.5712C70.9214 36.7278 70.7629 36.9637 70.6972 37.2342C70.6314 37.5047 70.6629 37.791 70.7856 38.0388Z" fill="#FFB8B8"/>
<path d="M77.7985 40.3921C76.2203 40.3921 73.4431 39.6539 73.2893 39.6126L73.2407 39.5996L73.6778 37.2872L77.9197 38.1627L80.2242 34.7719L82.8699 34.4908L82.7961 34.5924C82.7617 34.6397 79.3512 39.3308 78.8204 40.1177C78.6865 40.3163 78.3039 40.3921 77.7985 40.3921Z" fill="#555B6E"/>
<path d="M78.2213 49.071L78.1582 49.0395C78.1447 49.0328 76.8038 48.3513 76.1093 47.0209C75.4181 45.6967 78.6538 40.0798 78.8802 39.6901L78.8835 37.9063L80.0475 34.6225L81.5319 33.7458L80.2574 36.8532L78.2213 49.071Z" fill="#555B6E"/>
<path d="M76.7343 68.2431L75.3156 68.243L74.6406 62.525L76.7345 62.5251L76.7343 68.2431Z" fill="#FFB8B8"/>
<path d="M77.0961 69.68L72.5215 69.6798V69.6194C72.5215 69.126 72.7091 68.6528 73.043 68.3039C73.377 67.955 73.8298 67.7589 74.302 67.7589H74.3022L77.0962 67.759L77.0961 69.68Z" fill="#555B6E"/>
<path d="M91.9734 66.944L90.6252 67.4055L88.2798 62.1915L90.2696 61.5103L91.9734 66.944Z" fill="#FFB8B8"/>
<path d="M92.7452 68.1918L88.398 69.6801L88.38 69.6226C88.233 69.1537 88.2702 68.643 88.4836 68.2028C88.6969 67.7626 89.0689 67.429 89.5176 67.2753L89.5177 67.2753L92.1728 66.3663L92.7452 68.1918Z" fill="#555B6E"/>
<path d="M89.2265 66.0092L85.182 58.9541L81.7679 51.4165L78.6955 58.0747L77.475 66.6981L73.1948 66.7603L73.2117 66.6903L79.7618 39.4957L84.8917 40.2965L84.6582 43.8347L84.7972 44.0413C85.9561 45.7615 87.1543 47.54 86.4671 49.4571L88.4152 55.5014L92.7276 65.5657L89.2265 66.0092Z" fill="#555B6E"/>
<path d="M79.9959 45.3895C79.2526 45.3895 78.4045 44.5027 78.8445 42.9886L78.816 42.967L79.8728 38.0884C78.9505 36.7103 80.1665 35.5729 80.2804 35.4713L80.8608 34.3796L83.4217 32.6826L84.7175 43.9318L84.6983 43.951C83.7625 44.8866 80.6195 45.3895 79.9959 45.3895Z" fill="#89B0AE"/>
<path d="M85.2408 47.9279C85.1391 47.9296 85.0375 47.9184 84.9383 47.8945C84.8387 47.8684 84.6775 47.7359 84.4283 46.8882C83.4378 43.5184 82.2683 33.379 83.118 32.3868L83.1374 32.3641L84.5324 32.607C84.6484 32.5176 85.2569 32.0737 85.8185 32.1509C85.9341 32.1661 86.0455 32.2059 86.1458 32.2679C86.2461 32.3298 86.3331 32.4126 86.4016 32.5111L86.4112 32.5243L86.8557 39.1308L88.4838 46.9053L88.4448 46.9238C88.3501 46.9689 86.317 47.9279 85.2408 47.9279Z" fill="#555B6E"/>
<path d="M84.3024 45.3458C84.461 45.3403 84.6164 45.2985 84.7578 45.2234C84.8993 45.1483 85.0232 45.0417 85.121 44.9111C85.2187 44.7806 85.2878 44.6292 85.3235 44.4677C85.3592 44.3062 85.3606 44.1385 85.3275 43.9763L87.3697 42.5066L86.8176 40.9921L83.9616 43.1099C83.7046 43.186 83.4833 43.3579 83.3395 43.5931C83.1957 43.8283 83.1395 44.1104 83.1816 44.386C83.2236 44.6616 83.3609 44.9115 83.5674 45.0884C83.774 45.2653 84.0355 45.3569 84.3024 45.3458Z" fill="#FFB8B8"/>
<path d="M86.696 43.6842L84.877 42.2904L87.4339 38.6471L85.4717 35.0289L86.3496 32.4059L86.4063 32.5188C86.4327 32.5715 89.0532 37.7876 89.5103 38.6235C89.9859 39.493 86.8611 43.4747 86.7279 43.6437L86.696 43.6842Z" fill="#555B6E"/>
<path d="M45.7779 60.0822L44.2298 59.401L43.1677 51.2916H29.0247L27.8735 59.3679L26.4885 60.0915C26.4222 60.1261 26.369 60.1831 26.3376 60.2533C26.3062 60.3234 26.2984 60.4025 26.3154 60.4779C26.3325 60.5532 26.3733 60.6204 26.4314 60.6684C26.4895 60.7164 26.5615 60.7426 26.6356 60.7426H45.6504C45.7263 60.7426 45.7999 60.7151 45.8587 60.6649C45.9174 60.6147 45.9578 60.5447 45.9728 60.4669C45.9878 60.3892 45.9766 60.3083 45.9411 60.2382C45.9056 60.1681 45.8479 60.1129 45.7779 60.0822Z" fill="#FAF9F9"/>
<path d="M70.9112 52.3705H1.43681C1.0723 52.3697 0.722993 52.2178 0.465532 51.9482C0.208072 51.6785 0.063479 51.3132 0.0634766 50.9324V40.6958H72.2846V50.9324C72.2846 51.3132 72.14 51.6785 71.8825 51.9482C71.625 52.2178 71.2757 52.3697 70.9112 52.3705Z" fill="#FAF9F9"/>
<path d="M72.3571 45.5338H0V1.73372C0.000508268 1.27406 0.175491 0.83338 0.48656 0.508359C0.797629 0.183337 1.21938 0.000515506 1.65929 0H70.6978C71.1377 0.000514324 71.5595 0.183336 71.8705 0.508357C72.1816 0.833378 72.3566 1.27406 72.3571 1.73372V45.5338Z" fill="#555B6E"/>
<path d="M68.0356 42.3548H4.32167C3.98253 42.3544 3.65738 42.2135 3.41757 41.9629C3.17776 41.7123 3.04286 41.3726 3.04248 41.0182V4.51562C3.04286 4.16124 3.17775 3.82149 3.41756 3.57091C3.65737 3.32032 3.98252 3.17936 4.32167 3.17896H68.0356C68.3747 3.17936 68.6999 3.32032 68.9397 3.57091C69.1795 3.82149 69.3144 4.16124 69.3148 4.51562V41.0182C69.3144 41.3726 69.1795 41.7123 68.9397 41.9629C68.6999 42.2135 68.3747 42.3544 68.0356 42.3548Z" fill="#FAF9F9"/>
<path d="M54.047 60.8272H18.2453C18.2086 60.828 18.1727 60.8161 18.1432 60.7934C18.1137 60.7706 18.0922 60.7383 18.082 60.7015C18.0757 60.6764 18.075 60.6502 18.0799 60.6247C18.0848 60.5993 18.0952 60.5754 18.1103 60.5549C18.1255 60.5343 18.1449 60.5177 18.1672 60.5062C18.1895 60.4948 18.2139 60.4888 18.2387 60.4888H54.0338C54.0725 60.4873 54.1105 60.4996 54.1416 60.5237C54.1727 60.5477 54.1952 60.582 54.2052 60.6211C54.2105 60.6458 54.2104 60.6715 54.2049 60.6962C54.1993 60.7209 54.1886 60.744 54.1734 60.7638C54.1582 60.7835 54.139 60.7995 54.1171 60.8105C54.0953 60.8214 54.0713 60.8271 54.047 60.8272Z" fill="#FAF9F9"/>
<path d="M67.3551 9.08032H51.9717V21.3604H67.3551V9.08032Z" fill="#FAF9F9"/>
<path d="M66.591 9.69055H52.7363V20.7503H66.591V9.69055Z" fill="#FAF9F9"/>
<path d="M59.9069 17.8941C59.9087 17.8941 59.9105 17.8941 59.9124 17.894C60.8502 17.8427 61.7342 17.4201 62.3845 16.7122C63.0347 16.0042 63.4026 15.064 63.4131 14.0828C63.4236 13.1016 63.0761 12.153 62.4411 11.43C61.8062 10.707 60.9315 10.2638 59.995 10.1906C59.9834 10.1896 59.9718 10.1912 59.9608 10.1952C59.9499 10.1991 59.9398 10.2054 59.9313 10.2137C59.9227 10.2218 59.9159 10.2316 59.9112 10.2426C59.9066 10.2536 59.9041 10.2655 59.904 10.2775L59.8232 17.805C59.823 17.8284 59.8317 17.8509 59.8474 17.8676C59.8631 17.8843 59.8845 17.8938 59.9069 17.8941Z" fill="#555B6E"/>
<path d="M57.0098 11.4353C57.0385 11.4357 57.066 11.4479 57.0861 11.4694L59.5662 14.1195C59.5762 14.1301 59.584 14.1427 59.5893 14.1565C59.5946 14.1703 59.5973 14.1851 59.5971 14.1999L59.5584 17.8019C59.5583 17.8173 59.5551 17.8326 59.5491 17.8467C59.5431 17.8608 59.5343 17.8735 59.5234 17.8839C59.5124 17.8944 59.4995 17.9025 59.4854 17.9076C59.4713 17.9127 59.4564 17.9147 59.4416 17.9136C58.752 17.8596 58.0905 17.6059 57.5314 17.1807C56.9722 16.7556 56.5377 16.176 56.2765 15.507C56.0152 14.838 55.9378 14.1061 56.0527 13.3936C56.1677 12.6812 56.4705 12.0163 56.9271 11.4738C56.937 11.4621 56.9491 11.4526 56.9626 11.446C56.9761 11.4394 56.9908 11.4358 57.0058 11.4353C57.0071 11.4353 57.0084 11.4353 57.0098 11.4353Z" fill="#FAF9F9"/>
<path d="M59.5317 10.1598C59.5594 10.1601 59.586 10.1715 59.606 10.1915C59.6167 10.2022 59.6252 10.215 59.6309 10.2293C59.6366 10.2436 59.6395 10.2589 59.6393 10.2744L59.6044 13.5243C59.6042 13.5467 59.5976 13.5685 59.5855 13.5869C59.5734 13.6054 59.5563 13.6197 59.5364 13.628C59.5166 13.6364 59.4948 13.6383 59.4738 13.6337C59.4528 13.6291 59.4337 13.6181 59.4187 13.6021L57.2545 11.2895C57.2442 11.2785 57.2362 11.2655 57.2309 11.2511C57.2256 11.2368 57.2232 11.2215 57.2237 11.2061C57.2243 11.1907 57.2278 11.1757 57.2341 11.1618C57.2404 11.1479 57.2493 11.1355 57.2603 11.1253C57.8898 10.5464 58.6877 10.2063 59.525 10.1599C59.5273 10.1598 59.5295 10.1598 59.5317 10.1598Z" fill="#89B0AE"/>
<path d="M58.4167 19.455C58.4153 19.5921 58.3749 19.7257 58.3008 19.8389C58.2267 19.952 58.1221 20.0396 58.0003 20.0907C57.8785 20.1417 57.745 20.1539 57.6166 20.1256C57.4882 20.0974 57.3707 20.03 57.2789 19.9319C57.1872 19.8339 57.1253 19.7096 57.1012 19.5749C57.077 19.4401 57.0917 19.3009 57.1432 19.1748C57.1948 19.0487 57.281 18.9415 57.3909 18.8666C57.5008 18.7917 57.6295 18.7525 57.7607 18.7541C57.9366 18.7563 58.1045 18.8314 58.2274 18.9628C58.3504 19.0942 58.4185 19.2713 58.4167 19.455Z" fill="#89B0AE"/>
<path d="M60.3122 19.4771C60.3108 19.6142 60.2704 19.7478 60.1963 19.8609C60.1222 19.9741 60.0176 20.0617 59.8958 20.1128C59.774 20.1638 59.6405 20.176 59.5121 20.1477C59.3837 20.1195 59.2662 20.0521 59.1744 19.954C59.0827 19.856 59.0208 19.7317 58.9967 19.597C58.9725 19.4622 58.9872 19.323 59.0387 19.1969C59.0903 19.0708 59.1765 18.9636 59.2864 18.8887C59.3963 18.8138 59.525 18.7746 59.6563 18.7762C59.8321 18.7784 60 18.8535 60.123 18.9849C60.2459 19.1163 60.314 19.2934 60.3122 19.4771Z" fill="#555B6E"/>
<path d="M62.2077 19.4995C62.2063 19.6366 62.1659 19.7701 62.0918 19.8833C62.0177 19.9964 61.9131 20.0841 61.7913 20.1351C61.6695 20.1862 61.536 20.1983 61.4076 20.1701C61.2792 20.1418 61.1617 20.0744 61.07 19.9764C60.9782 19.8783 60.9164 19.7541 60.8922 19.6193C60.868 19.4845 60.8827 19.3453 60.9342 19.2192C60.9858 19.0932 61.072 18.9859 61.1819 18.911C61.2918 18.8361 61.4205 18.797 61.5518 18.7985C61.7276 18.8008 61.8955 18.8758 62.0185 19.0073C62.1414 19.1387 62.2095 19.3157 62.2077 19.4995Z" fill="#FAF9F9"/>
<path d="M67.1935 23.2931H51.8101V35.5732H67.1935V23.2931Z" fill="#FAF9F9"/>
<path d="M66.4289 23.9033H52.5742V34.963H66.4289V23.9033Z" fill="#FAF9F9"/>
<path d="M54.9249 27.5382C55.2426 27.5382 55.5001 27.2691 55.5001 26.9371C55.5001 26.6052 55.2426 26.3361 54.9249 26.3361C54.6072 26.3361 54.3496 26.6052 54.3496 26.9371C54.3496 27.2691 54.6072 27.5382 54.9249 27.5382Z" fill="#555B6E"/>
<path d="M64.1679 26.4695C64.2192 26.4694 64.27 26.4799 64.3174 26.5003C64.3648 26.5207 64.4079 26.5508 64.4442 26.5886C64.4805 26.6265 64.5093 26.6715 64.5289 26.721C64.5486 26.7705 64.5587 26.8235 64.5587 26.8771C64.5587 26.9307 64.5486 26.9838 64.5289 27.0333C64.5093 27.0828 64.4805 27.1277 64.4442 27.1656C64.4079 27.2034 64.3648 27.2335 64.3174 27.2539C64.27 27.2744 64.2192 27.2848 64.1679 27.2847H58.1177C58.0143 27.2847 57.915 27.2418 57.8419 27.1653C57.7687 27.0889 57.7276 26.9852 57.7276 26.8771C57.7276 26.769 57.7687 26.6653 57.8419 26.5889C57.915 26.5124 58.0143 26.4695 58.1177 26.4695H64.1679ZM64.1679 26.3696H58.1177C58.0539 26.3695 57.9907 26.3826 57.9317 26.408C57.8727 26.4335 57.819 26.4709 57.7739 26.518C57.7287 26.5651 57.6928 26.6211 57.6684 26.6827C57.6439 26.7443 57.6313 26.8104 57.6313 26.8771C57.6313 26.9438 57.6439 27.0099 57.6684 27.0715C57.6928 27.1331 57.7287 27.1891 57.7739 27.2362C57.819 27.2833 57.8727 27.3207 57.9317 27.3462C57.9907 27.3716 58.0539 27.3847 58.1177 27.3846H64.1679C64.2317 27.3847 64.295 27.3716 64.354 27.3462C64.413 27.3207 64.4666 27.2833 64.5118 27.2362C64.557 27.1891 64.5928 27.1331 64.6172 27.0715C64.6417 27.0099 64.6543 26.9438 64.6543 26.8771C64.6543 26.8104 64.6417 26.7443 64.6172 26.6827C64.5928 26.6211 64.557 26.5651 64.5118 26.518C64.4666 26.4709 64.413 26.4335 64.354 26.408C64.295 26.3826 64.2317 26.3695 64.1679 26.3696Z" fill="#555B6E"/>
<path d="M61.7804 27.3846H57.2259C57.0971 27.3846 56.9736 27.3311 56.8825 27.2359C56.7914 27.1408 56.7402 27.0117 56.7402 26.8771C56.7402 26.7425 56.7914 26.6134 56.8825 26.5183C56.9736 26.4231 57.0971 26.3696 57.2259 26.3696H61.7804C61.9092 26.3696 62.0328 26.4231 62.1238 26.5183C62.2149 26.6134 62.2661 26.7425 62.2661 26.8771C62.2661 27.0117 62.2149 27.1408 62.1238 27.2359C62.0328 27.3311 61.9092 27.3846 61.7804 27.3846Z" fill="#89B0AE"/>
<path d="M54.9249 30.0342C55.2426 30.0342 55.5001 29.7651 55.5001 29.4331C55.5001 29.1011 55.2426 28.832 54.9249 28.832C54.6072 28.832 54.3496 29.1011 54.3496 29.4331C54.3496 29.7651 54.6072 30.0342 54.9249 30.0342Z" fill="#555B6E"/>
<path d="M64.1677 28.9653C64.219 28.9652 64.2698 28.9757 64.3172 28.9962C64.3646 29.0166 64.4077 29.0466 64.444 29.0845C64.4802 29.1223 64.509 29.1673 64.5287 29.2168C64.5483 29.2663 64.5584 29.3194 64.5584 29.373C64.5584 29.4265 64.5483 29.4796 64.5287 29.5291C64.509 29.5786 64.4802 29.6236 64.444 29.6614C64.4077 29.6993 64.3646 29.7293 64.3172 29.7498C64.2698 29.7702 64.219 29.7807 64.1677 29.7806H58.1175C58.014 29.7806 57.9148 29.7376 57.8417 29.6612C57.7685 29.5848 57.7274 29.4811 57.7274 29.373C57.7274 29.2648 57.7685 29.1612 57.8417 29.0847C57.9148 29.0083 58.014 28.9653 58.1175 28.9653H64.1677ZM64.1677 28.8655H58.1175C57.9887 28.8655 57.8652 28.9189 57.7741 29.0141C57.683 29.1093 57.6318 29.2384 57.6318 29.373C57.6318 29.5075 57.683 29.6366 57.7741 29.7318C57.8652 29.827 57.9887 29.8804 58.1175 29.8804H64.1677C64.2965 29.8804 64.42 29.827 64.5111 29.7318C64.6022 29.6366 64.6534 29.5075 64.6534 29.373C64.6534 29.2384 64.6022 29.1093 64.5111 29.0141C64.42 28.9189 64.2965 28.8655 64.1677 28.8655Z" fill="#555B6E"/>
<path d="M63.5003 29.8804H57.2259C57.0971 29.8804 56.9736 29.827 56.8825 29.7318C56.7914 29.6366 56.7402 29.5075 56.7402 29.373C56.7402 29.2384 56.7914 29.1093 56.8825 29.0141C56.9736 28.9189 57.0971 28.8655 57.2259 28.8655H63.5003C63.6291 28.8655 63.7526 28.9189 63.8437 29.0141C63.9348 29.1093 63.986 29.2384 63.986 29.373C63.986 29.5075 63.9348 29.6366 63.8437 29.7318C63.7526 29.827 63.6291 29.8804 63.5003 29.8804Z" fill="#89B0AE"/>
<path d="M54.9249 32.5302C55.2426 32.5302 55.5001 32.261 55.5001 31.9291C55.5001 31.5971 55.2426 31.328 54.9249 31.328C54.6072 31.328 54.3496 31.5971 54.3496 31.9291C54.3496 32.261 54.6072 32.5302 54.9249 32.5302Z" fill="#555B6E"/>
<path d="M64.1677 31.4613C64.219 31.4612 64.2698 31.4717 64.3172 31.4921C64.3646 31.5126 64.4077 31.5426 64.444 31.5804C64.4802 31.6183 64.509 31.6633 64.5287 31.7128C64.5483 31.7623 64.5584 31.8153 64.5584 31.8689C64.5584 31.9225 64.5483 31.9756 64.5287 32.0251C64.509 32.0746 64.4802 32.1195 64.444 32.1574C64.4077 32.1953 64.3646 32.2253 64.3172 32.2457C64.2698 32.2662 64.219 32.2767 64.1677 32.2766H58.1175C58.014 32.2766 57.9148 32.2336 57.8417 32.1572C57.7685 32.0807 57.7274 31.977 57.7274 31.8689C57.7274 31.7608 57.7685 31.6571 57.8417 31.5807C57.9148 31.5042 58.014 31.4613 58.1175 31.4613H64.1677ZM64.1677 31.3615H58.1175C57.9887 31.3615 57.8652 31.4149 57.7741 31.5101C57.683 31.6053 57.6318 31.7343 57.6318 31.8689C57.6318 32.0035 57.683 32.1326 57.7741 32.2278C57.8652 32.3229 57.9887 32.3764 58.1175 32.3764H64.1677C64.2965 32.3764 64.42 32.3229 64.5111 32.2278C64.6022 32.1326 64.6534 32.0035 64.6534 31.8689C64.6534 31.7343 64.6022 31.6053 64.5111 31.5101C64.42 31.4149 64.2965 31.3615 64.1677 31.3615Z" fill="#555B6E"/>
<path d="M59.7741 32.3764H57.2261C57.1623 32.3765 57.0991 32.3635 57.0401 32.338C56.981 32.3125 56.9274 32.2752 56.8822 32.228C56.8371 32.1809 56.8012 32.1249 56.7768 32.0633C56.7523 32.0017 56.7397 31.9356 56.7397 31.8689C56.7397 31.8022 56.7523 31.7362 56.7768 31.6746C56.8012 31.6129 56.8371 31.557 56.8822 31.5098C56.9274 31.4627 56.981 31.4253 57.0401 31.3999C57.0991 31.3744 57.1623 31.3614 57.2261 31.3615H59.7741C59.9028 31.3616 60.0261 31.4152 60.1171 31.5104C60.208 31.6055 60.2591 31.7345 60.2591 31.8689C60.2591 32.0034 60.208 32.1324 60.1171 32.2275C60.0261 32.3227 59.9028 32.3762 59.7741 32.3764Z" fill="#89B0AE"/>
<path d="M48.4092 11.2529H5.43066V34.2682H48.4092V11.2529Z" fill="#FAF9F9"/>
<path d="M46.9766 12.3966H6.86328V33.1246H46.9766V12.3966Z" fill="#FAF9F9"/>
<path d="M42.0018 29.9623H12.76C12.7357 29.9623 12.7124 29.9523 12.6953 29.9343C12.6781 29.9164 12.6685 29.8921 12.6685 29.8667V15.222C12.6685 15.1966 12.6781 15.1723 12.6953 15.1543C12.7124 15.1364 12.7357 15.1263 12.76 15.1263C12.7842 15.1263 12.8075 15.1364 12.8247 15.1543C12.8418 15.1723 12.8515 15.1966 12.8515 15.222V29.7711H42.0018C42.0261 29.7711 42.0494 29.7812 42.0665 29.7991C42.0837 29.817 42.0933 29.8414 42.0933 29.8667C42.0933 29.8921 42.0837 29.9164 42.0665 29.9343C42.0494 29.9523 42.0261 29.9623 42.0018 29.9623Z" fill="#555B6E"/>
<path d="M19.008 28.9104H16.3483C16.2763 28.9104 16.2073 28.8804 16.1563 28.8272C16.1054 28.774 16.0767 28.7019 16.0767 28.6266V24.7957C16.0767 24.7204 16.1054 24.6483 16.1563 24.5951C16.2073 24.5419 16.2763 24.5119 16.3483 24.5118H19.008C19.08 24.5119 19.149 24.5419 19.2 24.5951C19.2509 24.6483 19.2796 24.7204 19.2796 24.7957V28.6266C19.2796 28.7019 19.2509 28.774 19.2 28.8272C19.149 28.8804 19.08 28.9104 19.008 28.9104Z" fill="#89B0AE"/>
<path d="M23.8581 28.9105H21.1984C21.1264 28.9104 21.0573 28.8805 21.0064 28.8273C20.9555 28.7741 20.9268 28.7019 20.9268 28.6267V21.1621C20.9268 21.0869 20.9555 21.0147 21.0064 20.9615C21.0573 20.9083 21.1264 20.8784 21.1984 20.8783H23.8581C23.9301 20.8784 23.9991 20.9083 24.0501 20.9615C24.101 21.0147 24.1296 21.0869 24.1297 21.1621V28.6267C24.1296 28.7019 24.101 28.7741 24.0501 28.8273C23.9991 28.8805 23.9301 28.9104 23.8581 28.9105Z" fill="#89B0AE"/>
<path d="M28.7082 28.9104H26.0485C25.9765 28.9104 25.9074 28.8804 25.8565 28.8272C25.8056 28.774 25.7769 28.7019 25.7769 28.6266V24.7957C25.7769 24.7204 25.8056 24.6483 25.8565 24.5951C25.9074 24.5419 25.9765 24.5119 26.0485 24.5118H28.7082C28.7802 24.5119 28.8492 24.5419 28.9002 24.5951C28.9511 24.6483 28.9798 24.7204 28.9798 24.7957V28.6266C28.9798 28.7019 28.9511 28.774 28.9002 28.8272C28.8492 28.8804 28.7802 28.9104 28.7082 28.9104Z" fill="#89B0AE"/>
<path d="M33.5583 28.9104H30.8986C30.8282 28.912 30.7601 28.8844 30.7092 28.8336C30.6583 28.7828 30.6287 28.713 30.627 28.6395V19.7149C30.6287 19.6413 30.6583 19.5715 30.7092 19.5207C30.7601 19.47 30.8282 19.4423 30.8986 19.4439H33.5583C33.6287 19.4423 33.6968 19.47 33.7477 19.5207C33.7986 19.5715 33.8282 19.6413 33.8299 19.7149V28.6395C33.8282 28.713 33.7986 28.7828 33.7477 28.8336C33.6968 28.8844 33.6287 28.912 33.5583 28.9104Z" fill="#89B0AE"/>
<path d="M38.4089 28.9105H35.7492C35.6772 28.9104 35.6081 28.8805 35.5572 28.8273C35.5063 28.7741 35.4776 28.7019 35.4775 28.6267V17.146C35.4776 17.0708 35.5063 16.9986 35.5572 16.9454C35.6081 16.8922 35.6772 16.8623 35.7492 16.8622H38.4089C38.4809 16.8623 38.5499 16.8922 38.6009 16.9454C38.6518 16.9986 38.6804 17.0708 38.6805 17.146V28.6267C38.6804 28.7019 38.6518 28.7741 38.6009 28.8273C38.5499 28.8805 38.4809 28.9104 38.4089 28.9105Z" fill="#89B0AE"/>
<path d="M17.678 23.3644C17.9812 23.3644 18.2271 23.1075 18.2271 22.7906C18.2271 22.4738 17.9812 22.2169 17.678 22.2169C17.3747 22.2169 17.1289 22.4738 17.1289 22.7906C17.1289 23.1075 17.3747 23.3644 17.678 23.3644Z" fill="#555B6E"/>
<path d="M22.5281 19.6351C22.8313 19.6351 23.0772 19.3783 23.0772 19.0614C23.0772 18.7445 22.8313 18.4877 22.5281 18.4877C22.2248 18.4877 21.979 18.7445 21.979 19.0614C21.979 19.3783 22.2248 19.6351 22.5281 19.6351Z" fill="#555B6E"/>
<path d="M27.3782 23.3644C27.6814 23.3644 27.9273 23.1075 27.9273 22.7906C27.9273 22.4738 27.6814 22.2169 27.3782 22.2169C27.0749 22.2169 26.8291 22.4738 26.8291 22.7906C26.8291 23.1075 27.0749 23.3644 27.3782 23.3644Z" fill="#555B6E"/>
<path d="M32.2288 17.8184C32.532 17.8184 32.7778 17.5615 32.7778 17.2446C32.7778 16.9278 32.532 16.6709 32.2288 16.6709C31.9255 16.6709 31.6797 16.9278 31.6797 17.2446C31.6797 17.5615 31.9255 17.8184 32.2288 17.8184Z" fill="#555B6E"/>
<path d="M37.0789 15.7147C37.3821 15.7147 37.6279 15.4579 37.6279 15.141C37.6279 14.8241 37.3821 14.5673 37.0789 14.5673C36.7756 14.5673 36.5298 14.8241 36.5298 15.141C36.5298 15.4579 36.7756 15.7147 37.0789 15.7147Z" fill="#555B6E"/>
<path d="M27.3899 22.9192L22.5282 19.1142L17.7327 22.8672L17.623 22.7142L22.5282 18.8752L27.3668 22.6621L32.1751 17.1641L32.1943 17.1559L37.0446 15.114L37.113 15.2914L32.282 17.3252L27.3899 22.9192Z" fill="#555B6E"/>
<path d="M99.8937 70H59.4713C59.4432 70 59.4162 69.9884 59.3963 69.9676C59.3764 69.9468 59.3652 69.9186 59.3652 69.8892C59.3652 69.8598 59.3764 69.8316 59.3963 69.8108C59.4162 69.79 59.4432 69.7783 59.4713 69.7783H99.8937C99.9218 69.7783 99.9488 69.79 99.9687 69.8108C99.9886 69.8316 99.9998 69.8598 99.9998 69.8892C99.9998 69.9186 99.9886 69.9468 99.9687 69.9676C99.9488 69.9884 99.9218 70 99.8937 70Z" fill="#FAF9F9"/>
</g>
<defs>
<clipPath id="clip0">
<rect width="100" height="70" fill="white"/>
</clipPath>
</defs>
</svg>
