<svg width="629" height="508" viewBox="0 0 629 508" fill="none" xmlns="http://www.w3.org/2000/svg">
<g clip-path="url(#clip0)">
<path opacity="0.1" d="M323.561 508.006C480.549 508.006 607.813 394.285 607.813 254.003C607.813 113.721 480.549 0 323.561 0C166.573 0 39.3094 113.721 39.3094 254.003C39.3094 394.285 166.573 508.006 323.561 508.006Z" fill="#89B0AE"/>
<path opacity="0.1" d="M104.809 400.198C162.693 400.198 209.618 392.916 209.618 383.933C209.618 374.949 162.693 367.667 104.809 367.667C46.9246 367.667 0 374.949 0 383.933C0 392.916 46.9246 400.198 104.809 400.198Z" fill="#6C63FF"/>
<path opacity="0.1" d="M155.184 477.69C177.699 477.69 195.95 473.915 195.95 469.258C195.95 464.601 177.699 460.826 155.184 460.826C132.67 460.826 114.418 464.601 114.418 469.258C114.418 473.915 132.67 477.69 155.184 477.69Z" fill="#6C63FF"/>
<path opacity="0.1" d="M433.738 445.25C456.253 445.25 474.504 441.475 474.504 436.819C474.504 432.162 456.253 428.387 433.738 428.387C411.224 428.387 392.973 432.162 392.973 436.819C392.973 441.475 411.224 445.25 433.738 445.25Z" fill="#6C63FF"/>
<path opacity="0.1" d="M295.409 438.172C332.021 438.172 361.701 433.138 361.701 426.928C361.701 420.718 332.021 415.684 295.409 415.684C258.797 415.684 229.117 420.718 229.117 426.928C229.117 433.138 258.797 438.172 295.409 438.172Z" fill="#6C63FF"/>
<path opacity="0.1" d="M490.738 392.95C567.101 392.95 629.006 383.242 629.006 371.267C629.006 359.292 567.101 349.583 490.738 349.583C414.374 349.583 352.469 359.292 352.469 371.267C352.469 383.242 414.374 392.95 490.738 392.95Z" fill="#6C63FF"/>
<path d="M28.658 333.422C25.5521 339.472 24.1015 346.237 24.4536 353.03C24.8057 359.823 26.948 366.402 30.6628 372.097C31.8815 373.928 33.0027 375.245 33.8984 375.593C38.1944 377.283 46.7985 381.438 46.7985 381.438L67.5165 373.287C67.5165 373.287 70.8802 355.472 74.061 340.176C76.2303 329.743 78.3265 320.488 79.1857 318.865C81.3306 314.868 79.1857 271.361 79.1857 271.361C79.1857 271.361 58.4676 269.97 52.7702 285.961L50.2779 290.842L28.658 333.422Z" fill="#FAF9F9"/>
<path opacity="0.1" d="M56.1642 338.229C68.7595 352.683 74.0731 340.182 74.0731 340.182C76.2424 329.749 78.3386 320.493 79.1978 318.871C81.3427 314.874 79.1978 271.367 79.1978 271.367C79.1978 271.367 58.4797 269.976 52.7823 285.967L50.29 290.848C48.6935 303.642 47.1153 327.827 56.1642 338.229Z" fill="white"/>
<path d="M58.9307 378.515L132.053 370.059L145.099 284.106L135.234 261.782C131.066 252.275 125.294 243.557 118.172 236.011C113.206 230.77 107.204 225.73 100.891 223.198C100.028 222.85 99.1473 222.549 98.2523 222.295C97.2234 221.982 96.1353 221.917 95.0764 222.105C94.0175 222.292 93.0179 222.728 92.1588 223.375C83.1403 229.775 79.9168 256.986 78.8748 270.086C78.4461 275.468 77.7199 280.823 76.6994 286.125L58.9307 378.515Z" fill="#FAF9F9"/>
<path opacity="0.1" d="M107.612 283.179L92.3781 320.701C100.361 314.856 112.188 283.026 112.188 283.026L122.785 319.316L114.339 281.068C115.576 272.762 115.935 264.349 115.412 255.968C114.741 246.365 105.741 230.953 100.854 223.192C99.9915 222.844 99.1108 222.543 98.2157 222.289C97.1868 221.976 96.0987 221.911 95.0398 222.099C93.981 222.286 92.9813 222.722 92.1222 223.369C95.9611 231.087 105.558 250.385 108.483 256.12C112.194 263.344 107.612 283.179 107.612 283.179Z" fill="white"/>
<path d="M120.049 381.438H159.724C161.356 381.438 162.971 381.106 164.471 380.462C165.971 379.818 167.324 378.875 168.449 377.691C169.573 376.507 170.446 375.106 171.013 373.574C171.579 372.041 171.829 370.41 171.747 368.778C170.869 351.743 168.645 321.372 163.356 302.092C160.498 291.69 157.177 286.229 154.13 283.539C152.701 282.158 150.857 281.289 148.884 281.068C147.387 280.938 145.889 281.302 144.618 282.105C137.251 289.176 128.647 326.387 128.647 326.387L120.049 381.438Z" fill="#A8A8A8"/>
<path opacity="0.1" d="M156.677 348.437C158.31 352.97 158.956 358.199 156.677 363.293L147.835 367.668C147.835 367.668 124.071 357.582 126.959 336.912C126.959 336.912 127.739 332.641 135.923 332.97C140.525 333.193 144.957 334.783 148.653 337.538C152.35 340.292 155.143 344.086 156.677 348.437V348.437Z" fill="white"/>
<path opacity="0.1" d="M147.232 294.1C146.958 286.852 150.888 284.338 154.136 283.539C152.707 282.158 150.863 281.29 148.89 281.068C146.629 282.962 145.027 285.525 144.313 288.389L136.026 328.834C136.026 328.834 147.695 306.247 147.232 294.1Z" fill="white"/>
<path d="M109.611 326.082L129.256 352.988L132.663 375.196L120.037 381.438L101.835 385.464C100.082 385.854 98.2798 385.972 96.4912 385.812L46.8228 381.438L53.5805 365.752L76.9188 332.946L109.611 326.082Z" fill="#FAF9F9"/>
<path opacity="0.1" d="M102.006 316.845C102.006 316.845 115.412 317.766 110.378 340.828C105.345 363.891 53.5562 365.739 53.5562 365.739C53.5562 365.739 64.5611 346.216 81.489 332.226C83.3901 330.658 85.2243 329.022 86.9731 327.278C90.8669 323.379 98.3132 316.527 102.006 316.845Z" fill="#FAF9F9"/>
<path opacity="0.1" d="M114.065 334.233C114.065 334.233 132.23 350.786 130.518 376.258Z" fill="black"/>
<path opacity="0.1" d="M144.624 282.105C144.624 282.105 125.564 307.486 123.425 346.539Z" fill="black"/>
<path opacity="0.1" d="M79.204 271.349C79.204 271.349 88.4296 313.294 65.396 344.91Z" fill="black"/>
<path d="M247.233 426.696H346.643C347.604 426.691 348.548 426.437 349.381 425.959C350.215 425.48 350.911 424.794 351.402 423.967C351.893 423.14 352.161 422.2 352.182 421.238C352.202 420.276 351.974 419.325 351.518 418.478L301.838 326.057C301.362 325.171 300.655 324.431 299.792 323.915C298.929 323.399 297.943 323.126 296.938 323.126C295.934 323.126 294.947 323.399 294.085 323.915C293.222 324.431 292.515 325.171 292.039 326.057L242.334 418.478C241.878 419.327 241.649 420.28 241.671 421.244C241.692 422.208 241.963 423.15 242.457 423.977C242.95 424.805 243.65 425.491 244.487 425.967C245.324 426.444 246.27 426.695 247.233 426.696V426.696ZM303.264 409.808H290.613V397.148H303.264V409.808ZM303.264 388.704H290.613V363.378H303.264V388.704Z" fill="#464353"/>
<path opacity="0.1" d="M247.233 426.696H346.643C347.604 426.691 348.548 426.437 349.381 425.959C350.215 425.48 350.911 424.794 351.402 423.967C351.893 423.14 352.161 422.2 352.182 421.238C352.202 420.276 351.974 419.325 351.518 418.478L301.838 326.057C301.362 325.171 300.655 324.431 299.792 323.915C298.929 323.399 297.943 323.126 296.938 323.126C295.934 323.126 294.947 323.399 294.085 323.915C293.222 324.431 292.515 325.171 292.039 326.057L242.334 418.478C241.878 419.327 241.649 420.28 241.671 421.244C241.692 422.208 241.963 423.15 242.457 423.977C242.95 424.805 243.65 425.491 244.487 425.967C245.324 426.444 246.27 426.695 247.233 426.696V426.696ZM303.264 409.808H290.613V397.148H303.264V409.808ZM303.264 388.704H290.613V363.378H303.264V388.704Z" fill="black"/>
<path d="M247.233 429.747H346.643C347.604 429.741 348.548 429.487 349.381 429.009C350.215 428.531 350.911 427.845 351.402 427.018C351.893 426.191 352.161 425.25 352.182 424.288C352.202 423.327 351.974 422.376 351.518 421.528L301.838 329.108C301.362 328.222 300.655 327.482 299.792 326.966C298.929 326.45 297.943 326.177 296.938 326.177C295.934 326.177 294.947 326.45 294.085 326.966C293.222 327.482 292.515 328.222 292.039 329.108L242.334 421.528C241.878 422.378 241.649 423.331 241.671 424.294C241.692 425.258 241.963 426.2 242.457 427.028C242.95 427.856 243.65 428.542 244.487 429.018C245.324 429.495 246.27 429.746 247.233 429.747V429.747ZM303.264 412.859H290.613V400.199H303.264V412.859ZM303.264 391.755H290.613V366.429H303.264V391.755Z" fill="#FFD6BA"/>
<path d="M142.473 144.427C142.406 145.702 143.04 146.867 143.412 148.087C144.027 150.444 143.965 152.927 143.235 155.25C142.552 157.69 141.407 160.271 142.278 162.657C142.479 163.218 142.784 163.731 142.967 164.292C143.722 166.61 142.321 169.051 140.785 170.948L146.812 175.176C147.692 175.907 148.738 176.408 149.859 176.635C150.986 176.769 152.296 176.165 152.528 175.054C152.607 174.676 152.528 174.279 152.601 173.895C152.675 173.398 152.867 172.926 153.16 172.518C153.454 172.111 153.841 171.78 154.289 171.552C155.194 171.108 156.203 170.92 157.207 171.009C160.906 171.211 164.05 173.645 167.414 175.207C169.632 176.168 171.93 176.932 174.282 177.489C175.616 177.836 177.097 178.154 178.303 177.489C179.51 176.824 180.064 175.28 179.973 173.883C179.786 172.493 179.352 171.148 178.693 169.911C178.028 168.675 177.628 167.314 177.517 165.915C177.517 163.865 178.638 161.998 179.016 159.984C179.546 157.123 178.468 154.213 177.152 151.614C175.835 149.015 174.239 146.513 173.599 143.682C173.472 142.824 173.249 141.983 172.935 141.175C172.63 140.561 172.217 140.007 171.716 139.54C169.455 137.3 166.232 136.239 163.075 136.007C159.919 135.775 156.732 136.294 153.6 136.837C152.405 137.007 151.228 137.287 150.084 137.673C148.449 138.323 146.897 139.165 145.459 140.18C144.033 141.169 142.565 142.614 142.473 144.427Z" fill="#464353"/>
<g opacity="0.1">
<path opacity="0.1" d="M177.499 164.664C177.499 164.847 177.499 165.03 177.535 165.207C177.724 163.42 178.663 161.742 178.998 159.954C179.127 159.238 179.166 158.508 179.114 157.782C179.114 158.099 179.053 158.392 178.998 158.734C178.614 160.747 177.475 162.614 177.499 164.664Z" fill="black"/>
<path opacity="0.1" d="M143.82 150.528C143.892 149.293 143.754 148.055 143.412 146.867C143.051 145.941 142.756 144.991 142.528 144.024C142.528 144.152 142.479 144.274 142.473 144.402C142.406 145.677 143.04 146.843 143.412 148.063C143.647 148.865 143.784 149.693 143.82 150.528V150.528Z" fill="black"/>
<path opacity="0.1" d="M179.918 173.547C179.875 174.092 179.705 174.62 179.422 175.087C179.138 175.555 178.749 175.949 178.285 176.238C177.066 176.903 175.598 176.586 174.263 176.238C171.91 175.682 169.612 174.916 167.396 173.95C164.032 172.394 160.888 169.96 157.189 169.758C156.185 169.669 155.175 169.857 154.27 170.301C153.823 170.529 153.436 170.86 153.142 171.268C152.848 171.675 152.656 172.147 152.582 172.644C152.54 173.029 152.582 173.425 152.509 173.803C152.272 174.914 150.968 175.518 149.84 175.384C148.72 175.157 147.673 174.656 146.793 173.926L141.376 170.118C141.175 170.393 140.974 170.661 140.767 170.912L146.793 175.146C147.673 175.876 148.72 176.377 149.84 176.604C150.968 176.738 152.278 176.134 152.509 175.024C152.588 174.645 152.509 174.249 152.582 173.865C152.656 173.367 152.848 172.895 153.142 172.488C153.436 172.08 153.823 171.749 154.27 171.522C155.175 171.077 156.185 170.889 157.189 170.979C160.888 171.18 164.032 173.614 167.396 175.17C169.612 176.136 171.91 176.902 174.263 177.458C175.598 177.806 177.078 178.123 178.285 177.458C179.491 176.793 180.046 175.249 179.955 173.852C179.948 173.749 179.93 173.651 179.918 173.547Z" fill="black"/>
<path opacity="0.1" d="M142.967 164.261C143.042 164.507 143.097 164.758 143.131 165.012C143.226 164.351 143.169 163.677 142.967 163.041C142.784 162.48 142.479 161.967 142.278 161.406C142.132 160.999 142.037 160.574 141.998 160.143C141.908 160.981 142.004 161.829 142.278 162.626C142.479 163.188 142.784 163.706 142.967 164.261Z" fill="black"/>
</g>
<path d="M150.121 395.769C150.079 395.943 149.98 396.097 149.84 396.208C149.692 396.285 149.526 396.321 149.359 396.312C147.19 396.361 145.02 396.312 142.857 396.465C140.81 396.641 138.756 397.075 136.715 396.843C136.062 396.866 135.418 396.685 134.872 396.326C134.326 395.966 133.905 395.445 133.668 394.836C133.539 394.57 133.425 394.297 133.327 394.018C132.764 392.58 132.481 391.048 132.492 389.503C132.492 389.094 132.492 388.698 132.492 388.283C132.465 387.836 132.406 387.391 132.315 386.953C132.13 386.451 132.152 385.895 132.376 385.409C133.241 383.829 135.332 383.512 136.94 383.39C140.667 383.109 144.415 383.384 148.061 384.207C148.347 385.611 148.67 387.002 149.012 388.393C149.263 389.414 149.532 390.431 149.816 391.443C150.007 392.07 150.161 392.708 150.279 393.353C150.43 394.159 150.375 394.99 150.121 395.769Z" fill="#464353"/>
<path opacity="0.06" d="M150.12 395.769C150.079 395.943 149.98 396.098 149.84 396.208C149.692 396.286 149.526 396.321 149.359 396.312C147.189 396.361 145.02 396.312 142.857 396.465C140.81 396.642 138.756 397.075 136.715 396.843C136.062 396.866 135.418 396.685 134.872 396.326C134.326 395.966 133.905 395.445 133.668 394.836C133.539 394.57 133.425 394.297 133.327 394.018H134.107C136.672 394.018 139.244 393.927 141.809 393.927C142.583 393.927 143.363 393.89 144.131 393.799C144.898 393.707 145.526 393.579 146.227 393.493C147.276 393.393 148.329 393.35 149.383 393.365H150.248C150.407 394.165 150.363 394.991 150.12 395.769Z" fill="black"/>
<path d="M195 384.439C194.32 385.233 193.453 385.844 192.477 386.215C188.138 388.045 183.123 387.221 178.644 385.733C177.643 385.36 176.614 385.065 175.567 384.848C174.612 384.714 173.649 384.647 172.685 384.647C171.996 384.647 171.308 384.592 170.619 384.549C168.876 384.439 167.14 384.269 165.409 384.098C164.203 384.009 163.005 383.828 161.826 383.555C161.491 383.469 161.169 383.337 160.87 383.164V383.164C160.614 383.052 160.395 382.869 160.24 382.636C160.085 382.404 159.999 382.132 159.992 381.852C160.041 381.078 160.845 380.632 161.552 380.297C167.822 377.582 174.635 376.404 181.399 375.459C182.087 375.344 182.757 375.138 183.391 374.848C184.153 374.543 184.232 375.044 184.61 375.605C184.788 375.865 184.993 376.106 185.219 376.325C185.954 376.989 186.817 377.496 187.754 377.814C189.4 378.424 191.161 378.588 192.806 379.168C193.304 379.341 193.78 379.57 194.226 379.851C194.619 380.066 194.958 380.368 195.217 380.734C195.476 381.1 195.648 381.52 195.72 381.963C195.792 382.406 195.761 382.859 195.631 383.288C195.501 383.718 195.275 384.111 194.969 384.439H195Z" fill="#464353"/>
<path opacity="0.06" d="M195 384.44C194.32 385.234 193.453 385.844 192.477 386.215C188.138 388.045 183.123 387.222 178.644 385.733C177.643 385.36 176.614 385.065 175.567 384.848C174.612 384.714 173.649 384.647 172.685 384.647C171.996 384.647 171.308 384.592 170.619 384.549C171.18 384.019 171.753 383.5 172.338 383C172.762 382.603 173.25 382.281 173.782 382.048C174.444 381.831 175.15 381.782 175.835 381.908C179.321 382.39 182.453 384.836 185.969 384.623C187.607 384.434 189.191 383.922 190.63 383.116C191.801 382.638 192.844 381.895 193.677 380.944C193.929 380.616 194.121 380.246 194.244 379.852C194.637 380.066 194.977 380.368 195.236 380.734C195.495 381.1 195.667 381.52 195.738 381.963C195.81 382.406 195.78 382.859 195.65 383.289C195.519 383.718 195.293 384.112 194.987 384.44H195Z" fill="black"/>
<path d="M193.775 278.408C193.165 279.628 192.385 280.952 191.069 281.33C189.156 281.879 187.316 280.159 186.481 278.353C185.343 275.702 185.128 272.745 185.871 269.958C186.219 268.548 186.749 267.194 187.047 265.778C187.263 264.587 187.393 263.382 187.437 262.173C187.618 260.368 187.575 258.549 187.309 256.755C186.328 251.514 181.825 247.603 180.326 242.454C179.571 239.885 179.607 237.152 179.65 234.473C179.636 233.796 179.705 233.12 179.857 232.46C179.902 232.28 179.964 232.105 180.04 231.935C181.045 229.702 184.025 229.397 186.097 228.098C187.242 227.384 189.844 225.084 190.807 227.183C191.015 227.65 191.17 228.139 191.27 228.641C191.666 230.508 191.508 232.698 191.605 234.461C191.977 241.124 193.635 247.774 192.867 254.4C192.684 255.529 192.594 256.672 192.599 257.816C192.763 260.684 194.555 263.167 195.377 265.913C196.645 270.043 195.627 274.54 193.775 278.408Z" fill="#FBBEBE"/>
<path opacity="0.1" d="M191.301 228.653C190.848 228.488 190.352 228.488 189.899 228.653L185.774 229.873C184.328 230.259 182.919 230.772 181.563 231.405C180.971 231.696 180.41 232.045 179.888 232.448C179.933 232.268 179.994 232.092 180.07 231.923C181.076 229.69 184.056 229.385 186.127 228.086C187.273 227.372 189.875 225.072 190.838 227.17C191.047 227.646 191.203 228.143 191.301 228.653V228.653Z" fill="black"/>
<path d="M191.569 228.189C191.32 228.038 191.04 227.947 190.75 227.924C190.46 227.9 190.169 227.945 189.899 228.055L185.774 229.275C184.328 229.661 182.919 230.174 181.563 230.807C180.844 231.157 180.17 231.596 179.558 232.112C177.633 228.763 177.121 224.791 176.768 220.947C176.573 218.708 176.426 216.463 176.341 214.236C176.245 212.633 176.278 211.026 176.439 209.428C176.67 207.598 177.2 205.81 177.529 203.992C177.725 202.928 177.851 201.852 177.907 200.771C178.065 198.409 177.957 196.037 177.584 193.699C177.23 191.215 176.663 188.765 175.89 186.378C175.5 185.286 175.031 184.23 174.604 183.157L174.458 182.778C173.688 180.81 173.059 178.79 172.575 176.732C172.38 175.89 172.368 175.005 171.722 174.432C172.329 174.359 172.94 174.334 173.55 174.359C173.672 174.359 173.794 174.359 173.916 174.359C176.419 174.516 178.831 175.361 180.887 176.799C183.535 178.712 185.547 181.378 186.664 184.45C187.949 187.885 188.163 191.619 188.327 195.286C188.656 202.493 188.859 209.705 188.936 216.92C188.936 218.305 188.997 219.782 189.79 220.923C190.012 221.204 190.215 221.499 190.399 221.807C190.685 222.417 190.643 223.095 190.874 223.711C191.044 224.081 191.238 224.439 191.453 224.785C191.726 225.307 191.878 225.885 191.898 226.474C191.918 227.063 191.805 227.649 191.569 228.189Z" fill="#555B6E"/>
<path d="M151.01 156.574C150.401 156.373 149.791 156.159 149.182 155.964L150.45 156.061C150.661 156.203 150.85 156.376 151.01 156.574Z" fill="#FBBEBE"/>
<path d="M175.963 178.593C175.841 179.008 175.72 179.423 175.586 179.813C175.276 180.816 174.9 181.796 174.458 182.748C173.768 184.311 172.79 185.731 171.576 186.933C171.175 187.356 170.683 187.681 170.138 187.885C169.677 188.003 169.2 188.048 168.724 188.019C167.099 188.019 165.474 187.995 163.849 187.946C162.584 187.96 161.321 187.835 160.084 187.574C158.721 187.202 157.425 186.617 156.245 185.841C151.693 183.022 147.951 178.727 146.349 173.639C146.148 172.992 146.007 172.217 146.452 171.711C146.89 171.353 147.441 171.165 148.006 171.18H148.079C149.389 171.009 150.652 170.575 151.79 169.905C152.528 169.527 153.123 168.919 153.484 168.172C153.731 167.287 153.712 166.349 153.429 165.475L152.077 159.325C151.936 158.34 151.566 157.402 150.998 156.586C151.394 156.726 151.79 156.854 152.217 156.964C155.983 157.983 160.102 157.367 163.795 158.703C165.208 159.222 166.622 160.155 167.048 161.607C167.761 164.048 165.379 166.58 166.061 169.02C166.518 170.68 168.206 171.637 169.717 172.412L170.735 172.931L173.556 174.365L173.946 174.56L174.007 174.59C174.897 175.042 175.835 175.603 176.146 176.561C176.279 177.242 176.215 177.947 175.963 178.593V178.593Z" fill="#FBBEBE"/>
<path opacity="0.1" d="M183.397 192.918C183.294 194.478 182.915 196.007 182.276 197.433C181.053 199.9 180.397 202.61 180.357 205.365C179.888 213.601 176.762 223.406 181.24 230.324C181.35 230.495 181.46 230.666 181.563 230.843C180.844 231.194 180.17 231.632 179.559 232.149C177.633 228.799 177.121 224.827 176.768 220.984C176.573 218.744 176.426 216.499 176.341 214.272C176.246 212.67 176.278 211.062 176.439 209.465C176.67 207.634 177.2 205.847 177.529 204.028C177.725 202.964 177.852 201.888 177.907 200.807C178.065 198.445 177.957 196.073 177.584 193.736C177.23 191.251 176.663 188.802 175.89 186.414C175.5 185.322 175.031 184.267 174.604 183.193L174.458 182.815C173.768 184.378 172.79 185.798 171.576 187C171.175 187.423 170.683 187.748 170.138 187.952C169.677 188.07 169.2 188.115 168.724 188.086C167.099 188.086 165.474 188.062 163.849 188.013C162.584 188.027 161.321 187.902 160.084 187.641C158.721 187.269 157.425 186.684 156.245 185.908C151.693 183.089 147.951 178.794 146.349 173.706C146.148 173.059 146.007 172.284 146.452 171.778C146.89 171.42 147.441 171.232 148.006 171.247H148.079L153.563 178.038C154.192 178.756 154.725 179.554 155.148 180.411C155.23 180.698 155.4 180.953 155.635 181.137C155.826 181.224 156.036 181.262 156.245 181.247C161.394 181.247 168.255 181.247 173.404 181.247C173.421 180.333 173.157 179.437 172.648 178.678C172.49 178.715 172.277 178.727 172.606 178.629C172.308 176.649 171.669 174.735 170.717 172.974C170.66 172.852 170.597 172.734 170.528 172.62C170.119 172.016 169.814 171.348 169.626 170.643C170.276 170.435 170.975 170.435 171.625 170.643C172.374 170.966 172.764 171.778 173.093 172.528C173.374 173.138 173.654 173.791 173.904 174.432C173.904 174.499 173.965 174.572 173.989 174.639C174.52 175.902 174.861 177.236 175.001 178.599C175.037 179.099 175.159 179.734 175.573 179.898C175.639 179.928 175.709 179.945 175.781 179.947C176.21 179.79 176.676 179.764 177.119 179.873C177.563 179.981 177.965 180.22 178.273 180.557C178.872 181.245 179.291 182.071 179.491 182.961C179.69 183.851 179.98 184.718 180.357 185.548C181.143 187.049 179.942 187.72 181.362 188.641C182.026 189.007 182.597 189.52 183.032 190.142C183.433 191.009 183.561 191.977 183.397 192.918V192.918Z" fill="black"/>
<path opacity="0.1" d="M148.006 384.232C148.292 385.635 148.615 387.026 148.957 388.417L148.92 388.503C146.135 387.282 143.284 386.007 140.243 385.739C137.422 385.495 134.357 386.257 132.437 388.307C132.41 387.86 132.351 387.416 132.26 386.977C132.076 386.475 132.097 385.92 132.321 385.434C133.187 383.853 135.277 383.536 136.885 383.414C140.612 383.133 144.36 383.409 148.006 384.232Z" fill="black"/>
<path opacity="0.1" d="M172.009 179.795C172.295 179.795 172.191 179.795 172.051 179.844C171.911 179.893 171.68 179.893 172.009 179.795Z" fill="black"/>
<path opacity="0.1" d="M185.25 376.325C182.532 378.059 179.979 380.038 177.621 382.237C176.936 382.971 176.12 383.569 175.214 384C174.278 384.302 173.29 384.403 172.313 384.299C168.48 384.144 164.659 383.765 160.87 383.164V383.164C160.614 383.052 160.395 382.869 160.24 382.636C160.085 382.404 159.999 382.132 159.992 381.852C160.041 381.078 160.845 380.632 161.552 380.297C167.822 377.582 174.635 376.404 181.399 375.459C182.087 375.344 182.757 375.138 183.391 374.848C184.153 374.543 184.232 375.044 184.61 375.605C184.798 375.866 185.013 376.107 185.25 376.325V376.325Z" fill="black"/>
<path d="M140.541 172.718C141.437 173.517 142.461 174.164 143.369 174.938C145.806 177.007 147.342 179.899 148.853 182.717C147.957 183.042 146.988 183.107 146.056 182.906C145.577 185.613 145.658 188.39 146.294 191.064C145.075 191.901 144.127 193.079 143.57 194.45C143.137 195.841 142.839 197.272 142.68 198.721C141.803 205.07 140.921 211.419 140.036 217.768C140.018 218.39 139.805 218.99 139.426 219.483C139.257 219.62 139.102 219.773 138.963 219.94C138.777 220.351 138.703 220.804 138.75 221.252C138.713 221.698 138.421 222.228 137.976 222.167C137.76 222.116 137.568 221.991 137.434 221.813C136.989 221.342 136.581 220.836 136.215 220.3C132.62 227.207 130.889 234.65 128.988 242.204C127.629 247.585 126.27 253.027 126.203 258.579C126.222 261.206 126.387 263.829 126.697 266.437L127.233 271.794C127.666 276.102 128.098 280.415 128.568 284.722C128.872 287.456 129.177 290.213 130.158 292.788C131.621 296.699 130 301.11 130.621 305.247C131.109 308.486 132.078 311.836 131.103 314.96C130.713 316.21 130.03 317.351 129.518 318.559C128.263 321.561 128.135 324.899 128.025 328.15C127.828 331.001 127.934 333.864 128.342 336.692C128.866 339.614 130.042 342.476 129.811 345.429C129.488 349.633 126.392 353.226 126.014 357.424C125.716 360.773 127.184 364.007 128.763 366.978C129.927 369.168 128.306 371.999 127.69 374.409C126.472 379.132 128.501 384.074 130.987 388.265C131.05 388.409 131.162 388.526 131.304 388.594C131.59 388.698 131.846 388.418 132.035 388.18C133.906 385.776 137.221 384.867 140.261 385.129C143.302 385.391 146.148 386.648 148.938 387.893L152.893 379.077C153.563 377.582 154.246 375.965 153.911 374.361C153.673 373.214 152.936 372.243 152.412 371.194C151.193 368.717 151.132 365.831 151.12 363.055L151.047 347.375C154.13 343.495 156.013 338.882 157.201 334.062C159.024 340.842 159.15 347.967 157.567 354.806C157.274 355.84 157.07 356.898 156.958 357.967C156.72 362.317 160.126 365.996 161.034 370.254C161.122 370.58 161.147 370.92 161.107 371.255C161.005 371.667 160.834 372.059 160.601 372.414C158.968 375.379 159.145 378.973 159.383 382.353C163.656 383.098 167.973 383.561 172.307 383.738C173.284 383.836 174.271 383.734 175.208 383.439C176.114 383.006 176.93 382.405 177.615 381.67C180.381 379.064 183.419 376.763 186.676 374.806C184.857 371.785 182.312 369.268 179.272 367.485C180.253 366.039 182.489 366.154 183.793 364.995C184.448 364.347 184.876 363.503 185.012 362.591C185.5 360.2 184.896 357.71 184.293 355.362C183.123 350.737 181.947 346.094 180.028 341.725C179.16 339.93 178.395 338.087 177.737 336.204C176.14 330.945 177.255 325.222 176.049 319.847C175.659 318.126 175.031 316.351 175.47 314.636C176.14 311.995 179.126 310.427 179.784 307.779C182.142 298.352 182.563 288.584 183.903 278.963C184.203 277.125 184.364 275.267 184.385 273.405C184.385 271.459 184.037 269.531 183.897 267.59C183.349 259.824 185.829 252.075 185.195 244.315C184.789 239.532 183.216 234.923 180.613 230.892C176.134 223.967 179.26 214.169 179.729 205.932C179.764 203.178 180.418 200.467 181.642 198.001C182.286 196.576 182.668 195.046 182.77 193.486C182.958 192.524 182.838 191.527 182.429 190.637C182 190.012 181.43 189.498 180.765 189.136C179.345 188.208 180.546 187.537 179.76 186.036C179.381 185.207 179.091 184.34 178.894 183.449C178.695 182.561 178.276 181.736 177.676 181.052C177.367 180.714 176.966 180.476 176.522 180.367C176.078 180.258 175.612 180.284 175.183 180.442C174.604 180.442 174.446 179.673 174.397 179.093C174.233 176.97 173.355 174.975 172.496 173.023C172.167 172.272 171.777 171.461 171.028 171.137C170.375 170.933 169.675 170.933 169.023 171.137C169.211 171.845 169.518 172.515 169.931 173.12C170.987 174.976 171.689 177.011 172.002 179.124C171.393 179.307 172.612 179.124 172.002 179.124C172.548 179.885 172.829 180.805 172.801 181.741C167.658 181.741 160.796 181.741 155.647 181.741C155.438 181.758 155.228 181.72 155.038 181.631C154.803 181.446 154.631 181.192 154.544 180.905C154.125 180.048 153.593 179.252 152.96 178.538L146.928 171.089C146.794 170.894 146.616 170.733 146.41 170.619C146.161 170.548 145.897 170.548 145.648 170.619C143.692 170.905 142.248 171.723 140.541 172.718Z" fill="#BEE3DB"/>
<path opacity="0.1" d="M162.192 273.655C163.232 273.641 164.257 273.906 165.159 274.424C165.607 274.688 165.979 275.064 166.238 275.515C166.496 275.967 166.633 276.478 166.634 276.998C166.567 278.151 165.683 279.067 165.044 280.049C164.648 280.647 164.332 281.296 164.105 281.977C164.035 282.132 164.018 282.305 164.056 282.471C164.13 282.703 164.379 282.819 164.593 282.922C165.368 283.274 166.03 283.834 166.505 284.541C166.979 285.248 167.248 286.074 167.28 286.925C167.225 289.304 164.903 291.232 165.031 293.636C165.089 294.137 165.175 294.634 165.287 295.125C165.566 297.174 165.282 299.26 164.465 301.159C163.727 303.075 162.722 304.874 161.93 306.772C159.791 311.927 159.328 317.638 159.492 323.245C159.62 327.052 158.274 330.676 157.055 334.3C157.744 327 157.927 319.661 157.603 312.336C157.518 310.347 157.268 308.468 157.36 306.473C157.506 303.306 159.273 300.427 159.724 297.321C159.98 295.546 159.809 293.74 159.852 291.946C159.937 288.285 160.93 284.674 160.997 281.001C161.083 278.408 160.845 275.735 162.192 273.655Z" fill="black"/>
<path d="M136.764 174.023C135.552 174.628 134.419 175.378 133.388 176.256C132.311 177.328 131.41 178.563 130.719 179.917C129.877 181.452 129.123 183.032 128.458 184.652C127.599 186.75 126.886 189.075 127.477 191.265C128.013 193.248 129.531 194.792 130.579 196.555C131.627 198.318 132.242 200.386 133.047 202.32C134.119 204.901 135.588 207.305 136.648 209.892C137.708 212.479 138.348 215.383 137.678 218.074C137.483 218.867 136.197 219.483 136.197 220.294C136.197 221.637 138.135 223.095 139.42 223.485C140.901 223.943 142.516 223.26 143.728 222.265C145.953 220.502 147.305 217.86 148.305 215.2C149.913 210.929 150.773 206.396 151.547 201.893C152.107 198.587 152.631 195.274 152.93 191.942C153.204 188.941 153.289 185.841 152.497 182.962C151.758 180.318 150.32 177.924 148.335 176.031C146.751 174.505 144.155 172.455 141.852 172.4C140.03 172.394 138.324 173.163 136.764 174.023Z" fill="#555B6E"/>
<path d="M154.087 247.572C154.021 247.989 153.866 248.387 153.631 248.738C153.396 249.088 153.089 249.384 152.729 249.604C152.01 250.042 151.226 250.363 150.407 250.556C148.774 251.032 147.043 251.471 145.392 251.05C144.094 250.627 142.896 249.944 141.87 249.043L123.419 234.9C121.936 233.848 120.574 232.637 119.354 231.288C118.654 230.418 118.011 229.503 117.429 228.549C116.658 227.457 116.054 226.256 115.637 224.986C115.488 224.427 115.415 223.85 115.418 223.271C115.413 222.724 115.547 222.185 115.808 221.703C116.253 220.959 117.203 220.807 117.983 220.599C120.601 219.921 123.318 219.715 126.008 219.989C126.245 219.978 126.478 220.044 126.674 220.177C126.87 220.31 127.017 220.503 127.093 220.727C127.501 221.478 127.855 222.259 128.22 223.04C128.782 224.371 129.513 225.624 130.396 226.767C131.247 227.693 132.152 228.567 133.107 229.385C135.057 231.215 136.654 233.412 138.732 235.096C141.139 237.042 144.064 238.207 146.806 239.641C149.548 241.075 152.253 242.935 153.63 245.712C153.95 246.278 154.108 246.922 154.087 247.572Z" fill="#FBBEBE"/>
<path opacity="0.1" d="M175.445 148.905C175.446 152.757 173.977 156.463 171.339 159.267C168.7 162.07 165.092 163.759 161.252 163.987C157.411 164.215 153.629 162.966 150.678 160.495C147.727 158.024 145.83 154.517 145.376 150.692C144.921 146.867 145.943 143.012 148.233 139.917C150.522 136.821 153.907 134.718 157.693 134.038C161.48 133.358 165.383 134.152 168.605 136.257C171.826 138.363 174.123 141.621 175.025 145.366C175.304 146.525 175.446 147.712 175.445 148.905V148.905Z" fill="black"/>
<path d="M175.445 148.295C175.446 152.147 173.977 155.853 171.339 158.657C168.7 161.46 165.092 163.149 161.252 163.377C157.411 163.606 153.629 162.356 150.678 159.885C147.727 157.414 145.83 153.907 145.376 150.082C144.921 146.257 145.943 142.403 148.233 139.307C150.522 136.211 153.907 134.109 157.693 133.428C161.48 132.748 165.383 133.542 168.605 135.648C171.826 137.753 174.123 141.011 175.025 144.756C175.304 145.915 175.446 147.103 175.445 148.295V148.295Z" fill="#FBBEBE"/>
<path opacity="0.1" d="M128.22 223.015C127.526 223.461 126.496 223.314 125.637 223.119C122.249 222.362 118.507 221.819 115.418 223.271C115.413 222.724 115.547 222.185 115.808 221.703C116.253 220.959 117.203 220.807 117.983 220.599C120.601 219.921 123.318 219.715 126.008 219.989C126.245 219.978 126.478 220.044 126.674 220.177C126.87 220.31 127.017 220.503 127.093 220.727C127.501 221.453 127.855 222.234 128.22 223.015Z" fill="black"/>
<path d="M121.853 202.473C121.103 204.913 120.488 207.421 119.019 209.489C118.534 210.033 118.168 210.674 117.947 211.368C117.93 211.882 117.846 212.39 117.697 212.882C117.49 213.296 117.051 213.571 116.874 213.998C116.612 214.608 116.953 215.395 116.606 215.969C116.443 216.199 116.249 216.404 116.027 216.579C115.199 217.348 114.991 218.574 114.973 219.709C114.955 220.844 115.064 222.003 114.693 223.07C117.91 221.149 122.005 221.722 125.661 222.54C126.679 222.765 127.94 222.936 128.598 222.119C129.256 221.301 128.879 220.227 128.97 219.245C129.092 217.964 129.969 216.902 130.512 215.737C131.121 214.425 131.328 212.961 131.797 211.594C132.766 208.721 134.844 206.378 136.179 203.663C136.673 202.729 136.967 201.703 137.044 200.649C136.998 199.283 136.642 197.945 136.002 196.738C134.734 193.926 133.225 191.23 131.493 188.678C130.719 187.537 129.384 185.426 128.184 187.251C127.209 188.721 126.6 190.594 125.88 192.205C124.331 195.542 122.986 198.972 121.853 202.473Z" fill="#555B6E"/>
<path d="M176.835 178.788C175.005 178.914 173.17 178.63 171.465 177.955C169.759 177.281 168.225 176.233 166.975 174.889C166.765 174.697 166.613 174.45 166.537 174.175C166.502 173.819 166.602 173.462 166.817 173.175C167.548 172.046 168.809 171.302 169.394 170.088C169.979 168.874 169.778 167.476 169.833 166.146C169.931 163.761 170.869 161.4 170.948 159.051C170.977 158.45 170.931 157.847 170.814 157.257C170.534 156.38 170.362 155.473 170.302 154.554C170.382 152.767 171.99 151.375 172.258 149.612C172.606 147.367 170.747 145.415 168.876 144.121C167.45 143.131 165.902 142.329 164.27 141.736C163.267 141.376 162.23 141.125 161.174 140.985C159.206 140.719 157.203 140.943 155.343 141.638C154.573 141.929 153.843 142.319 153.173 142.797C152.774 143.05 152.442 143.395 152.205 143.804C152.009 144.264 151.922 144.763 151.949 145.262C151.912 147.757 152.192 150.411 151.004 152.583C150.395 153.749 149.359 154.695 148.853 155.927C148.646 156.44 148.517 156.981 148.469 157.532C148.408 158.103 148.378 158.677 148.378 159.252C148.341 162.467 148.378 165.86 150.011 168.648C150.587 169.491 151.11 170.369 151.577 171.277C151.803 171.737 151.908 172.247 151.881 172.759C151.855 173.27 151.697 173.766 151.425 174.2C151.095 174.595 150.677 174.909 150.206 175.115C148.996 175.696 147.679 176.021 146.338 176.07C144.997 176.118 143.661 175.888 142.412 175.396C143.872 174.011 144.875 172.212 145.287 170.241C145.698 168.27 145.499 166.22 144.716 164.365C144.275 163.616 143.989 162.786 143.875 161.924C143.936 161.148 144.143 160.391 144.484 159.691C145.319 157.399 145.449 154.908 144.856 152.541C144.484 151.089 143.838 149.685 143.722 148.191C143.626 147.062 143.675 145.926 143.869 144.811C144.203 142.814 145.081 140.95 146.407 139.422C147.733 137.894 149.454 136.763 151.382 136.153C151.693 136.049 151.991 135.952 152.333 135.866C153.811 135.538 155.321 135.376 156.836 135.384C160.218 135.275 163.648 135.177 166.908 136.062C168.822 136.563 170.603 137.48 172.124 138.746C173.204 139.655 174.067 140.796 174.647 142.083C174.964 142.825 175.203 143.598 175.36 144.39C175.5 145.042 175.604 145.701 175.707 146.36C176.445 151.052 177.182 155.835 176.396 160.521C176.085 162.351 175.543 164.182 175.299 166.049C174.708 170.35 175.774 174.627 176.835 178.788Z" fill="#464353"/>
<path d="M155.184 184.816C155.81 184.816 156.318 184.308 156.318 183.681C156.318 183.054 155.81 182.546 155.184 182.546C154.558 182.546 154.051 183.054 154.051 183.681C154.051 184.308 154.558 184.816 155.184 184.816Z" fill="white"/>
<path d="M174.312 184.279C174.938 184.279 175.445 183.771 175.445 183.145C175.445 182.518 174.938 182.01 174.312 182.01C173.686 182.01 173.179 182.518 173.179 183.145C173.179 183.771 173.686 184.279 174.312 184.279Z" fill="white"/>
<path opacity="0.1" d="M155.184 126.33L152.747 121.724C152.901 121.54 153.07 121.368 153.253 121.211C153.605 120.994 154.017 120.896 154.429 120.931L155.184 126.33Z" fill="black"/>
<path opacity="0.1" d="M161.906 120.717L159.145 124.805L157.573 120.321C158.244 120.032 158.97 119.895 159.7 119.918C160.474 120.06 161.22 120.33 161.906 120.717V120.717Z" fill="black"/>
<g opacity="0.1">
<path opacity="0.1" d="M151.425 172.992C151.095 173.387 150.677 173.701 150.206 173.907C148.045 174.942 145.58 175.148 143.278 174.487C143.01 174.813 142.721 175.12 142.412 175.408C143.661 175.901 144.997 176.13 146.338 176.082C147.679 176.033 148.996 175.709 150.206 175.127C150.677 174.921 151.095 174.608 151.425 174.212C151.634 173.907 151.777 173.562 151.845 173.198C151.912 172.834 151.902 172.461 151.815 172.101C151.754 172.424 151.62 172.728 151.425 172.992Z" fill="black"/>
<path opacity="0.1" d="M144.813 152.559C145.012 153.359 145.128 154.177 145.16 155C145.231 153.769 145.114 152.535 144.813 151.339C144.441 149.887 143.795 148.484 143.68 146.989C143.68 146.8 143.68 146.611 143.649 146.416C143.62 147.013 143.63 147.613 143.68 148.209C143.795 149.704 144.441 151.107 144.813 152.559Z" fill="black"/>
<path opacity="0.1" d="M176.353 160.54C176.612 158.926 176.722 157.292 176.682 155.659C176.661 156.885 176.551 158.109 176.353 159.319C176.042 161.15 175.5 162.98 175.256 164.847C175.131 165.848 175.084 166.858 175.116 167.867C175.133 167.265 175.18 166.664 175.256 166.067C175.5 164.2 176.042 162.388 176.353 160.54Z" fill="black"/>
<path opacity="0.1" d="M144.691 163.157C144.372 162.557 144.115 161.925 143.923 161.272C143.872 161.492 143.847 161.717 143.85 161.943C143.965 162.805 144.251 163.634 144.691 164.384C145.139 165.406 145.397 166.502 145.453 167.617C145.563 166.091 145.302 164.56 144.691 163.157V163.157Z" fill="black"/>
<path opacity="0.1" d="M170.814 157.233C170.868 157.511 170.906 157.792 170.93 158.075C170.93 157.983 170.93 157.898 170.93 157.806C170.958 157.205 170.913 156.603 170.796 156.013C170.662 155.372 170.443 154.738 170.339 154.091C170.309 154.235 170.29 154.382 170.284 154.53C170.349 155.449 170.528 156.357 170.814 157.233V157.233Z" fill="black"/>
<path opacity="0.1" d="M166.975 173.645C166.882 173.547 166.794 173.443 166.713 173.333C166.563 173.578 166.501 173.866 166.537 174.151C166.613 174.426 166.765 174.673 166.975 174.865C168.225 176.209 169.759 177.256 171.465 177.931C173.17 178.605 175.005 178.89 176.835 178.764C176.731 178.361 176.628 177.964 176.53 177.543C174.75 177.625 172.974 177.319 171.325 176.646C169.675 175.973 168.191 174.949 166.975 173.645V173.645Z" fill="black"/>
<path opacity="0.1" d="M172.246 148.453C172.243 148.431 172.243 148.408 172.246 148.386C172.594 146.141 170.735 144.189 168.864 142.895C167.438 141.905 165.889 141.103 164.258 140.51C163.255 140.15 162.218 139.899 161.162 139.759C159.194 139.493 157.191 139.717 155.331 140.412C154.56 140.703 153.831 141.093 153.161 141.571C152.762 141.824 152.43 142.169 152.192 142.578C151.997 143.038 151.909 143.537 151.936 144.036C151.936 144.457 151.936 144.878 151.936 145.305V145.256C151.909 144.757 151.997 144.258 152.192 143.798C152.43 143.389 152.762 143.044 153.161 142.791C153.831 142.313 154.56 141.923 155.331 141.632C157.191 140.937 159.194 140.713 161.162 140.979C162.218 141.119 163.255 141.37 164.258 141.73C165.889 142.323 167.438 143.125 168.864 144.115C170.418 145.165 171.948 146.678 172.246 148.453Z" fill="black"/>
<path opacity="0.1" d="M151.004 151.376C150.395 152.541 149.359 153.487 148.853 154.719C148.646 155.232 148.517 155.773 148.469 156.324C148.408 156.895 148.378 157.469 148.378 158.044C148.378 158.563 148.378 159.087 148.378 159.612C148.378 159.496 148.378 159.38 148.378 159.264C148.378 158.69 148.408 158.115 148.469 157.544C148.517 156.993 148.646 156.452 148.853 155.939C149.359 154.719 150.37 153.761 151.004 152.596C151.985 150.765 151.967 148.661 151.949 146.568C152.03 148.224 151.705 149.874 151.004 151.376V151.376Z" fill="black"/>
</g>
<path opacity="0.1" d="M175.317 144.432C175.234 144.552 175.135 144.66 175.025 144.756C174.81 144.933 174.57 145.077 174.312 145.183C172.539 145.952 172.612 143.444 171.686 142.584C171.092 142.145 170.363 141.929 169.626 141.974C167.843 141.884 166.057 141.805 164.27 141.736C161.29 141.626 158.316 141.571 155.343 141.638C153.917 141.662 152.495 141.721 151.077 141.815C149.432 141.925 147.665 142.138 146.263 142.919C145.784 143.184 145.349 143.523 144.978 143.926C144.642 144.292 144.289 144.756 143.826 144.841C144.16 142.845 145.038 140.98 146.364 139.452C147.69 137.925 149.412 136.793 151.339 136.184C154.46 133.856 158.358 132.827 162.219 133.31C166.08 133.793 169.605 135.752 172.057 138.777C173.137 139.686 174 140.826 174.58 142.114C174.906 142.859 175.153 143.636 175.317 144.432V144.432Z" fill="black"/>
<path d="M174.312 143.963C172.539 144.731 172.612 142.224 171.686 141.364C171.092 140.925 170.363 140.709 169.626 140.753C163.451 140.347 157.258 140.294 151.077 140.595C148.877 140.741 146.464 141.071 144.984 142.706C144.606 143.121 144.21 143.658 143.643 143.639C143.454 142.419 143.32 141.15 143.229 139.899C143.173 139.431 143.198 138.956 143.302 138.496C143.454 137.971 143.802 137.526 143.978 137.013C144.152 136.362 144.214 135.685 144.161 135.012C144.188 132.523 144.856 130.083 146.101 127.928C147.345 125.773 149.125 123.977 151.266 122.712C151.804 122.449 152.302 122.112 152.747 121.712C152.901 121.528 153.071 121.356 153.253 121.199C153.605 120.982 154.017 120.884 154.429 120.919C154.721 120.919 155.038 120.919 155.294 120.919C156.082 120.832 156.852 120.626 157.579 120.309C158.25 120.02 158.976 119.883 159.706 119.906C160.48 120.047 161.226 120.318 161.912 120.705C162.241 120.864 162.586 120.989 162.941 121.077C163.496 121.205 164.069 121.199 164.623 121.309C165.521 121.538 166.374 121.918 167.146 122.432C168.067 122.929 168.919 123.544 169.681 124.262C170.509 125.21 171.173 126.291 171.643 127.459C172.45 129.073 173.064 130.777 173.471 132.535C173.965 135.061 173.721 137.794 174.891 140.088C175.604 141.528 176.256 143.127 174.312 143.963Z" fill="#FFD6BA"/>
<path opacity="0.1" d="M143.424 142.047C143.424 142.047 156.056 130.54 174.866 140.082C174.866 140.082 153.63 135.244 143.424 142.047Z" fill="black"/>
<path d="M5.78282 200.844C4.06444 198.025 1.48078 195.445 1.88295 192.248C6.61154 192.791 11.0964 191.637 15.4289 189.63C19.7614 187.623 23.7832 185.018 27.8415 182.461C29.438 181.455 31.0284 180.466 32.6127 179.551C35.1232 178.111 37.6155 176.5 40.1687 175.091C43.8248 173.078 47.5541 171.43 51.6611 171.113C52.4051 171.055 53.1516 171.037 53.8974 171.058C58.9551 171.156 64.1955 172.516 68.6438 170.247L68.918 170.1C71.4408 168.715 73.2749 166.36 75.4381 164.451C76.9933 163.104 78.6866 161.926 80.4897 160.936C83.7741 159.106 87.3327 157.642 90.6903 155.915C91.5497 155.472 92.3657 154.949 93.1277 154.353L93.7005 153.896L93.8284 153.786C93.9686 153.67 94.1087 153.554 94.2428 153.432L94.5048 153.2L94.7729 152.956L94.9801 152.761L95.3153 152.444L95.3518 152.401L95.882 151.876L96.0952 151.663L96.4669 151.278L96.6863 151.059C97.058 150.674 97.4297 150.284 97.8075 149.906C98.1853 149.527 98.6972 149.015 99.1542 148.594L99.5929 148.203L99.7209 148.094L100.074 147.801L100.239 147.66L100.586 147.392L100.757 147.258C100.927 147.13 101.104 147.008 101.281 146.885C101.443 146.773 101.615 146.673 101.793 146.587L100.653 143.823L103.932 142.468L149.146 252.319L145.861 253.674L120 190.832L119.817 191.015C113.827 196.934 106.489 201.306 98.4352 203.754H98.3864C93.8833 205.115 88.8439 206.079 85.0537 208.605C83.7098 209.479 82.5419 210.599 81.6109 211.905C80.7212 213.174 80.0997 214.62 79.1735 215.841C78.9968 216.066 78.8018 216.286 78.6068 216.494C77.4986 217.593 76.2724 218.567 74.9506 219.398L74.3718 219.794C70.4458 222.56 66.3556 225.084 62.1237 227.354C59.6817 228.626 57.1355 229.688 54.5129 230.526C52.6056 231.136 50.6374 231.582 48.7301 232.186C47.4471 232.575 46.2012 233.077 45.007 233.687C41.7774 235.377 39.2973 238.024 36.9513 240.849C34.8978 243.326 32.9478 245.95 30.6932 248.207C29.2795 249.611 27.1285 250.941 25.4223 250.117L25.075 249.916C25.1298 249.824 25.1725 249.733 25.2212 249.635C26.5679 246.81 24.9105 243.32 22.6802 241.057C22.4487 240.819 22.211 240.587 21.9673 240.367C21.7235 240.148 21.2848 239.757 20.9375 239.452C19.0302 237.811 17.001 236.286 15.6787 234.169C14.6695 232.39 13.9845 230.446 13.6557 228.427C13.0463 225.554 12.6381 222.595 11.0781 220.148C10.0544 218.531 8.53101 217.152 7.42198 215.603C6.72095 214.686 6.26011 213.608 6.0814 212.467C5.83157 210.484 6.75169 208.544 7.09903 206.567C7.20236 206.028 7.24528 205.48 7.22699 204.932C7.0997 203.469 6.60273 202.062 5.78282 200.844V200.844Z" fill="url(#paint0_linear)"/>
<path d="M144.712 252.731L147.94 251.398L103.479 143.394L100.251 144.726L144.712 252.731Z" fill="#D6D8E1"/>
<path d="M12.1688 219.763C13.6983 222.173 14.1066 225.077 14.6977 227.902C15.0255 229.888 15.7 231.8 16.6902 233.552C17.9943 235.632 19.9869 237.133 21.8576 238.744C22.1988 239.043 22.54 239.354 22.8691 239.647C23.1067 239.86 23.3444 240.092 23.5699 240.318C25.7635 242.545 27.3905 245.98 26.0682 248.756C26.0276 248.85 25.9808 248.942 25.9281 249.03C26.0351 249.103 26.1471 249.169 26.2632 249.226C27.945 250.043 30.0595 248.738 31.4488 247.353C33.6669 245.132 35.5863 242.557 37.6033 240.123C39.9066 237.341 42.3502 234.736 45.5249 233.076C46.6969 232.475 47.9205 231.981 49.181 231.6C51.0517 230.989 52.9895 230.556 54.8663 229.97C57.4442 229.145 59.9474 228.102 62.3492 226.853C66.5169 224.619 70.546 222.136 74.4144 219.416L74.9872 219.025C76.2862 218.21 77.4918 217.255 78.5824 216.176C78.7774 215.968 78.9663 215.755 79.143 215.529C80.0814 214.309 80.6968 212.912 81.5804 211.661C82.4967 210.376 83.646 209.275 84.9684 208.415C88.6977 205.932 93.6456 204.98 98.0756 203.644H98.1244C106.041 201.233 113.255 196.935 119.147 191.118C119.635 190.71 120.001 190.173 120.201 189.569C120.39 188.708 119.927 187.854 119.482 187.098C118.964 186.207 118.459 185.316 117.959 184.413C115.712 180.318 113.705 176.095 111.951 171.766C111.567 170.814 111.195 169.868 110.835 168.91C109.913 166.47 109.072 163.995 108.313 161.485C108.063 160.655 107.819 159.819 107.588 158.984C107.545 158.825 107.496 158.654 107.454 158.471C106.442 154.402 105.089 144.878 100.921 147.727C99.6817 148.614 98.529 149.617 97.4785 150.723C96.668 151.546 95.8759 152.394 95.041 153.212C94.3611 153.881 93.6429 154.511 92.89 155.097C92.126 155.683 91.3101 156.198 90.4526 156.635C87.1438 158.331 83.6461 159.752 80.4226 161.571C78.6475 162.542 76.9807 163.699 75.4503 165.024C73.3236 166.903 71.52 169.221 69.0399 170.582L68.7718 170.728C64.3966 172.955 59.2476 171.619 54.2691 171.521C53.5375 171.503 52.8053 171.521 52.0755 171.576C48.0354 171.881 44.3427 173.504 40.7719 175.487C38.2614 176.878 35.8118 178.452 33.3439 179.874C31.784 180.771 30.224 181.741 28.6519 182.735C24.6667 185.249 20.6267 187.885 16.4648 189.788C12.1993 191.728 7.79367 192.888 3.1443 192.357C2.74821 195.499 5.28313 198.037 6.97714 200.807C7.79076 201.998 8.28396 203.378 8.40912 204.815C8.43151 205.353 8.39267 205.891 8.29334 206.42C7.9521 208.366 7.07463 210.27 7.294 212.228C7.46691 213.345 7.91742 214.4 8.60411 215.297C9.66439 216.816 11.1573 218.177 12.1688 219.763Z" fill="#FFD6BA"/>
<path d="M136.057 232.472C136.057 232.472 141.395 237.133 146.806 239.617C152.217 242.1 148.634 251.007 148.634 251.007C148.634 251.007 142.9 252.325 138.884 246.737C134.868 241.148 136.057 232.472 136.057 232.472Z" fill="#FBBEBE"/>
<path d="M423.696 311.818C423.696 311.818 409.559 330.444 397.829 330.597C386.099 330.749 379.213 338.443 384.783 343.251C390.352 348.058 451.044 340.505 451.044 340.505C451.044 340.505 451.617 317.614 446.358 314.27C441.099 310.927 423.696 311.818 423.696 311.818Z" fill="#444176"/>
<path d="M575.7 334.178C575.7 334.178 577.863 348.931 571.178 358.992C564.494 369.053 583.256 372.933 583.256 372.933C583.256 372.933 596.887 376.734 597.88 363.25C598.874 349.767 598.551 339.456 597.271 338.358C595.991 337.26 594.925 329.676 594.925 329.676L575.7 334.178Z" fill="#444176"/>
<path d="M361.695 362.042C361.695 362.042 361.201 314.325 408.359 294.929L419.309 274.07L424.562 261.257C426.464 256.617 429.456 252.504 433.285 249.269C437.113 246.033 441.665 243.771 446.553 242.673L455.048 240.763L457.674 229.684C459.073 223.761 462.174 218.379 466.593 214.2C471.012 210.022 476.556 207.23 482.542 206.17C487.707 205.21 492.949 204.72 498.202 204.706C500.527 204.741 502.803 205.377 504.809 206.553C506.815 207.729 508.483 209.405 509.652 211.417V211.417C509.652 211.417 554.33 210.923 556.31 235.278C556.31 235.278 560.783 257.639 567.236 261.617C567.236 261.617 578.155 259.134 589.075 275.04L600.988 315.795C600.988 315.795 632.26 345.117 622.827 371.926C622.827 371.926 609.921 390.315 544.397 377.887C544.397 377.887 474.407 399.241 437.151 369.955C437.145 369.992 375.1 381.92 361.695 362.042Z" fill="#FAF9F9"/>
<path opacity="0.1" d="M392.967 354.587C392.967 354.587 402.899 340.67 402.399 330.725C401.9 320.78 404.739 296.559 404.739 296.559" stroke="black" stroke-miterlimit="10"/>
<path opacity="0.1" d="M429.205 317.308C429.205 317.308 439.131 298.92 438.138 288.981C438.138 288.981 448.564 270.067 456.504 271.58" stroke="black" stroke-miterlimit="10"/>
<path opacity="0.1" d="M483.809 265.119C483.809 265.119 511.108 255.18 512.601 247.23" stroke="black" stroke-miterlimit="10"/>
<path opacity="0.1" d="M493.736 287.987C493.736 287.987 522.528 275.064 522.528 271.581H536.914C536.914 271.581 557.767 298.92 555.286 310.848" stroke="black" stroke-miterlimit="10"/>
<path opacity="0.1" d="M527.494 307.864C527.494 307.864 499.695 305.875 489.763 313.831C479.83 321.787 461.964 325.759 461.964 325.759C461.964 325.759 451.538 348.126 447.565 352.097C443.592 356.069 437.139 369.992 437.139 369.992" stroke="black" stroke-miterlimit="10"/>
<path opacity="0.1" d="M527.494 334.208C527.494 334.208 530.467 344.641 534.44 350.608C538.413 356.575 544.367 377.942 544.367 377.942" stroke="black" stroke-miterlimit="10"/>
<path opacity="0.1" d="M574.152 364.525C574.152 364.525 580.453 382.078 585.992 382.249" stroke="black" stroke-miterlimit="10"/>
<path opacity="0.1" d="M532.88 289.182C532.88 289.182 549.248 293.612 556.091 304.343C562.934 315.075 583.835 324.807 583.835 324.807" stroke="black" stroke-miterlimit="10"/>
<path opacity="0.1" d="M539.9 236.31C539.9 236.31 539.9 259.171 546.353 259.171C552.806 259.171 567.205 261.654 567.205 261.654" stroke="black" stroke-miterlimit="10"/>
<path opacity="0.1" d="M508.275 209.16C508.275 209.16 506.623 248.652 498.184 258.878" stroke="black" stroke-miterlimit="10"/>
<g opacity="0.05">
<path opacity="0.05" d="M599.964 315.32L588.051 274.564C577.132 258.658 566.212 261.142 566.212 261.142C559.759 257.164 555.293 234.797 555.293 234.797C553.306 210.441 508.628 210.941 508.628 210.941C507.458 208.925 505.785 207.248 503.775 206.071C501.764 204.895 499.483 204.261 497.154 204.23C495.046 204.23 492.889 204.297 490.731 204.474C491.95 204.596 493.118 204.769 494.235 204.993L497.709 210.96C497.709 210.96 542.38 210.459 544.367 234.815C544.367 234.815 548.839 257.182 555.293 261.16C555.293 261.16 566.212 258.671 577.132 274.582L589.045 315.338C589.045 315.338 620.317 344.66 610.884 371.469C610.884 371.469 604.516 380.541 578.028 381.639C613.742 382.951 621.804 371.469 621.804 371.469C631.236 344.642 599.964 315.32 599.964 315.32Z" fill="black"/>
<path opacity="0.05" d="M425.232 369.492C414.724 371.385 404.098 372.549 393.43 372.976C405.867 373.452 418.803 372.104 427.139 370.956C426.493 370.462 425.86 369.986 425.232 369.492Z" fill="black"/>
<path opacity="0.05" d="M532.454 377.447C517.172 381.739 501.442 384.228 485.583 384.866C508.464 385.696 530.139 380.919 539.072 378.625C536.915 378.265 534.727 377.856 532.454 377.447Z" fill="black"/>
</g>
<path d="M135.795 454.969C135.795 454.969 149.45 454.548 153.563 451.614C157.677 448.679 174.562 445.177 175.585 449.881C176.609 454.585 196.102 473.279 180.686 473.407C165.269 473.535 144.874 471.003 140.767 468.495C136.66 465.988 135.795 454.969 135.795 454.969Z" fill="#FAF9F9"/>
<path opacity="0.2" d="M180.966 471.765C165.549 471.893 145.148 469.361 141.041 466.884C137.915 464.974 136.666 458.129 136.252 454.975H135.795C135.795 454.975 136.66 465.999 140.767 468.501C144.874 471.002 165.275 473.534 180.686 473.412C185.14 473.376 186.676 471.789 186.59 469.44C185.975 470.856 184.275 471.741 180.966 471.765Z" fill="black"/>
<path d="M468.709 420.681C468.709 420.681 452.629 417.459 448.345 413.164C444.061 408.869 424.763 401.364 422.618 406.727C420.473 412.09 393.68 430.339 411.899 433.572C430.119 436.806 454.774 437.843 460.136 435.72C465.498 433.597 468.709 420.681 468.709 420.681Z" fill="#FAF9F9"/>
<path opacity="0.2" d="M411.899 431.546C430.125 434.762 454.773 435.817 460.136 433.688C464.212 432.053 467.052 424.2 468.173 420.546L468.709 420.662C468.709 420.662 465.492 433.535 460.136 435.683C454.78 437.83 430.125 436.757 411.899 433.535C406.641 432.608 405.135 430.424 405.702 427.666C406.153 429.484 407.987 430.869 411.899 431.546Z" fill="black"/>
<path opacity="0.1" d="M314.732 70.0716H310.905C311.616 70.0716 312.298 69.7888 312.801 69.2854C313.303 68.7819 313.586 68.0991 313.586 67.3871C313.586 66.6752 313.303 65.9924 312.801 65.4889C312.298 64.9855 311.616 64.7026 310.905 64.7026H279.901C279.19 64.7026 278.508 64.9855 278.005 65.4889C277.502 65.9924 277.22 66.6752 277.22 67.3871C277.22 68.0991 277.502 68.7819 278.005 69.2854C278.508 69.7888 279.19 70.0716 279.901 70.0716H283.728C283.039 70.1045 282.39 70.4014 281.915 70.9007C281.439 71.3999 281.174 72.0633 281.174 72.7531C281.174 73.4429 281.439 74.1063 281.915 74.6056C282.39 75.1048 283.039 75.4017 283.728 75.4346H278.371C277.66 75.4346 276.978 75.7174 276.475 76.2208C275.973 76.7243 275.69 77.4071 275.69 78.1191C275.69 78.831 275.973 79.5139 276.475 80.0173C276.978 80.5207 277.66 80.8036 278.371 80.8036H309.375C310.086 80.8036 310.768 80.5207 311.271 80.0173C311.774 79.5139 312.056 78.831 312.056 78.1191C312.056 77.4071 311.774 76.7243 311.271 76.2208C310.768 75.7174 310.086 75.4346 309.375 75.4346H314.732C315.094 75.4519 315.456 75.3953 315.796 75.2684C316.136 75.1415 316.447 74.9467 316.709 74.696C316.972 74.4453 317.181 74.1439 317.324 73.8099C317.467 73.4759 317.54 73.1164 317.54 72.7531C317.54 72.3898 317.467 72.0303 317.324 71.6963C317.181 71.3623 316.972 71.0609 316.709 70.8102C316.447 70.5595 316.136 70.3647 315.796 70.2378C315.456 70.1109 315.094 70.0543 314.732 70.0716V70.0716Z" fill="#6C63FF"/>
<path opacity="0.1" d="M435.152 164.524H431.325C432.014 164.491 432.663 164.194 433.138 163.695C433.614 163.195 433.879 162.532 433.879 161.842C433.879 161.152 433.614 160.489 433.138 159.99C432.663 159.491 432.014 159.194 431.325 159.161H400.291C399.929 159.143 399.566 159.2 399.226 159.327C398.886 159.454 398.576 159.649 398.313 159.899C398.05 160.15 397.841 160.451 397.699 160.785C397.556 161.119 397.482 161.479 397.482 161.842C397.482 162.206 397.556 162.565 397.699 162.899C397.841 163.233 398.05 163.534 398.313 163.785C398.576 164.036 398.886 164.231 399.226 164.358C399.566 164.484 399.929 164.541 400.291 164.524H404.118C403.43 164.557 402.78 164.853 402.305 165.353C401.83 165.852 401.564 166.515 401.564 167.205C401.564 167.895 401.83 168.558 402.305 169.058C402.78 169.557 403.43 169.854 404.118 169.887H398.761C398.05 169.887 397.368 170.169 396.866 170.673C396.363 171.176 396.08 171.859 396.08 172.571C396.08 173.283 396.363 173.966 396.866 174.469C397.368 174.973 398.05 175.256 398.761 175.256H429.759C430.47 175.256 431.152 174.973 431.655 174.469C432.158 173.966 432.44 173.283 432.44 172.571C432.44 171.859 432.158 171.176 431.655 170.673C431.152 170.169 430.47 169.887 429.759 169.887H435.152C435.515 169.904 435.877 169.847 436.217 169.72C436.557 169.593 436.867 169.399 437.13 169.148C437.393 168.897 437.602 168.596 437.745 168.262C437.887 167.928 437.961 167.568 437.961 167.205C437.961 166.842 437.887 166.482 437.745 166.148C437.602 165.814 437.393 165.513 437.13 165.262C436.867 165.011 436.557 164.817 436.217 164.69C435.877 164.563 435.515 164.506 435.152 164.524V164.524Z" fill="#6C63FF"/>
<path opacity="0.1" d="M256.715 147.05H252.888C253.251 147.067 253.613 147.011 253.953 146.884C254.293 146.757 254.603 146.562 254.866 146.312C255.129 146.061 255.338 145.759 255.481 145.425C255.623 145.091 255.697 144.732 255.697 144.369C255.697 144.005 255.623 143.646 255.481 143.312C255.338 142.978 255.129 142.676 254.866 142.426C254.603 142.175 254.293 141.98 253.953 141.853C253.613 141.726 253.251 141.67 252.888 141.687H221.878C221.516 141.67 221.153 141.726 220.814 141.853C220.474 141.98 220.163 142.175 219.9 142.426C219.638 142.676 219.429 142.978 219.286 143.312C219.143 143.646 219.069 144.005 219.069 144.369C219.069 144.732 219.143 145.091 219.286 145.425C219.429 145.759 219.638 146.061 219.9 146.312C220.163 146.562 220.474 146.757 220.814 146.884C221.153 147.011 221.516 147.067 221.878 147.05H225.705C225.342 147.033 224.98 147.089 224.64 147.216C224.3 147.343 223.99 147.538 223.727 147.789C223.464 148.039 223.255 148.341 223.112 148.675C222.97 149.009 222.896 149.368 222.896 149.731C222.896 150.095 222.97 150.454 223.112 150.788C223.255 151.122 223.464 151.424 223.727 151.674C223.99 151.925 224.3 152.12 224.64 152.247C224.98 152.374 225.342 152.43 225.705 152.413H220.343C219.631 152.413 218.95 152.696 218.447 153.199C217.944 153.703 217.661 154.385 217.661 155.097C217.661 155.809 217.944 156.492 218.447 156.996C218.95 157.499 219.631 157.782 220.343 157.782H251.346C252.058 157.782 252.74 157.499 253.242 156.996C253.745 156.492 254.028 155.809 254.028 155.097C254.028 154.385 253.745 153.703 253.242 153.199C252.74 152.696 252.058 152.413 251.346 152.413H256.703C257.065 152.43 257.427 152.374 257.767 152.247C258.107 152.12 258.418 151.925 258.681 151.674C258.943 151.424 259.152 151.122 259.295 150.788C259.438 150.454 259.512 150.095 259.512 149.731C259.512 149.368 259.438 149.009 259.295 148.675C259.152 148.341 258.943 148.039 258.681 147.789C258.418 147.538 258.107 147.343 257.767 147.216C257.427 147.089 257.065 147.033 256.703 147.05H256.715Z" fill="#6C63FF"/>
</g>
<defs>
<linearGradient id="paint0_linear" x1="-441939" y1="39985.2" x2="-477559" y2="39985.2" gradientUnits="userSpaceOnUse">
<stop stop-color="#808080" stop-opacity="0.25"/>
<stop offset="0.54" stop-color="#808080" stop-opacity="0.12"/>
<stop offset="1" stop-color="#808080" stop-opacity="0.1"/>
</linearGradient>
<clipPath id="clip0">
<rect width="629" height="508" fill="white"/>
</clipPath>
</defs>
</svg>
